<svg width="16" height="16" viewBox="0 0 16 16" fill="none" xmlns="http://www.w3.org/2000/svg">
<path fill-rule="evenodd" clip-rule="evenodd" d="M7.33331 5.3335C7.33331 4.9655 7.63198 4.66683 7.99998 4.66683C8.36798 4.66683 8.66665 4.9655 8.66665 5.3335V8.66683C8.66665 9.03483 8.36798 9.3335 7.99998 9.3335C7.63198 9.3335 7.33331 9.03483 7.33331 8.66683V5.3335ZM7.33331 10.6668C7.33331 10.2988 7.63198 10.0002 7.99998 10.0002C8.36798 10.0002 8.66665 10.2988 8.66665 10.6668C8.66665 11.0348 8.36798 11.3335 7.99998 11.3335C7.63198 11.3335 7.33331 11.0348 7.33331 10.6668ZM7.99998 13.3335C5.05931 13.3335 2.66665 10.9408 2.66665 8.00016C2.66665 5.0595 5.05931 2.66683 7.99998 2.66683C10.9406 2.66683 13.3333 5.0595 13.3333 8.00016C13.3333 10.9408 10.9406 13.3335 7.99998 13.3335ZM7.99998 1.3335C4.31798 1.3335 1.33331 4.31816 1.33331 8.00016C1.33331 11.6822 4.31798 14.6668 7.99998 14.6668C11.682 14.6668 14.6666 11.6822 14.6666 8.00016C14.6666 4.31816 11.682 1.3335 7.99998 1.3335Z" fill="#A0A1B4"/>
<mask id="mask0_9_5094" style="mask-type:luminance" maskUnits="userSpaceOnUse" x="1" y="1" width="14" height="14">
<path fill-rule="evenodd" clip-rule="evenodd" d="M7.33331 5.3335C7.33331 4.9655 7.63198 4.66683 7.99998 4.66683C8.36798 4.66683 8.66665 4.9655 8.66665 5.3335V8.66683C8.66665 9.03483 8.36798 9.3335 7.99998 9.3335C7.63198 9.3335 7.33331 9.03483 7.33331 8.66683V5.3335ZM7.33331 10.6668C7.33331 10.2988 7.63198 10.0002 7.99998 10.0002C8.36798 10.0002 8.66665 10.2988 8.66665 10.6668C8.66665 11.0348 8.36798 11.3335 7.99998 11.3335C7.63198 11.3335 7.33331 11.0348 7.33331 10.6668ZM7.99998 13.3335C5.05931 13.3335 2.66665 10.9408 2.66665 8.00016C2.66665 5.0595 5.05931 2.66683 7.99998 2.66683C10.9406 2.66683 13.3333 5.0595 13.3333 8.00016C13.3333 10.9408 10.9406 13.3335 7.99998 13.3335ZM7.99998 1.3335C4.31798 1.3335 1.33331 4.31816 1.33331 8.00016C1.33331 11.6822 4.31798 14.6668 7.99998 14.6668C11.682 14.6668 14.6666 11.6822 14.6666 8.00016C14.6666 4.31816 11.682 1.3335 7.99998 1.3335Z" fill="white"/>
</mask>
<g mask="url(#mask0_9_5094)">
</g>
</svg>
