<svg width="17" height="24" viewBox="0 0 17 24" fill="none" xmlns="http://www.w3.org/2000/svg">
<path d="M10.3612 5.99987H9.63628V4.36494C10.1391 4.18 10.5586 3.81029 10.8147 3.32608C11.0707 2.84187 11.1457 2.27704 11.025 1.73936C10.9043 1.20149 10.5966 0.728559 10.1606 0.410492C9.72437 0.0925799 9.19043 -0.0484793 8.66043 0.0148014C8.13029 0.077894 7.64112 0.340621 7.28631 0.752907C6.93148 1.16517 6.7358 1.69799 6.73631 2.24999C6.73631 2.518 6.87449 2.76545 7.09878 2.89958C7.32325 3.03348 7.5996 3.03348 7.82392 2.89958C8.04821 2.76549 8.18639 2.51801 8.18639 2.24999C8.18639 2.05111 8.26266 1.86033 8.39866 1.71964C8.53466 1.57895 8.71907 1.50004 8.91132 1.50004C9.10357 1.50004 9.28799 1.57895 9.42399 1.71964C9.55998 1.86033 9.63626 2.05111 9.63626 2.24999C9.63626 2.44888 9.55998 2.63966 9.42399 2.78035C9.28799 2.92104 9.10357 2.99995 8.91132 2.99995C8.71926 3.00051 8.5352 3.0798 8.39941 3.2203C8.26341 3.3608 8.18695 3.5512 8.1864 3.75007V6.00011L7.46145 5.99993C5.73177 6.00256 4.07363 6.71465 2.85056 7.97988C1.62734 9.2451 0.939162 10.9605 0.936646 12.7499V23.2499C0.937192 23.4488 1.01365 23.6392 1.14947 23.7796C1.28546 23.9201 1.46952 23.9992 1.66157 24H16.1611C16.3532 23.9992 16.5372 23.9201 16.6732 23.7796C16.809 23.6391 16.8855 23.4487 16.886 23.2499V12.7499C16.8835 10.9605 16.1953 9.24515 14.9721 7.97988C13.7491 6.71465 12.0909 6.00253 10.3612 5.99993L10.3612 5.99987ZM9.63628 20.2495C9.63628 20.5175 9.4981 20.7651 9.27381 20.8991C9.04952 21.0332 8.77317 21.0332 8.54886 20.8991C8.32457 20.7652 8.18639 20.5175 8.18639 20.2495V9.74946C8.18639 9.48165 8.32457 9.23401 8.54886 9.10007C8.77315 8.96598 9.0495 8.96598 9.27381 9.10007C9.4981 9.23398 9.63628 9.48164 9.63628 9.74946V20.2495Z" fill="#4E55AF"/>
</svg>
