<svg width="28" height="28" viewBox="0 0 28 28" fill="none" xmlns="http://www.w3.org/2000/svg">
<path d="M18.4013 1C18.4572 1 18.513 1 18.572 1C18.709 2.69253 18.063 3.95719 17.2779 4.87301C16.5075 5.78251 15.4526 6.6646 13.7463 6.53076C13.6325 4.86247 14.2796 3.69161 15.0637 2.7779C15.7908 1.92636 17.124 1.16862 18.4013 1Z" fill="#222B45"/>
<path d="M23.5663 18.6166C23.5663 18.6335 23.5663 18.6482 23.5663 18.6641C23.0868 20.1163 22.4028 21.3609 21.5682 22.516C20.8062 23.5646 19.8725 24.9757 18.2052 24.9757C16.7646 24.9757 15.8077 24.0494 14.3312 24.0241C12.7693 23.9988 11.9104 24.7987 10.4824 25C10.3191 25 10.1557 25 9.99552 25C8.94691 24.8482 8.10065 24.0178 7.48413 23.2695C5.66618 21.0585 4.26136 18.2025 4 14.5476C4 14.1893 4 13.832 4 13.4737C4.11066 10.858 5.38164 8.73124 7.07101 7.70054C7.96259 7.15253 9.18825 6.68566 10.553 6.89432C11.1379 6.98496 11.7355 7.1852 12.2593 7.38333C12.7556 7.57408 13.3764 7.91237 13.9644 7.89446C14.3628 7.88286 14.7591 7.67525 15.1606 7.52876C16.3367 7.10405 17.4897 6.61715 19.0094 6.84585C20.8357 7.12196 22.132 7.93345 22.9329 9.18546C21.388 10.1687 20.1665 11.6505 20.3752 14.1808C20.5607 16.4794 21.897 17.8241 23.5663 18.6166Z" fill="#222B45"/>
</svg>
