<svg width="20" height="20" viewBox="0 0 20 20" fill="none" xmlns="http://www.w3.org/2000/svg">
<path fill-rule="evenodd" clip-rule="evenodd" d="M15.8333 9.16667H5.94583L8.97333 5.53334C9.26833 5.18001 9.22 4.65417 8.86667 4.36001C8.5125 4.06501 7.9875 4.11334 7.69333 4.46667L3.52667 9.46667C3.49417 9.50584 3.4775 9.55167 3.45333 9.59501C3.43333 9.63001 3.40917 9.66001 3.39417 9.69834C3.35667 9.79417 3.33417 9.89501 3.33417 9.99667C3.33417 9.99751 3.33333 9.99917 3.33333 10C3.33333 10.0008 3.33417 10.0025 3.33417 10.0033C3.33417 10.105 3.35667 10.2058 3.39417 10.3017C3.40917 10.34 3.43333 10.37 3.45333 10.405C3.4775 10.4483 3.49417 10.4942 3.52667 10.5333L7.69333 15.5333C7.85833 15.7308 8.095 15.8333 8.33333 15.8333C8.52167 15.8333 8.71083 15.77 8.86667 15.64C9.22 15.3458 9.26833 14.82 8.97333 14.4667L5.94583 10.8333H15.8333C16.2933 10.8333 16.6667 10.46 16.6667 10C16.6667 9.54001 16.2933 9.16667 15.8333 9.16667" fill="#0D0F23"/>
<mask id="mask0_125_3455" style="mask-type:alpha" maskUnits="userSpaceOnUse" x="3" y="4" width="14" height="12">
<path fill-rule="evenodd" clip-rule="evenodd" d="M15.8333 9.16667H5.94583L8.97333 5.53334C9.26833 5.18001 9.22 4.65417 8.86667 4.36001C8.5125 4.06501 7.9875 4.11334 7.69333 4.46667L3.52667 9.46667C3.49417 9.50584 3.4775 9.55167 3.45333 9.59501C3.43333 9.63001 3.40917 9.66001 3.39417 9.69834C3.35667 9.79417 3.33417 9.89501 3.33417 9.99667C3.33417 9.99751 3.33333 9.99917 3.33333 10C3.33333 10.0008 3.33417 10.0025 3.33417 10.0033C3.33417 10.105 3.35667 10.2058 3.39417 10.3017C3.40917 10.34 3.43333 10.37 3.45333 10.405C3.4775 10.4483 3.49417 10.4942 3.52667 10.5333L7.69333 15.5333C7.85833 15.7308 8.095 15.8333 8.33333 15.8333C8.52167 15.8333 8.71083 15.77 8.86667 15.64C9.22 15.3458 9.26833 14.82 8.97333 14.4667L5.94583 10.8333H15.8333C16.2933 10.8333 16.6667 10.46 16.6667 10C16.6667 9.54001 16.2933 9.16667 15.8333 9.16667" fill="white"/>
</mask>
<g mask="url(#mask0_125_3455)">
</g>
</svg>
