<svg width="20" height="20" viewBox="0 0 20 20" fill="none" xmlns="http://www.w3.org/2000/svg">
<path fill-rule="evenodd" clip-rule="evenodd" d="M10 14.1666C9.57833 14.1666 9.175 13.9725 8.895 13.6316L5.38417 9.38329C4.96417 8.87413 4.88 8.15163 5.16833 7.54079C5.4225 7.00163 5.92833 6.66663 6.48917 6.66663H13.5108C14.0717 6.66663 14.5775 7.00163 14.8317 7.54079C15.12 8.15163 15.0358 8.87413 14.6167 9.38246L11.105 13.6316C10.825 13.9725 10.4217 14.1666 10 14.1666Z" fill="#A0A1B4"/>
<mask id="mask0_1_5071" style="mask-type:alpha" maskUnits="userSpaceOnUse" x="4" y="6" width="12" height="9">
<path fill-rule="evenodd" clip-rule="evenodd" d="M10 14.1666C9.57833 14.1666 9.175 13.9725 8.895 13.6316L5.38417 9.38329C4.96417 8.87413 4.88 8.15163 5.16833 7.54079C5.4225 7.00163 5.92833 6.66663 6.48917 6.66663H13.5108C14.0717 6.66663 14.5775 7.00163 14.8317 7.54079C15.12 8.15163 15.0358 8.87413 14.6167 9.38246L11.105 13.6316C10.825 13.9725 10.4217 14.1666 10 14.1666Z" fill="white"/>
</mask>
<g mask="url(#mask0_1_5071)">
</g>
</svg>
