<svg width="20" height="20" viewBox="0 0 20 20" fill="none" xmlns="http://www.w3.org/2000/svg">
<path fill-rule="evenodd" clip-rule="evenodd" d="M11.6666 15.2845C11.6666 16.0336 10.9033 16.667 9.99997 16.667C9.09664 16.667 8.33331 16.0336 8.33331 15.2845V15.0003H11.6666V15.2845ZM17.1008 12.6728L15.6 11.1703V7.44696C15.6 4.54613 13.515 2.0828 10.7491 1.71613C9.14831 1.50363 7.53164 1.99196 6.31914 3.0553C5.09914 4.12363 4.39997 5.66113 4.39997 7.2728L4.39914 11.1703L2.89914 12.6736C2.50831 13.0645 2.39247 13.6478 2.60414 14.1586C2.81664 14.6695 3.31081 15.0003 3.86414 15.0003H6.66664V15.2845C6.66664 16.9661 8.16164 18.3336 9.99997 18.3336C11.8383 18.3336 13.3333 16.9661 13.3333 15.2845V15.0003H16.135C16.6883 15.0003 17.1825 14.6703 17.3941 14.1586C17.6066 13.6478 17.4908 13.0645 17.1008 12.6728Z" fill="white"/>
<mask id="mask0_14_13281" style="mask-type:alpha" maskUnits="userSpaceOnUse" x="2" y="1" width="16" height="18">
<path fill-rule="evenodd" clip-rule="evenodd" d="M11.6666 15.2845C11.6666 16.0336 10.9033 16.667 9.99997 16.667C9.09664 16.667 8.33331 16.0336 8.33331 15.2845V15.0003H11.6666V15.2845ZM17.1008 12.6728L15.6 11.1703V7.44696C15.6 4.54613 13.515 2.0828 10.7491 1.71613C9.14831 1.50363 7.53164 1.99196 6.31914 3.0553C5.09914 4.12363 4.39997 5.66113 4.39997 7.2728L4.39914 11.1703L2.89914 12.6736C2.50831 13.0645 2.39247 13.6478 2.60414 14.1586C2.81664 14.6695 3.31081 15.0003 3.86414 15.0003H6.66664V15.2845C6.66664 16.9661 8.16164 18.3336 9.99997 18.3336C11.8383 18.3336 13.3333 16.9661 13.3333 15.2845V15.0003H16.135C16.6883 15.0003 17.1825 14.6703 17.3941 14.1586C17.6066 13.6478 17.4908 13.0645 17.1008 12.6728Z" fill="white"/>
</mask>
<g mask="url(#mask0_14_13281)">
</g>
</svg>
