<svg width="32" height="32" viewBox="0 0 32 32" fill="none" xmlns="http://www.w3.org/2000/svg">
<circle cx="16" cy="16" r="16" fill="#4E55AF"/>
<path fill-rule="evenodd" clip-rule="evenodd" d="M12.9967 13.9305C11.642 15.5319 11.6707 18.0705 13.0827 19.6428C13.772 20.4126 14.688 20.8371 15.664 20.8379H15.6673C16.6453 20.8379 17.5647 20.4133 18.2573 19.6428C19.6947 18.0421 19.692 15.4387 18.2513 13.8402L16.2607 11.6183C16.0593 13.4258 15.4387 15.0119 14.3333 15.0119C13.9947 15.0119 13.4427 14.8473 12.9967 13.9305ZM15.6673 22.2943H15.6627C14.3253 22.2929 13.0707 21.7139 12.13 20.6616C10.1873 18.4988 10.1847 14.9792 12.124 12.8199L12.7793 12.096C12.9487 11.9111 13.1947 11.8397 13.4273 11.906C13.6587 11.9744 13.8387 12.1732 13.8987 12.4267C14.052 13.0741 14.2347 13.3923 14.3353 13.5132C14.572 13.2408 15 12.1405 15 10.2784C15 10.1713 15 10.0701 14.9947 9.96885C14.982 9.75402 15.0573 9.54356 15.2 9.39499C15.4647 9.12045 15.8887 9.12045 16.1427 9.40592L19.2027 12.8206C21.1493 14.9792 21.1527 18.4988 19.2093 20.6624C18.2633 21.7154 17.006 22.2943 15.6673 22.2943Z" fill="white"/>
<mask id="mask0_9_4968" style="mask-type:luminance" maskUnits="userSpaceOnUse" x="10" y="9" width="11" height="14">
<path fill-rule="evenodd" clip-rule="evenodd" d="M12.9967 13.9305C11.642 15.5319 11.6707 18.0705 13.0827 19.6428C13.772 20.4126 14.688 20.8371 15.664 20.8379H15.6673C16.6453 20.8379 17.5647 20.4133 18.2573 19.6428C19.6947 18.0421 19.692 15.4387 18.2513 13.8402L16.2607 11.6183C16.0593 13.4258 15.4387 15.0119 14.3333 15.0119C13.9947 15.0119 13.4427 14.8473 12.9967 13.9305ZM15.6673 22.2943H15.6627C14.3253 22.2929 13.0707 21.7139 12.13 20.6616C10.1873 18.4988 10.1847 14.9792 12.124 12.8199L12.7793 12.096C12.9487 11.9111 13.1947 11.8397 13.4273 11.906C13.6587 11.9744 13.8387 12.1732 13.8987 12.4267C14.052 13.0741 14.2347 13.3923 14.3353 13.5132C14.572 13.2408 15 12.1405 15 10.2784C15 10.1713 15 10.0701 14.9947 9.96885C14.982 9.75402 15.0573 9.54356 15.2 9.39499C15.4647 9.12045 15.8887 9.12045 16.1427 9.40592L19.2027 12.8206C21.1493 14.9792 21.1527 18.4988 19.2093 20.6624C18.2633 21.7154 17.006 22.2943 15.6673 22.2943Z" fill="white"/>
</mask>
<g mask="url(#mask0_9_4968)">
</g>
</svg>
