<svg width="22" height="16" viewBox="0 0 22 16" fill="none" xmlns="http://www.w3.org/2000/svg">
<path d="M3.5822 0.44835H17.6261C17.591 0.789369 17.5089 0.895174 17.3798 1.0364C17.2391 1.21281 16.9695 1.51864 16.9695 2.09485C16.9577 2.67109 17.204 3.00028 17.3681 3.20031C17.4853 3.35311 17.579 3.45914 17.6143 3.76474H3.52317C2.89013 3.77655 2.49158 3.64713 2.23358 3.41191C1.98756 3.16489 1.84679 2.77686 1.85855 2.14181C1.85855 1.47156 2.01087 1.18915 2.29219 0.895358C2.57351 0.624719 2.99559 0.460109 3.58179 0.448303L3.5822 0.44835ZM0.510759 5.09368H5.57503L5.55149 9.08036H0.510556L0.510759 5.09368ZM6.24334 5.09368L14.2853 5.11729L14.2735 9.08057L6.21975 9.06876L6.24334 5.09368ZM14.9535 5.09368H19.9709V9.09216H14.9417L14.9535 5.09368ZM0.194149 10.3974L18.9745 10.4092C19.9357 10.4092 20.5218 10.5738 20.85 10.8326C21.1782 11.0915 21.319 11.4677 21.3072 12.0791C21.3072 12.5141 21.319 12.9612 21.319 13.408C21.3307 14.0078 21.1782 14.3607 20.8618 14.6193C20.5569 14.8781 20.0178 15.0309 19.2089 15.0543H0.205861C0.240939 14.6665 0.346406 14.4429 0.475413 14.1725C0.639495 13.8315 0.827121 13.408 0.827121 12.7023C0.815351 11.9969 0.627726 11.5735 0.463644 11.2442C0.334637 10.9266 0.229168 10.6562 0.194092 10.3974L0.194149 10.3974Z" fill="#F9A1DA"/>
</svg>
