<svg width="16" height="16" viewBox="0 0 16 16" fill="none" xmlns="http://www.w3.org/2000/svg">
<path fill-rule="evenodd" clip-rule="evenodd" d="M12.6667 12.0229C12.6667 12.3909 12.3673 12.6896 12 12.6896H4C3.63267 12.6896 3.33333 12.3909 3.33333 12.0229V7.35628H12.6667V12.0229ZM5.33333 4.02295C5.70133 4.02295 6 4.32095 6 4.68962C6 5.05828 5.70133 5.35628 5.33333 5.35628C4.96533 5.35628 4.66667 5.05828 4.66667 4.68962C4.66667 4.32095 4.96533 4.02295 5.33333 4.02295ZM8 4.02295C8.368 4.02295 8.66667 4.32095 8.66667 4.68962C8.66667 5.05828 8.368 5.35628 8 5.35628C7.632 5.35628 7.33333 5.05828 7.33333 4.68962C7.33333 4.32095 7.632 4.02295 8 4.02295ZM12 2.02295H4C2.89733 2.02295 2 2.92028 2 4.02295V6.02295V7.35628V12.0229C2 13.1256 2.89733 14.0229 4 14.0229H12C13.1027 14.0229 14 13.1256 14 12.0229V7.35628V6.02295V4.02295C14 2.92028 13.1027 2.02295 12 2.02295Z" fill="#A0A1B4"/>
<mask id="mask0_9_5101" style="mask-type:luminance" maskUnits="userSpaceOnUse" x="2" y="2" width="12" height="13">
<path fill-rule="evenodd" clip-rule="evenodd" d="M12.6667 12.0229C12.6667 12.3909 12.3673 12.6896 12 12.6896H4C3.63267 12.6896 3.33333 12.3909 3.33333 12.0229V7.35628H12.6667V12.0229ZM5.33333 4.02295C5.70133 4.02295 6 4.32095 6 4.68962C6 5.05828 5.70133 5.35628 5.33333 5.35628C4.96533 5.35628 4.66667 5.05828 4.66667 4.68962C4.66667 4.32095 4.96533 4.02295 5.33333 4.02295ZM8 4.02295C8.368 4.02295 8.66667 4.32095 8.66667 4.68962C8.66667 5.05828 8.368 5.35628 8 5.35628C7.632 5.35628 7.33333 5.05828 7.33333 4.68962C7.33333 4.32095 7.632 4.02295 8 4.02295ZM12 2.02295H4C2.89733 2.02295 2 2.92028 2 4.02295V6.02295V7.35628V12.0229C2 13.1256 2.89733 14.0229 4 14.0229H12C13.1027 14.0229 14 13.1256 14 12.0229V7.35628V6.02295V4.02295C14 2.92028 13.1027 2.02295 12 2.02295Z" fill="white"/>
</mask>
<g mask="url(#mask0_9_5101)">
</g>
</svg>
