<svg width="143" height="158" viewBox="0 0 143 158" fill="none" xmlns="http://www.w3.org/2000/svg">
<rect width="116" height="158" rx="16" fill="#7B60EE"/>
<path fill-rule="evenodd" clip-rule="evenodd" d="M103 51.0097L131.373 39.083C130.887 38.5863 130.337 38.143 129.67 37.833L105.67 26.5863C103.987 25.803 102.013 25.803 100.33 26.5863L76.33 37.833C75.6634 38.143 75.1134 38.5863 74.6267 39.083L103 51.0097ZM100.5 55.4237L73 43.8637V69.627C72.9834 71.7637 74.2634 73.7237 76.3 74.687L100.3 85.9303C100.332 85.9457 100.367 85.9558 100.401 85.966C100.434 85.9758 100.467 85.9857 100.5 86.0003V55.4237ZM105.5 85.9903V55.4237L133 43.8637V69.657C133 71.787 131.71 73.737 129.67 74.687L105.67 85.9303C105.64 85.9454 105.608 85.9552 105.575 85.965C105.55 85.9726 105.525 85.9802 105.5 85.9903Z" fill="white" fill-opacity="0.2"/>
<mask id="mask0_213_6476" style="mask-type:alpha" maskUnits="userSpaceOnUse" x="72" y="25" width="61" height="62">
<path fill-rule="evenodd" clip-rule="evenodd" d="M103 51.0097L131.373 39.083C130.887 38.5863 130.337 38.143 129.67 37.833L105.67 26.5863C103.987 25.803 102.013 25.803 100.33 26.5863L76.33 37.833C75.6634 38.143 75.1134 38.5863 74.6267 39.083L103 51.0097ZM100.5 55.4237L73 43.8637V69.627C72.9834 71.7637 74.2634 73.7237 76.3 74.687L100.3 85.9303C100.332 85.9457 100.367 85.9558 100.401 85.966C100.434 85.9758 100.467 85.9857 100.5 86.0003V55.4237ZM105.5 85.9903V55.4237L133 43.8637V69.657C133 71.787 131.71 73.737 129.67 74.687L105.67 85.9303C105.64 85.9454 105.608 85.9552 105.575 85.965C105.55 85.9726 105.525 85.9802 105.5 85.9903Z" fill="white"/>
</mask>
<g mask="url(#mask0_213_6476)">
</g>
</svg>
