<svg width="32" height="32" viewBox="0 0 32 32" fill="none" xmlns="http://www.w3.org/2000/svg">
<circle cx="16" cy="16" r="16" fill="#4E55AF"/>
<path fill-rule="evenodd" clip-rule="evenodd" d="M18 20.6667V18H20.6667L20.6673 20.6667H18ZM20.6667 16.6667H18C17.2647 16.6667 16.6667 17.2647 16.6667 18V20.6667C16.6667 21.402 17.2647 22 18 22H20.6667C21.402 22 22 21.402 22 20.6667V18C22 17.2647 21.402 16.6667 20.6667 16.6667ZM11.3333 20.6667V18H14L14.0007 20.6667H11.3333ZM14 16.6667H11.3333C10.598 16.6667 10 17.2647 10 18V20.6667C10 21.402 10.598 22 11.3333 22H14C14.7353 22 15.3333 21.402 15.3333 20.6667V18C15.3333 17.2647 14.7353 16.6667 14 16.6667ZM18 14V11.3333H20.6667L20.6673 14H18ZM20.6667 10H18C17.2647 10 16.6667 10.598 16.6667 11.3333V14C16.6667 14.7353 17.2647 15.3333 18 15.3333H20.6667C21.402 15.3333 22 14.7353 22 14V11.3333C22 10.598 21.402 10 20.6667 10ZM11.3333 14V11.3333H14L14.0007 14H11.3333ZM14 10H11.3333C10.598 10 10 10.598 10 11.3333V14C10 14.7353 10.598 15.3333 11.3333 15.3333H14C14.7353 15.3333 15.3333 14.7353 15.3333 14V11.3333C15.3333 10.598 14.7353 10 14 10Z" fill="white"/>
<mask id="mask0_9_5133" style="mask-type:luminance" maskUnits="userSpaceOnUse" x="10" y="10" width="12" height="12">
<path fill-rule="evenodd" clip-rule="evenodd" d="M18 20.6667V18H20.6667L20.6673 20.6667H18ZM20.6667 16.6667H18C17.2647 16.6667 16.6667 17.2647 16.6667 18V20.6667C16.6667 21.402 17.2647 22 18 22H20.6667C21.402 22 22 21.402 22 20.6667V18C22 17.2647 21.402 16.6667 20.6667 16.6667ZM11.3333 20.6667V18H14L14.0007 20.6667H11.3333ZM14 16.6667H11.3333C10.598 16.6667 10 17.2647 10 18V20.6667C10 21.402 10.598 22 11.3333 22H14C14.7353 22 15.3333 21.402 15.3333 20.6667V18C15.3333 17.2647 14.7353 16.6667 14 16.6667ZM18 14V11.3333H20.6667L20.6673 14H18ZM20.6667 10H18C17.2647 10 16.6667 10.598 16.6667 11.3333V14C16.6667 14.7353 17.2647 15.3333 18 15.3333H20.6667C21.402 15.3333 22 14.7353 22 14V11.3333C22 10.598 21.402 10 20.6667 10ZM11.3333 14V11.3333H14L14.0007 14H11.3333ZM14 10H11.3333C10.598 10 10 10.598 10 11.3333V14C10 14.7353 10.598 15.3333 11.3333 15.3333H14C14.7353 15.3333 15.3333 14.7353 15.3333 14V11.3333C15.3333 10.598 14.7353 10 14 10Z" fill="white"/>
</mask>
<g mask="url(#mask0_9_5133)">
</g>
</svg>
