<svg width="20" height="20" viewBox="0 0 20 20" fill="none" xmlns="http://www.w3.org/2000/svg">
<path fill-rule="evenodd" clip-rule="evenodd" d="M11.1784 9.99996L14.7559 6.42246C15.0818 6.09663 15.0818 5.56996 14.7559 5.24413C14.4301 4.9183 13.9034 4.9183 13.5776 5.24413L10.0001 8.82163L6.42259 5.24413C6.09675 4.9183 5.57009 4.9183 5.24425 5.24413C4.91842 5.56996 4.91842 6.09663 5.24425 6.42246L8.82175 9.99996L5.24425 13.5775C4.91842 13.9033 4.91842 14.43 5.24425 14.7558C5.40675 14.9183 5.62009 15 5.83342 15C6.04675 15 6.26009 14.9183 6.42259 14.7558L10.0001 11.1783L13.5776 14.7558C13.7401 14.9183 13.9534 15 14.1668 15C14.3801 15 14.5934 14.9183 14.7559 14.7558C15.0818 14.43 15.0818 13.9033 14.7559 13.5775L11.1784 9.99996Z" fill="#0D0F23"/>
<mask id="mask0_1_5002" style="mask-type:alpha" maskUnits="userSpaceOnUse" x="4" y="4" width="12" height="11">
<path fill-rule="evenodd" clip-rule="evenodd" d="M11.1784 9.99996L14.7559 6.42246C15.0818 6.09663 15.0818 5.56996 14.7559 5.24413C14.4301 4.9183 13.9034 4.9183 13.5776 5.24413L10.0001 8.82163L6.42259 5.24413C6.09675 4.9183 5.57009 4.9183 5.24425 5.24413C4.91842 5.56996 4.91842 6.09663 5.24425 6.42246L8.82175 9.99996L5.24425 13.5775C4.91842 13.9033 4.91842 14.43 5.24425 14.7558C5.40675 14.9183 5.62009 15 5.83342 15C6.04675 15 6.26009 14.9183 6.42259 14.7558L10.0001 11.1783L13.5776 14.7558C13.7401 14.9183 13.9534 15 14.1668 15C14.3801 15 14.5934 14.9183 14.7559 14.7558C15.0818 14.43 15.0818 13.9033 14.7559 13.5775L11.1784 9.99996Z" fill="white"/>
</mask>
<g mask="url(#mask0_1_5002)">
</g>
</svg>
