<svg width="24" height="24" viewBox="0 0 24 24" fill="none" xmlns="http://www.w3.org/2000/svg">
<path fill-rule="evenodd" clip-rule="evenodd" d="M12 10.5028L20.512 6.92476C20.366 6.77576 20.201 6.64276 20.001 6.54976L12.801 3.17576C12.296 2.94076 11.704 2.94076 11.199 3.17576L3.99905 6.54976C3.79905 6.64276 3.63405 6.77576 3.48805 6.92476L12 10.5028ZM11.25 11.827L3.00005 8.35896V16.088C2.99505 16.729 3.37905 17.317 3.99005 17.606L11.19 20.979C11.1998 20.9836 11.21 20.9866 11.2204 20.9897C11.2303 20.9926 11.2403 20.9956 11.25 21V11.827ZM12.75 20.997V11.827L21 8.35896V16.097C21 16.736 20.613 17.321 20.001 17.606L12.801 20.979C12.792 20.9835 12.7823 20.9864 12.7725 20.9894C12.765 20.9916 12.7574 20.9939 12.75 20.997Z" fill="#F9A1DA"/>
<mask id="mask0_9_5040" style="mask-type:luminance" maskUnits="userSpaceOnUse" x="3" y="2" width="18" height="19">
<path fill-rule="evenodd" clip-rule="evenodd" d="M12 10.5028L20.512 6.92476C20.366 6.77576 20.201 6.64276 20.001 6.54976L12.801 3.17576C12.296 2.94076 11.704 2.94076 11.199 3.17576L3.99905 6.54976C3.79905 6.64276 3.63405 6.77576 3.48805 6.92476L12 10.5028ZM11.25 11.827L3.00005 8.35896V16.088C2.99505 16.729 3.37905 17.317 3.99005 17.606L11.19 20.979C11.1998 20.9836 11.21 20.9866 11.2204 20.9897C11.2303 20.9926 11.2403 20.9956 11.25 21V11.827ZM12.75 20.997V11.827L21 8.35896V16.097C21 16.736 20.613 17.321 20.001 17.606L12.801 20.979C12.792 20.9835 12.7823 20.9864 12.7725 20.9894C12.765 20.9916 12.7574 20.9939 12.75 20.997Z" fill="white"/>
</mask>
<g mask="url(#mask0_9_5040)">
</g>
</svg>
