<svg width="20" height="20" viewBox="0 0 20 20" fill="none" xmlns="http://www.w3.org/2000/svg">
<path fill-rule="evenodd" clip-rule="evenodd" d="M14.9943 5.87398C14.9943 5.41648 14.6243 5.04398 14.166 5.04148L7.50515 4.99982H7.50015C7.04181 4.99982 6.67015 5.36982 6.66681 5.82815C6.66348 6.28815 7.03431 6.66398 7.49515 6.66648L12.1268 6.69565L5.24431 13.5773C4.91848 13.9032 4.91848 14.4306 5.24431 14.7556C5.40681 14.919 5.62015 14.9998 5.83348 14.9998C6.04681 14.9998 6.26015 14.919 6.42265 14.7556L13.3293 7.84898L13.3335 12.5007C13.3335 12.9607 13.7068 13.3332 14.1668 13.3332H14.1676C14.6276 13.3332 15.0001 12.959 15.0001 12.499L14.9943 5.87398Z" fill="#A0A1B4"/>
<mask id="mask0_1_2445" style="mask-type:alpha" maskUnits="userSpaceOnUse" x="5" y="4" width="11" height="11">
<path fill-rule="evenodd" clip-rule="evenodd" d="M14.9943 5.87398C14.9943 5.41648 14.6243 5.04398 14.166 5.04148L7.50515 4.99982H7.50015C7.04181 4.99982 6.67015 5.36982 6.66681 5.82815C6.66348 6.28815 7.03431 6.66398 7.49515 6.66648L12.1268 6.69565L5.24431 13.5773C4.91848 13.9032 4.91848 14.4306 5.24431 14.7556C5.40681 14.919 5.62015 14.9998 5.83348 14.9998C6.04681 14.9998 6.26015 14.919 6.42265 14.7556L13.3293 7.84898L13.3335 12.5007C13.3335 12.9607 13.7068 13.3332 14.1668 13.3332H14.1676C14.6276 13.3332 15.0001 12.959 15.0001 12.499L14.9943 5.87398Z" fill="white"/>
</mask>
<g mask="url(#mask0_1_2445)">
</g>
</svg>
