<svg width="16" height="16" viewBox="0 0 16 16" fill="none" xmlns="http://www.w3.org/2000/svg">
<path fill-rule="evenodd" clip-rule="evenodd" d="M11.977 4.48595L10.181 2.68995L8.88235 3.98928L10.679 5.78595L11.977 4.48595ZM3.39369 11.9973C3.37369 11.9993 3.35369 11.9999 3.33369 11.9999C3.15769 11.9999 2.98769 11.9306 2.86169 11.8046C2.72236 11.6646 2.65169 11.4699 2.66902 11.2733L2.92169 8.49328C2.94969 8.18861 3.08436 7.90061 3.30169 7.68395L9.29902 1.68661C9.76702 1.21661 10.6157 1.23995 11.1097 1.73261L12.935 3.55795L12.9357 3.55861C13.4457 4.06928 13.4664 4.88128 12.981 5.36795L6.98302 11.3659C6.76636 11.5826 6.47902 11.7173 6.17369 11.7453L3.39369 11.9973ZM3.33336 13.3335H12.6667C13.0334 13.3335 13.3334 13.6335 13.3334 14.0001C13.3334 14.3668 13.0334 14.6668 12.6667 14.6668H3.33336C2.96669 14.6668 2.66669 14.3668 2.66669 14.0001C2.66669 13.6335 2.96669 13.3335 3.33336 13.3335Z" fill="#A0A1B4"/>
<mask id="mask0_9_5109" style="mask-type:luminance" maskUnits="userSpaceOnUse" x="2" y="1" width="12" height="14">
<path fill-rule="evenodd" clip-rule="evenodd" d="M11.977 4.48595L10.181 2.68995L8.88235 3.98928L10.679 5.78595L11.977 4.48595ZM3.39369 11.9973C3.37369 11.9993 3.35369 11.9999 3.33369 11.9999C3.15769 11.9999 2.98769 11.9306 2.86169 11.8046C2.72236 11.6646 2.65169 11.4699 2.66902 11.2733L2.92169 8.49328C2.94969 8.18861 3.08436 7.90061 3.30169 7.68395L9.29902 1.68661C9.76702 1.21661 10.6157 1.23995 11.1097 1.73261L12.935 3.55795L12.9357 3.55861C13.4457 4.06928 13.4664 4.88128 12.981 5.36795L6.98302 11.3659C6.76636 11.5826 6.47902 11.7173 6.17369 11.7453L3.39369 11.9973ZM3.33336 13.3335H12.6667C13.0334 13.3335 13.3334 13.6335 13.3334 14.0001C13.3334 14.3668 13.0334 14.6668 12.6667 14.6668H3.33336C2.96669 14.6668 2.66669 14.3668 2.66669 14.0001C2.66669 13.6335 2.96669 13.3335 3.33336 13.3335Z" fill="white"/>
</mask>
<g mask="url(#mask0_9_5109)">
</g>
</svg>
