<svg width="21" height="20" viewBox="0 0 21 20" fill="none" xmlns="http://www.w3.org/2000/svg">
<path d="M2.14771 10.977L5.37097 14.2105C7.49628 16.3426 11.0026 16.3426 13.1279 14.2105L14.828 12.505C16.9533 10.373 16.9533 6.85548 14.828 4.72349L11.6047 1.48999L2.14771 10.977Z" fill="#6EA2FF"/>
<path d="M4.76871 10.0533C4.34375 10.4796 3.67076 10.4796 3.24579 10.0533L1.01428 7.81466C0.589316 7.38835 0.589316 6.71322 1.01428 6.2869C1.43924 5.86058 2.11223 5.86059 2.5372 6.2869L4.76871 8.52549C5.19392 8.91636 5.19392 9.62693 4.76871 10.0533V10.0533Z" fill="#6EA2FF"/>
<path d="M13.0215 1.59659C13.4465 2.0229 13.4465 2.69803 13.0215 3.12435L3.81235 12.3627C3.38739 12.789 2.7144 12.789 2.28943 12.3627C1.86445 11.9364 1.86447 11.2613 2.28943 10.835L11.4986 1.59659C11.9235 1.17003 12.5965 1.17003 13.0215 1.59659V1.59659Z" fill="#6EA2FF"/>
<path d="M20.2825 19.6469C19.8576 20.0732 19.1846 20.0732 18.7596 19.6469L13.4467 14.3171C13.0217 13.8908 13.0217 13.2157 13.4467 12.7893C13.8716 12.363 14.5446 12.363 14.9696 12.7893L20.2825 18.1192C20.7075 18.5452 20.7075 19.2204 20.2825 19.6469Z" fill="#6EA2FF"/>
<path d="M10.6839 4.11942C10.2589 4.54573 9.58592 4.54573 9.16095 4.11942L6.92944 1.88082C6.50448 1.45451 6.50448 0.779386 6.92944 0.353063C7.3544 -0.0732603 8.02739 -0.0732477 8.45236 0.353063L10.6839 2.59166C11.1091 2.98252 11.1091 3.69309 10.6839 4.11942Z" fill="#6EA2FF"/>
</svg>
