<svg width="21" height="21" viewBox="0 0 21 21" fill="none" xmlns="http://www.w3.org/2000/svg">
<path fill-rule="evenodd" clip-rule="evenodd" d="M18.8687 10.7503C18.5181 11.3611 17.6936 12.6435 16.4079 13.8161L15.2159 12.6241C16.1113 11.8207 16.7593 10.937 17.1445 10.3338C16.3572 9.13509 13.9723 6.01613 10.3473 6.10821C9.84047 6.12088 9.36486 6.20029 8.91205 6.32025L7.57728 4.98549C8.39842 4.66109 9.30319 4.44482 10.3043 4.41948C15.3519 4.26151 18.3297 8.97035 18.8687 9.90976C19.0174 10.17 19.0174 10.4901 18.8687 10.7503ZM12.1527 14.3398L13.4875 15.6746C12.6672 15.999 11.7616 16.2152 10.7613 16.2406C10.6921 16.2423 10.6228 16.2431 10.5535 16.2431C5.60051 16.2431 2.72823 11.677 2.19686 10.7503C2.04733 10.4901 2.04733 10.1699 2.19686 9.90975C2.5466 9.29897 3.37112 8.01658 4.65689 6.84317L5.84888 8.03601C4.95341 8.8394 4.3063 9.72305 3.92023 10.3262C4.70757 11.525 7.08143 14.6363 10.7182 14.5519C11.2251 14.5392 11.7007 14.4598 12.1527 14.3398ZM10.5324 11.5967C9.83375 11.5967 9.26521 11.029 9.26521 10.3295C9.26521 10.3084 9.2745 10.289 9.27535 10.267L10.5958 11.5874C10.5738 11.5883 10.5544 11.5967 10.5324 11.5967ZM4.3713 2.97403C4.04183 2.64456 3.50708 2.64456 3.17677 2.97403C2.8473 3.30434 2.8473 3.83909 3.17677 4.16856L7.93377 8.92556C7.69977 9.35471 7.57558 9.83202 7.57558 10.3296C7.57558 11.96 8.90275 13.2864 10.5323 13.2864C11.0308 13.2864 11.5081 13.1622 11.9372 12.929L16.6934 17.6852C16.859 17.8507 17.0744 17.9327 17.2906 17.9327C17.5069 17.9327 17.7232 17.8507 17.8879 17.6852C18.2182 17.3557 18.2182 16.821 17.8879 16.4906L4.3713 2.97403Z" fill="#A0A1B4"/>
</svg>
