<svg width="21" height="21" viewBox="0 0 21 21" fill="none" xmlns="http://www.w3.org/2000/svg">
<path fill-rule="evenodd" clip-rule="evenodd" d="M10.5327 11.597C9.83402 11.597 9.26548 11.0285 9.26548 10.3298C9.26548 9.6312 9.83402 9.06266 10.5327 9.06266C11.2313 9.06266 11.7998 9.6312 11.7998 10.3298C11.7998 11.0285 11.2313 11.597 10.5327 11.597ZM10.5326 7.37312C8.9022 7.37312 7.57588 8.69944 7.57588 10.3299C7.57588 11.9603 8.9022 13.2866 10.5326 13.2866C12.1631 13.2866 13.4894 11.9603 13.4894 10.3299C13.4894 8.69944 12.1631 7.37312 10.5326 7.37312ZM10.7182 14.5518C7.08059 14.6363 4.70758 11.525 3.92023 10.3262C4.78699 8.97033 6.96992 6.19435 10.3474 6.10818C13.9707 6.0161 16.3572 9.13506 17.1445 10.3338C16.2786 11.6897 14.0949 14.4657 10.7182 14.5518ZM18.8688 9.90969C18.3298 8.97028 15.3527 4.26144 10.3043 4.41941C5.63431 4.53768 2.91831 8.6518 2.19686 9.90969C2.04733 10.1699 2.04733 10.4901 2.19686 10.7503C2.72823 11.677 5.60051 16.2431 10.5535 16.2431C10.6228 16.2431 10.6921 16.2422 10.7613 16.2405C15.4305 16.1214 18.1473 12.0081 18.8688 10.7503C19.0174 10.4901 19.0174 10.1699 18.8688 9.90969Z" fill="#A0A1B4"/>
<mask id="mask0_1_5157" style="mask-type:alpha" maskUnits="userSpaceOnUse" x="2" y="4" width="17" height="13">
<path fill-rule="evenodd" clip-rule="evenodd" d="M10.5327 11.597C9.83402 11.597 9.26548 11.0285 9.26548 10.3298C9.26548 9.6312 9.83402 9.06266 10.5327 9.06266C11.2313 9.06266 11.7998 9.6312 11.7998 10.3298C11.7998 11.0285 11.2313 11.597 10.5327 11.597ZM10.5326 7.37312C8.9022 7.37312 7.57588 8.69944 7.57588 10.3299C7.57588 11.9603 8.9022 13.2866 10.5326 13.2866C12.1631 13.2866 13.4894 11.9603 13.4894 10.3299C13.4894 8.69944 12.1631 7.37312 10.5326 7.37312ZM10.7182 14.5518C7.08059 14.6363 4.70758 11.525 3.92023 10.3262C4.78699 8.97033 6.96992 6.19435 10.3474 6.10818C13.9707 6.0161 16.3572 9.13506 17.1445 10.3338C16.2786 11.6897 14.0949 14.4657 10.7182 14.5518ZM18.8688 9.90969C18.3298 8.97028 15.3527 4.26144 10.3043 4.41941C5.63431 4.53768 2.91831 8.6518 2.19686 9.90969C2.04733 10.1699 2.04733 10.4901 2.19686 10.7503C2.72823 11.677 5.60051 16.2431 10.5535 16.2431C10.6228 16.2431 10.6921 16.2422 10.7613 16.2405C15.4305 16.1214 18.1473 12.0081 18.8688 10.7503C19.0174 10.4901 19.0174 10.1699 18.8688 9.90969Z" fill="white"/>
</mask>
<g mask="url(#mask0_1_5157)">
</g>
</svg>
