<svg width="28" height="28" viewBox="0 0 28 28" fill="none" xmlns="http://www.w3.org/2000/svg">
<path d="M8.41508 14.7172H11.2361V24.6452C11.2361 24.8412 11.4219 25 11.6512 25H16.4342C16.6635 25 16.8493 24.8412 16.8493 24.6452V14.764H20.0923C20.3032 14.764 20.4806 14.6287 20.5046 14.4497L20.9972 10.7947C21.0107 10.6941 20.9734 10.5934 20.8947 10.518C20.816 10.4425 20.7032 10.3992 20.5849 10.3992H16.8495V8.10812C16.8495 7.41746 17.2845 7.06723 18.1426 7.06723C18.2648 7.06723 20.5849 7.06723 20.5849 7.06723C20.8142 7.06723 21 6.90834 21 6.71239V3.35746C21 3.16145 20.8142 3.00263 20.5849 3.00263H17.219C17.1953 3.00163 17.1425 3 17.0648 3C16.4808 3 14.4508 3.09801 12.8473 4.3591C11.0705 5.7566 11.3175 7.42988 11.3765 7.71999V10.3992H8.41508C8.18579 10.3992 8 10.558 8 10.754V14.3623C8 14.5583 8.18579 14.7172 8.41508 14.7172Z" fill="#222B45"/>
</svg>
