<svg width="20" height="20" viewBox="0 0 20 20" fill="none" xmlns="http://www.w3.org/2000/svg">
<path d="M15.6477 0.796558V1.28401C15.6477 1.37366 15.6307 1.46235 15.5976 1.54568L8.90472 13.7864L8.88912 13.8187C8.83521 13.9467 8.74475 14.0561 8.62906 14.1328C8.51322 14.2097 8.37752 14.2503 8.23882 14.25C8.05032 14.2498 7.86954 14.1746 7.73637 14.0408C7.60303 13.9072 7.52801 13.7259 7.52785 13.5368V13.0493C7.52848 12.9935 7.53589 12.9378 7.54976 12.8836L13.7609 1.47951L14.2711 0.546986L14.2867 0.514732C14.3406 0.386662 14.4311 0.277252 14.5468 0.20057C14.6626 0.12373 14.7983 0.0830966 14.937 0.0834123C15.1255 0.0835704 15.3063 0.158831 15.4395 0.292592C15.5728 0.426195 15.6478 0.607543 15.648 0.796639L15.6477 0.796558ZM19.216 19.5353V19.5355C19.21 19.6501 19.1555 19.7568 19.0661 19.8284C18.9768 19.9002 18.8611 19.9303 18.7482 19.9108C18.5574 19.8675 18.4196 19.7007 18.4129 19.5046L17.6622 9.96446C17.6437 9.71022 17.5392 9.46988 17.3662 9.28317C17.1931 9.09644 16.9619 8.97454 16.7104 8.93738C16.4623 8.89422 16.207 8.93801 15.9873 9.06134C15.7676 9.18466 15.5969 9.38024 15.5037 9.61489L12.034 17.9023C11.8017 18.4981 11.3949 19.0093 10.8674 19.3688C10.34 19.7282 9.71636 19.9192 9.07866 19.9165H1.57477C1.18831 19.9158 0.81776 19.7618 0.544161 19.4881C0.270393 19.2145 0.115788 18.8432 0.113892 18.4555C0.129022 17.921 0.417287 17.4318 0.87687 17.1608L6.82172 13.4707V13.5383C6.82141 13.9758 7.02204 14.3891 7.36594 14.6585C7.70968 14.928 8.15792 15.0231 8.58109 14.9169C9.00426 14.8105 9.3548 14.5144 9.53132 14.1142L16.2262 1.86899L16.2418 1.83705C16.3161 1.66219 16.3541 1.47403 16.3537 1.28399V0.79654C16.3523 0.545306 16.2838 0.298969 16.1553 0.083313H16.7068C17.5492 0.0842617 18.3568 0.420401 18.9526 1.0179C19.5482 1.61557 19.8832 2.4257 19.8842 3.27079V6.79362L19.216 19.5353Z" fill="#7B60EE"/>
</svg>
