<svg width="16" height="16" viewBox="0 0 16 16" fill="none" xmlns="http://www.w3.org/2000/svg">
<path fill-rule="evenodd" clip-rule="evenodd" d="M9.30598 12.0156C8.86131 12.4402 8.27264 12.6709 7.64731 12.6669H7.64664C7.02198 12.6616 6.43731 12.4209 5.99998 11.9896C5.10064 11.1036 5.11264 9.67156 6.02731 8.79889L7.46931 7.42022C7.52864 7.36356 7.60864 7.33289 7.69264 7.33356V7.33356C7.77598 7.33422 7.85598 7.36622 7.91398 7.42356L9.33331 8.82422C10.2326 9.71089 10.2206 11.1422 9.30598 12.0156M11.204 5.32422L8.14198 2.19689C7.88731 1.93622 7.46264 1.93622 7.19864 2.18689C7.05598 2.32289 6.97998 2.51556 6.99264 2.71222C6.99864 2.80556 6.99864 2.89756 6.99864 2.99622C6.99864 4.70089 6.56998 5.70889 6.33331 5.95822C6.23264 5.84756 6.04998 5.55689 5.89598 4.96289C5.83598 4.73089 5.65598 4.54889 5.42464 4.48622C5.19198 4.42489 4.94531 4.49089 4.77664 4.66089L4.12064 5.32289C2.17998 7.30089 2.18264 10.5236 4.12598 12.5042C5.06798 13.4682 6.32331 13.9989 7.66131 14.0002H7.66664C9.00598 14.0002 10.264 13.4696 11.21 12.5049C13.1546 10.5236 13.1513 7.30089 11.204 5.32422" fill="#4E55AF"/>
<mask id="mask0_371_6617" style="mask-type:alpha" maskUnits="userSpaceOnUse" x="2" y="2" width="11" height="13">
<path fill-rule="evenodd" clip-rule="evenodd" d="M9.30598 12.0156C8.86131 12.4402 8.27264 12.6709 7.64731 12.6669H7.64664C7.02198 12.6616 6.43731 12.4209 5.99998 11.9896C5.10064 11.1036 5.11264 9.67156 6.02731 8.79889L7.46931 7.42022C7.52864 7.36356 7.60864 7.33289 7.69264 7.33356V7.33356C7.77598 7.33422 7.85598 7.36622 7.91398 7.42356L9.33331 8.82422C10.2326 9.71089 10.2206 11.1422 9.30598 12.0156M11.204 5.32422L8.14198 2.19689C7.88731 1.93622 7.46264 1.93622 7.19864 2.18689C7.05598 2.32289 6.97998 2.51556 6.99264 2.71222C6.99864 2.80556 6.99864 2.89756 6.99864 2.99622C6.99864 4.70089 6.56998 5.70889 6.33331 5.95822C6.23264 5.84756 6.04998 5.55689 5.89598 4.96289C5.83598 4.73089 5.65598 4.54889 5.42464 4.48622C5.19198 4.42489 4.94531 4.49089 4.77664 4.66089L4.12064 5.32289C2.17998 7.30089 2.18264 10.5236 4.12598 12.5042C5.06798 13.4682 6.32331 13.9989 7.66131 14.0002H7.66664C9.00598 14.0002 10.264 13.4696 11.21 12.5049C13.1546 10.5236 13.1513 7.30089 11.204 5.32422" fill="white"/>
</mask>
<g mask="url(#mask0_371_6617)">
</g>
</svg>
