<svg width="25" height="24" viewBox="0 0 25 24" fill="none" xmlns="http://www.w3.org/2000/svg">
<path fill-rule="evenodd" clip-rule="evenodd" d="M16.9019 13H12.9145C12.3643 13 11.9177 12.553 11.9177 12V8C11.9177 7.447 12.3643 7 12.9145 7C13.4648 7 13.9114 7.447 13.9114 8V11H16.9019C17.4531 11 17.8987 11.447 17.8987 12C17.8987 12.553 17.4531 13 16.9019 13M12.9145 2C7.41797 2 2.94617 6.486 2.94617 12C2.94617 17.514 7.41797 22 12.9145 22C18.4111 22 22.8829 17.514 22.8829 12C22.8829 6.486 18.4111 2 12.9145 2" fill="#F6565D"/>
<mask id="mask0_16_7397" style="mask-type:alpha" maskUnits="userSpaceOnUse" x="2" y="2" width="21" height="20">
<path fill-rule="evenodd" clip-rule="evenodd" d="M16.9019 13H12.9145C12.3643 13 11.9177 12.553 11.9177 12V8C11.9177 7.447 12.3643 7 12.9145 7C13.4648 7 13.9114 7.447 13.9114 8V11H16.9019C17.4531 11 17.8987 11.447 17.8987 12C17.8987 12.553 17.4531 13 16.9019 13M12.9145 2C7.41797 2 2.94617 6.486 2.94617 12C2.94617 17.514 7.41797 22 12.9145 22C18.4111 22 22.8829 17.514 22.8829 12C22.8829 6.486 18.4111 2 12.9145 2" fill="white"/>
</mask>
<g mask="url(#mask0_16_7397)">
</g>
</svg>
