<svg width="20" height="20" viewBox="0 0 20 20" fill="none" xmlns="http://www.w3.org/2000/svg">
<path fill-rule="evenodd" clip-rule="evenodd" d="M9.2594 19.1667C9.1644 19.1667 9.06857 19.1501 8.9744 19.1159C8.6144 18.9851 8.3894 18.6251 8.43107 18.2442L9.07107 12.3334H4.16691C3.85941 12.3334 3.57691 12.1642 3.43191 11.8926C3.28691 11.6209 3.30357 11.2926 3.47441 11.0367L10.0477 1.2034C10.2611 0.884237 10.6644 0.751737 11.0252 0.884237C11.3861 1.01507 11.6102 1.37507 11.5686 1.7559L10.9286 7.66674H15.8336C16.1411 7.66674 16.4236 7.8359 16.5686 8.10757C16.7127 8.37924 16.6969 8.70757 16.5261 8.9634L9.95191 18.7967C9.79441 19.0334 9.53107 19.1667 9.2594 19.1667" fill="#0D0F23"/>
<path fill-rule="evenodd" clip-rule="evenodd" d="M9.2594 19.1667C9.1644 19.1667 9.06857 19.1501 8.9744 19.1159C8.6144 18.9851 8.3894 18.6251 8.43107 18.2442L9.07107 12.3334H4.16691C3.85941 12.3334 3.57691 12.1642 3.43191 11.8926C3.28691 11.6209 3.30357 11.2926 3.47441 11.0367L10.0477 1.2034C10.2611 0.884237 10.6644 0.751737 11.0252 0.884237C11.3861 1.01507 11.6102 1.37507 11.5686 1.7559L10.9286 7.66674H15.8336C16.1411 7.66674 16.4236 7.8359 16.5686 8.10757C16.7127 8.37924 16.6969 8.70757 16.5261 8.9634L9.95191 18.7967C9.79441 19.0334 9.53107 19.1667 9.2594 19.1667" fill="#0D0F23"/>
<mask id="mask0_301_3446" style="mask-type:alpha" maskUnits="userSpaceOnUse" x="3" y="0" width="14" height="20">
<path fill-rule="evenodd" clip-rule="evenodd" d="M9.2594 19.1667C9.1644 19.1667 9.06857 19.1501 8.9744 19.1159C8.6144 18.9851 8.3894 18.6251 8.43107 18.2442L9.07107 12.3334H4.16691C3.85941 12.3334 3.57691 12.1642 3.43191 11.8926C3.28691 11.6209 3.30357 11.2926 3.47441 11.0367L10.0477 1.2034C10.2611 0.884237 10.6644 0.751737 11.0252 0.884237C11.3861 1.01507 11.6102 1.37507 11.5686 1.7559L10.9286 7.66674H15.8336C16.1411 7.66674 16.4236 7.8359 16.5686 8.10757C16.7127 8.37924 16.6969 8.70757 16.5261 8.9634L9.95191 18.7967C9.79441 19.0334 9.53107 19.1667 9.2594 19.1667" fill="white"/>
</mask>
<g mask="url(#mask0_301_3446)">
</g>
</svg>
