<svg width="19" height="21" viewBox="0 0 19 21" fill="none" xmlns="http://www.w3.org/2000/svg">
<path d="M7.61026 10.1899C7.61026 10.1899 8.8708 8.8233 9.48079 8.10939C9.88739 6.84485 9.56205 5.3558 8.52519 4.35645L5.23133 1.11347C5.06865 0.950276 4.82473 0.950276 4.64178 1.09312C4.4384 1.25631 4.4384 1.54184 4.60107 1.72537L7.7321 4.98887C7.91506 5.1724 7.89478 5.45795 7.6914 5.62112L7.6507 5.66195C7.46774 5.80479 7.20339 5.80479 7.0407 5.62112L3.95052 2.21492C3.78785 2.05173 3.52348 2.03139 3.34053 2.17409L3.32025 2.19443C3.13729 2.35762 3.11687 2.62283 3.25926 2.82669L6.22778 6.27371C6.39046 6.45725 6.37017 6.74279 6.18708 6.88564L6.14638 6.92647C5.96342 7.08966 5.67878 7.04883 5.51613 6.86529L2.6493 3.35712C2.48663 3.17358 2.22226 3.13275 2.01905 3.29594L1.99877 3.31628C1.81581 3.45913 1.79539 3.72417 1.93778 3.92821L4.74361 7.57916C4.88601 7.7627 4.86558 8.02788 4.68263 8.17058L4.6215 8.23191C4.41813 8.39509 4.1335 8.35426 3.99125 8.15038L1.34808 4.49943C1.20569 4.29541 0.900777 4.25472 0.717827 4.41791C0.555154 4.56075 0.51445 4.80547 0.636561 5.00933L3.27974 8.94583C4.25548 10.3939 6.10572 10.863 7.61042 10.1899L7.61026 10.1899Z" fill="#FF840D"/>
<path d="M12.2866 12.1683C12.0222 12.5354 11.7376 12.9434 11.4529 13.3717C11.209 13.7387 10.9446 14.106 10.6803 14.4935C11.3715 15.4522 12.1442 16.472 13.0794 17.5938C15.8447 20.8776 16.7598 20.5106 17.2071 20.123C17.6544 19.7354 18.183 18.8991 15.4383 15.595C14.2996 14.2488 13.2423 13.1475 12.2867 12.1683H12.2866Z" fill="#FF840D"/>
<path d="M13.2624 11.2708C13.669 11.7399 14.401 11.6787 14.7263 11.1485L17.5117 6.64089C18.5486 5.02964 18.6096 2.96954 17.6337 1.33783C17.4101 0.970765 16.8815 0.929935 16.6171 1.27665C16.6171 1.27665 13.852 5.00919 10.7412 8.63974C8.30144 11.4546 5.55661 14.1468 4.35703 15.5949C1.5919 18.8991 2.12045 19.7354 2.58819 20.1229C3.03549 20.5105 3.95043 20.8775 6.71556 17.5734C9.29759 14.4731 10.7209 11.9847 12.2458 10.0675L13.2624 11.2708Z" fill="#FF840D"/>
</svg>
