<svg width="120" height="120" viewBox="0 0 120 120" fill="none" xmlns="http://www.w3.org/2000/svg">
<circle cx="60" cy="60" r="60" fill="#7B60EE" fill-opacity="0.08"/>
<path d="M76.875 48.5H75V41C75 32.7275 68.2725 26 60 26C51.7275 26 45 32.7275 45 41V48.5H43.125C40.0237 48.5 37.5 51.0238 37.5 54.125V80.375C37.5 83.4762 40.0237 86 43.125 86H76.875C79.9762 86 82.5 83.4762 82.5 80.375V54.125C82.5 51.0238 79.9762 48.5 76.875 48.5ZM49.9988 41C49.9988 35.4875 54.4837 30.9988 60 30.9988C65.5163 30.9988 70.0013 35.4875 70.0013 41V48.5H49.9988V41ZM62.5012 67.805V73.5013C62.5012 74.8812 61.3837 76.0025 60 76.0025C58.6163 76.0025 57.4988 74.8812 57.4988 73.5013V67.805C56.01 66.9388 54.9975 65.345 54.9975 63.5C54.9975 60.7438 57.24 58.5013 59.9962 58.5013C62.7525 58.5013 64.995 60.7438 64.995 63.5C64.9988 65.3413 63.9862 66.9388 62.5012 67.805Z" fill="#7B60EE"/>
</svg>
