<svg width="19" height="20" viewBox="0 0 19 20" fill="none" xmlns="http://www.w3.org/2000/svg">
<path d="M18.1956 8.0947C17.1822 8.0947 16.3625 8.95015 16.3625 9.99983V12.0083H15.3698V11.0578C15.3698 10.8305 15.1844 10.6445 14.9578 10.6445H3.6955C3.46898 10.6445 3.28354 10.8304 3.28354 11.0578V12.0083H2.29497V9.99983C2.29497 8.95015 1.47108 8.0947 0.461893 8.0947C0.235373 8.0947 0.0499268 8.28072 0.0499268 8.50798C0.0499268 8.73523 0.235357 8.92125 0.461893 8.92125C1.01803 8.92125 1.47108 9.40482 1.47108 9.99987V12.4256C1.47108 12.6528 1.65636 12.8347 1.88304 12.8347H3.28354V13.7892C3.28354 14.0164 3.46897 14.2024 3.6955 14.2024H8.91068V15.1818C6.64506 15.2562 4.5443 15.9587 3.15998 17.1035C2.95812 16.996 2.73161 16.9381 2.49269 16.9381C1.67297 16.9381 1.00567 17.6075 1.00567 18.4299C1.00552 19.2523 1.67297 19.9177 2.49269 19.9177C3.30836 19.9177 3.97569 19.2523 3.97569 18.43C3.97569 18.1531 3.90158 17.8928 3.76561 17.6738C5.00965 16.6903 6.8798 16.0828 8.91079 16.0085V16.9961C8.29295 17.1779 7.84377 17.7523 7.84377 18.43C7.84377 19.2523 8.50704 19.9177 9.32677 19.9177C10.1465 19.9177 10.8139 19.2523 10.8139 18.43C10.8139 17.7481 10.3567 17.1737 9.73468 16.9961V16.0085C11.7696 16.0788 13.644 16.6861 14.8879 17.6738C14.7519 17.8928 14.6778 18.1531 14.6778 18.43C14.6778 19.2523 15.3451 19.9177 16.1648 19.9177C16.9845 19.9177 17.6518 19.2523 17.6518 18.43C17.6518 17.6077 16.9845 16.9382 16.1648 16.9382C15.9217 16.9382 15.6952 16.9961 15.4933 17.1036C14.1092 15.9548 12.0042 15.2563 9.7346 15.182V14.2026H14.9578C15.1843 14.2026 15.3698 14.0165 15.3698 13.7893V12.8348H16.7745C17.001 12.8348 17.1864 12.6529 17.1864 12.4215V9.99983C17.1864 9.40475 17.6396 8.92121 18.1956 8.92121C18.4221 8.92121 18.6076 8.73534 18.6076 8.50794C18.6077 8.2807 18.4223 8.09467 18.1958 8.09467L18.1956 8.0947Z" fill="#FDD446"/>
<path d="M5.83735 9.14039H12.8197H12.828C13.0545 9.14039 13.2399 8.95857 13.2399 8.72711C13.2399 8.6817 13.2317 8.64033 13.2153 8.59896L12.2678 0.941686C12.2059 0.454084 11.7899 0.0822144 11.3037 0.0822144H7.35314C6.86291 0.0822144 6.44693 0.4541 6.38925 0.941686L5.42937 8.67762C5.41293 8.79739 5.44999 8.9131 5.52828 9.00409C5.60658 9.09088 5.7179 9.14049 5.83728 9.14049L5.83735 9.14039Z" fill="#FDD446"/>
</svg>
