<svg width="28" height="28" viewBox="0 0 28 28" fill="none" xmlns="http://www.w3.org/2000/svg">
<path fill-rule="evenodd" clip-rule="evenodd" d="M20.4109 16.3105C19.6339 18.8095 17.6973 20.5397 15.1201 20.9212C11.1873 21.5034 7.3256 18.5214 7.01993 14.5547C6.7026 10.4387 9.94943 7.00053 14.0013 7.00053C14.9381 7.00053 15.8318 7.18486 16.6484 7.51853C16.9319 7.63403 17.2528 7.53486 17.3974 7.26653L19.0716 4.17836C19.2303 3.8832 19.1159 3.50286 18.8103 3.3652C17.3438 2.70253 15.7174 2.33386 14.0048 2.33386C7.44577 2.33386 2.15027 7.74253 2.3381 14.3424C2.5096 20.3635 7.4796 25.4012 13.4961 25.6567C19.9664 25.9297 25.3331 20.9364 25.6586 14.6095C25.6714 14.3785 25.6668 13.0334 25.6621 12.2447C25.6609 11.9227 25.3996 11.6672 25.0788 11.6672H14.5799C14.2579 11.6672 13.9966 11.9274 13.9966 12.2505V15.7272C13.9966 16.048 14.2579 16.3105 14.5799 16.3105H20.4109" fill="#222B45"/>
<mask id="mask0_1_1008" style="mask-type:alpha" maskUnits="userSpaceOnUse" x="2" y="2" width="24" height="24">
<path fill-rule="evenodd" clip-rule="evenodd" d="M20.4109 16.3105C19.6339 18.8095 17.6973 20.5397 15.1201 20.9212C11.1873 21.5034 7.3256 18.5214 7.01993 14.5547C6.7026 10.4387 9.94943 7.00053 14.0013 7.00053C14.9381 7.00053 15.8318 7.18486 16.6484 7.51853C16.9319 7.63403 17.2528 7.53486 17.3974 7.26653L19.0716 4.17836C19.2303 3.8832 19.1159 3.50286 18.8103 3.3652C17.3438 2.70253 15.7174 2.33386 14.0048 2.33386C7.44577 2.33386 2.15027 7.74253 2.3381 14.3424C2.5096 20.3635 7.4796 25.4012 13.4961 25.6567C19.9664 25.9297 25.3331 20.9364 25.6586 14.6095C25.6714 14.3785 25.6668 13.0334 25.6621 12.2447C25.6609 11.9227 25.3996 11.6672 25.0788 11.6672H14.5799C14.2579 11.6672 13.9966 11.9274 13.9966 12.2505V15.7272C13.9966 16.048 14.2579 16.3105 14.5799 16.3105H20.4109" fill="white"/>
</mask>
<g mask="url(#mask0_1_1008)">
</g>
</svg>
