<svg width="44" height="44" viewBox="0 0 44 44" fill="none" xmlns="http://www.w3.org/2000/svg">
<rect width="44" height="44" rx="8" fill="#F7F7F7"/>
<path fill-rule="evenodd" clip-rule="evenodd" d="M21.8362 25.2138C21.9911 25.2138 22.147 25.2533 22.2872 25.3321L26.5836 27.7622V15.8895C26.5836 15.7053 26.4727 15.5833 26.4003 15.5833H17.6003C17.527 15.5833 17.417 15.7053 17.417 15.8895V27.7145L21.3641 25.3449C21.5099 25.2578 21.673 25.2138 21.8362 25.2138ZM16.5003 30.25C16.3445 30.25 16.1886 30.2106 16.0484 30.1308C15.7615 29.9686 15.5836 29.6633 15.5836 29.3333V15.8895C15.5836 14.7098 16.4884 13.75 17.6003 13.75H26.4003C27.5122 13.75 28.417 14.7098 28.417 15.8895V29.3333C28.417 29.6597 28.2437 29.9613 27.9623 30.1253C27.6799 30.2903 27.3335 30.2931 27.0493 30.1318L21.85 27.1911L16.9715 30.1198C16.8266 30.206 16.6635 30.25 16.5003 30.25Z" fill="#494F86"/>
<mask id="mask0_1_1943" style="mask-type:alpha" maskUnits="userSpaceOnUse" x="15" y="13" width="14" height="18">
<path fill-rule="evenodd" clip-rule="evenodd" d="M21.8362 25.2138C21.9911 25.2138 22.147 25.2533 22.2872 25.3321L26.5836 27.7622V15.8895C26.5836 15.7053 26.4727 15.5833 26.4003 15.5833H17.6003C17.527 15.5833 17.417 15.7053 17.417 15.8895V27.7145L21.3641 25.3449C21.5099 25.2578 21.673 25.2138 21.8362 25.2138ZM16.5003 30.25C16.3445 30.25 16.1886 30.2106 16.0484 30.1308C15.7615 29.9686 15.5836 29.6633 15.5836 29.3333V15.8895C15.5836 14.7098 16.4884 13.75 17.6003 13.75H26.4003C27.5122 13.75 28.417 14.7098 28.417 15.8895V29.3333C28.417 29.6597 28.2437 29.9613 27.9623 30.1253C27.6799 30.2903 27.3335 30.2931 27.0493 30.1318L21.85 27.1911L16.9715 30.1198C16.8266 30.206 16.6635 30.25 16.5003 30.25Z" fill="white"/>
</mask>
<g mask="url(#mask0_1_1943)">
</g>
</svg>
