<svg width="72" height="74" viewBox="0 0 72 74" fill="none" xmlns="http://www.w3.org/2000/svg">
<rect width="72" height="72" rx="6" fill="#00C8C8"/>
<path d="M8.287 35.272C8.287 32.568 8.872 30.163 10.042 28.057C11.212 25.925 12.837 24.274 14.917 23.104C17.023 21.908 19.402 21.31 22.054 21.31C25.304 21.31 28.086 22.168 30.4 23.884C32.714 25.6 34.261 27.94 35.041 30.904H27.709C27.163 29.76 26.383 28.889 25.369 28.291C24.381 27.693 23.25 27.394 21.976 27.394C19.922 27.394 18.258 28.109 16.984 29.539C15.71 30.969 15.073 32.88 15.073 35.272C15.073 37.664 15.71 39.575 16.984 41.005C18.258 42.435 19.922 43.15 21.976 43.15C23.25 43.15 24.381 42.851 25.369 42.253C26.383 41.655 27.163 40.784 27.709 39.64H35.041C34.261 42.604 32.714 44.944 30.4 46.66C28.086 48.35 25.304 49.195 22.054 49.195C19.402 49.195 17.023 48.61 14.917 47.44C12.837 46.244 11.212 44.593 10.042 42.487C8.872 40.381 8.287 37.976 8.287 35.272ZM53.087 49L47.393 38.665H45.794V49H39.125V21.622H50.318C52.476 21.622 54.309 21.999 55.817 22.753C57.351 23.507 58.495 24.547 59.249 25.873C60.003 27.173 60.38 28.629 60.38 30.241C60.38 32.061 59.86 33.686 58.82 35.116C57.806 36.546 56.298 37.56 54.296 38.158L60.614 49H53.087ZM45.794 33.946H49.928C51.15 33.946 52.06 33.647 52.658 33.049C53.282 32.451 53.594 31.606 53.594 30.514C53.594 29.474 53.282 28.655 52.658 28.057C52.06 27.459 51.15 27.16 49.928 27.16H45.794V33.946Z" fill="white"/>
</svg>
