<svg width="21" height="18" viewBox="0 0 21 18" fill="none" xmlns="http://www.w3.org/2000/svg">
<path d="M1.55863 9.50843L10.076 18L18.593 9.50843C20.6129 7.2483 20.5131 3.80947 18.3634 1.67209C17.2787 0.59358 15.8367 0.000178315 14.3036 0.000178315C13.0841 0.000178315 11.9071 0.384882 10.93 1.08894L14.9399 5.07536L14.1327 5.8775L9.68991 1.46058C8.63309 0.51936 7.26924 0 5.84842 0C4.31507 0 2.87307 0.593625 1.78856 1.67191C-0.361344 3.80956 -0.461082 7.24865 1.55862 9.5087L1.55863 9.50843ZM2.78159 5.85391C2.78159 5.27442 3.25426 4.80484 3.83716 4.80484H4.91117V3.73682C4.91117 3.15769 5.38384 2.68775 5.96674 2.68775C6.54964 2.68775 7.02199 3.15764 7.02199 3.73682V4.80484H8.096C8.6789 4.80484 9.15157 5.27438 9.15157 5.85391C9.15157 6.43344 8.6789 6.90329 8.096 6.90329H7.02199V7.971C7.02199 8.55049 6.54969 9.02007 5.96674 9.02007C5.38384 9.02007 4.91117 8.55053 4.91117 7.971V6.90329H3.83716C3.25426 6.90329 2.78159 6.4334 2.78159 5.85391V5.85391Z" fill="#00D2E0"/>
</svg>
