<svg width="16" height="16" viewBox="0 0 16 16" fill="none" xmlns="http://www.w3.org/2000/svg">
<path fill-rule="evenodd" clip-rule="evenodd" d="M7.99997 14.0001C7.82264 14.0001 7.6533 13.9301 7.52797 13.8041L2.34997 8.61741C0.992637 7.25741 0.992637 5.04475 2.34997 3.68475C3.0053 3.02875 3.88064 2.66675 4.8133 2.66675C5.74597 2.66675 6.6213 3.02875 7.27664 3.68475L7.99997 4.40941L8.72264 3.68541C9.37864 3.02875 10.254 2.66675 11.1866 2.66675C12.1193 2.66675 12.9946 3.02875 13.65 3.68475C15.0073 5.04475 15.0073 7.25741 13.6506 8.61741L8.47197 13.8047C8.34664 13.9301 8.1773 14.0001 7.99997 14.0001Z" fill="#F9A1DA"/>
<mask id="mask0_1_2221" style="mask-type:alpha" maskUnits="userSpaceOnUse" x="1" y="2" width="14" height="12">
<path fill-rule="evenodd" clip-rule="evenodd" d="M7.99997 14.0001C7.82264 14.0001 7.6533 13.9301 7.52797 13.8041L2.34997 8.61741C0.992637 7.25741 0.992637 5.04475 2.34997 3.68475C3.0053 3.02875 3.88064 2.66675 4.8133 2.66675C5.74597 2.66675 6.6213 3.02875 7.27664 3.68475L7.99997 4.40941L8.72264 3.68541C9.37864 3.02875 10.254 2.66675 11.1866 2.66675C12.1193 2.66675 12.9946 3.02875 13.65 3.68475C15.0073 5.04475 15.0073 7.25741 13.6506 8.61741L8.47197 13.8047C8.34664 13.9301 8.1773 14.0001 7.99997 14.0001Z" fill="white"/>
</mask>
<g mask="url(#mask0_1_2221)">
</g>
</svg>
