<svg width="32" height="32" viewBox="0 0 32 32" fill="none" xmlns="http://www.w3.org/2000/svg">
<rect width="32" height="32" rx="8" fill="white"/>
<g clip-path="url(#clip0_14_13336)">
<path fill-rule="evenodd" clip-rule="evenodd" d="M10.58 9.44954C11.3509 7.22687 13.7727 6.03911 16.0047 6.79536C18.2467 7.55497 19.4483 9.98831 18.6887 12.2301L15.6026 21.3387L10.8947 12.9372C10.2737 11.829 10.1979 10.5634 10.58 9.44954ZM9.70765 12.0239C9.81555 12.4707 9.98556 12.9054 10.2164 13.3173L15.0828 22.0016C15.1322 22.0897 15.184 22.176 15.2382 22.2605C14.2804 24.1085 12.0914 25.0311 10.0594 24.3426C7.81746 23.583 6.61566 21.1498 7.37527 18.9078L9.70765 12.0239Z" fill="#4E55AF"/>
<path fill-rule="evenodd" clip-rule="evenodd" d="M22.225 24.4101C20.14 25.5412 17.5473 24.7947 16.434 22.7425L10.9257 12.8768C9.81247 10.8248 10.6002 8.24414 12.6851 7.11304C14.7701 5.98194 17.3627 6.7287 18.476 8.78068L23.9842 18.6464C25.0975 20.6986 24.3099 23.279 22.225 24.4101Z" fill="#00D2E0"/>
</g>
<defs>
<clipPath id="clip0_14_13336">
<rect width="24" height="24" fill="white" transform="translate(4 4)"/>
</clipPath>
</defs>
</svg>
