<svg width="21" height="21" viewBox="0 0 21 21" fill="none" xmlns="http://www.w3.org/2000/svg">
<path fill-rule="evenodd" clip-rule="evenodd" d="M10.4123 12.0194C9.946 12.0194 9.56753 12.3978 9.56753 12.8642C9.56753 13.3305 9.946 13.709 10.4123 13.709C10.8786 13.709 11.2571 13.3305 11.2571 12.8642C11.2571 12.3978 10.8786 12.0194 10.4123 12.0194M10.4124 15.3986C9.01508 15.3986 7.878 14.2615 7.878 12.8642C7.878 11.4669 9.01508 10.3298 10.4124 10.3298C11.8096 10.3298 12.9467 11.4669 12.9467 12.8642C12.9467 14.2615 11.8096 15.3986 10.4124 15.3986V15.3986ZM8.72276 5.3548C8.72276 4.37147 9.48054 3.57145 10.4123 3.57145C11.3441 3.57145 12.1019 4.37147 12.1019 5.3548V6.95061H8.72276V5.3548ZM14.6363 6.95069H13.7915V5.35488C13.7915 3.44059 12.276 1.88196 10.4124 1.88196C8.54876 1.88196 7.03321 3.44059 7.03321 5.35488V6.95069H6.18842C4.79114 6.95069 3.65405 8.08777 3.65405 9.48505V16.2434C3.65405 17.6406 4.79114 18.7777 6.18842 18.7777H14.6363C16.0336 18.7777 17.1707 17.6406 17.1707 16.2434V9.48505C17.1707 8.08777 16.0336 6.95069 14.6363 6.95069V6.95069Z" fill="#A0A1B4"/>
<mask id="mask0_1_5158" style="mask-type:alpha" maskUnits="userSpaceOnUse" x="3" y="1" width="15" height="18">
<path fill-rule="evenodd" clip-rule="evenodd" d="M10.4123 12.0194C9.946 12.0194 9.56753 12.3978 9.56753 12.8642C9.56753 13.3305 9.946 13.709 10.4123 13.709C10.8786 13.709 11.2571 13.3305 11.2571 12.8642C11.2571 12.3978 10.8786 12.0194 10.4123 12.0194M10.4124 15.3986C9.01508 15.3986 7.878 14.2615 7.878 12.8642C7.878 11.4669 9.01508 10.3298 10.4124 10.3298C11.8096 10.3298 12.9467 11.4669 12.9467 12.8642C12.9467 14.2615 11.8096 15.3986 10.4124 15.3986V15.3986ZM8.72276 5.3548C8.72276 4.37147 9.48054 3.57145 10.4123 3.57145C11.3441 3.57145 12.1019 4.37147 12.1019 5.3548V6.95061H8.72276V5.3548ZM14.6363 6.95069H13.7915V5.35488C13.7915 3.44059 12.276 1.88196 10.4124 1.88196C8.54876 1.88196 7.03321 3.44059 7.03321 5.35488V6.95069H6.18842C4.79114 6.95069 3.65405 8.08777 3.65405 9.48505V16.2434C3.65405 17.6406 4.79114 18.7777 6.18842 18.7777H14.6363C16.0336 18.7777 17.1707 17.6406 17.1707 16.2434V9.48505C17.1707 8.08777 16.0336 6.95069 14.6363 6.95069V6.95069Z" fill="white"/>
</mask>
<g mask="url(#mask0_1_5158)">
</g>
</svg>
