<svg width="52" height="52" viewBox="0 0 52 52" fill="none" xmlns="http://www.w3.org/2000/svg">
<g clip-path="url(#clip0_6_3307)">
<path fill-rule="evenodd" clip-rule="evenodd" d="M14.5044 13.2031C16.1105 8.60671 21.1247 6.15292 25.7466 7.71889C30.3957 9.29408 32.8873 14.34 31.3123 18.9887L24.9126 37.8771L15.15 20.4554C13.8586 18.1508 13.7042 15.5177 14.5044 13.2031ZM12.6885 18.5614C12.9122 19.4879 13.2648 20.3894 13.7435 21.2436L23.8348 39.2518C23.9371 39.4345 24.0446 39.6135 24.1569 39.7887C22.1707 43.6206 17.6315 45.5336 13.418 44.106C8.76897 42.5308 6.27684 37.4851 7.85203 32.836L12.6885 18.5614Z" fill="#4E55AF"/>
<path fill-rule="evenodd" clip-rule="evenodd" d="M38.6451 44.2506C34.3216 46.5961 28.9451 45.0481 26.6365 40.7927L15.2142 20.3344C12.9058 16.0793 14.5392 10.7279 18.8627 8.38234C23.1862 6.03682 28.5625 7.58535 30.8709 11.8405L42.2932 32.2987C44.6018 36.5541 42.9685 41.9051 38.6451 44.2506Z" fill="#00D2E0"/>
</g>
<defs>
<clipPath id="clip0_6_3307">
<rect width="52" height="52" fill="white"/>
</clipPath>
</defs>
</svg>
