<svg width="120" height="120" viewBox="0 0 120 120" fill="none" xmlns="http://www.w3.org/2000/svg">
<g clip-path="url(#clip0_2_8659)">
<path fill-rule="evenodd" clip-rule="evenodd" d="M31.9332 28.2384C35.6393 17.631 47.2108 11.9681 57.8768 15.582C68.6055 19.217 74.3555 30.8614 70.7207 41.5893L55.9522 85.1779L33.4231 44.974C30.4431 39.6558 30.0866 33.5796 31.9332 28.2384ZM27.7428 40.6032C28.2591 42.7412 29.0727 44.8216 30.1774 46.7929L53.465 88.3503C53.7012 88.7718 53.9491 89.1849 54.2083 89.5893C49.6247 98.4321 39.1497 102.847 29.4263 99.5521C18.6977 95.9171 12.9466 84.2732 16.5817 73.5446L27.7428 40.6032Z" fill="#4E55AF"/>
<path fill-rule="evenodd" clip-rule="evenodd" d="M87.6425 99.8864C77.6653 105.299 65.258 101.727 59.9304 91.9064L33.5713 44.6951C28.2441 34.8756 32.0136 22.5262 41.9908 17.1134C51.9681 11.7007 64.375 15.2742 69.7022 25.0937L96.0613 72.3051C101.389 82.1253 97.6197 94.4736 87.6425 99.8864Z" fill="#00D2E0"/>
</g>
<defs>
<clipPath id="clip0_2_8659">
<rect width="120" height="120" fill="white"/>
</clipPath>
</defs>
</svg>
