<svg width="16" height="16" viewBox="0 0 16 16" fill="none" xmlns="http://www.w3.org/2000/svg">
<path fill-rule="evenodd" clip-rule="evenodd" d="M10.6666 8C10.2986 8 9.99998 7.70133 9.99998 7.33333C9.99998 6.96533 10.2986 6.66667 10.6666 6.66667C11.0346 6.66667 11.3333 6.96533 11.3333 7.33333C11.3333 7.70133 11.0346 8 10.6666 8ZM7.99998 8C7.63198 8 7.33331 7.70133 7.33331 7.33333C7.33331 6.96533 7.63198 6.66667 7.99998 6.66667C8.36798 6.66667 8.66665 6.96533 8.66665 7.33333C8.66665 7.70133 8.36798 8 7.99998 8ZM5.33331 8C4.96531 8 4.66665 7.70133 4.66665 7.33333C4.66665 6.96533 4.96531 6.66667 5.33331 6.66667C5.70131 6.66667 5.99998 6.96533 5.99998 7.33333C5.99998 7.70133 5.70131 8 5.33331 8ZM12.6666 2H3.33331C2.23065 2 1.33331 2.89733 1.33331 4V14C1.33331 14.24 1.46265 14.462 1.67131 14.58C1.77331 14.638 1.88665 14.6667 1.99998 14.6667C2.11865 14.6667 2.23731 14.6353 2.34331 14.5713L5.35931 12.762C5.46331 12.6993 5.58198 12.6667 5.70265 12.6667H12.6666C13.7693 12.6667 14.6666 11.7693 14.6666 10.6667V4C14.6666 2.89733 13.7693 2 12.6666 2Z" fill="#6EA2FF"/>
<mask id="mask0_1_2209" style="mask-type:alpha" maskUnits="userSpaceOnUse" x="1" y="2" width="14" height="13">
<path fill-rule="evenodd" clip-rule="evenodd" d="M10.6666 8C10.2986 8 9.99998 7.70133 9.99998 7.33333C9.99998 6.96533 10.2986 6.66667 10.6666 6.66667C11.0346 6.66667 11.3333 6.96533 11.3333 7.33333C11.3333 7.70133 11.0346 8 10.6666 8ZM7.99998 8C7.63198 8 7.33331 7.70133 7.33331 7.33333C7.33331 6.96533 7.63198 6.66667 7.99998 6.66667C8.36798 6.66667 8.66665 6.96533 8.66665 7.33333C8.66665 7.70133 8.36798 8 7.99998 8ZM5.33331 8C4.96531 8 4.66665 7.70133 4.66665 7.33333C4.66665 6.96533 4.96531 6.66667 5.33331 6.66667C5.70131 6.66667 5.99998 6.96533 5.99998 7.33333C5.99998 7.70133 5.70131 8 5.33331 8ZM12.6666 2H3.33331C2.23065 2 1.33331 2.89733 1.33331 4V14C1.33331 14.24 1.46265 14.462 1.67131 14.58C1.77331 14.638 1.88665 14.6667 1.99998 14.6667C2.11865 14.6667 2.23731 14.6353 2.34331 14.5713L5.35931 12.762C5.46331 12.6993 5.58198 12.6667 5.70265 12.6667H12.6666C13.7693 12.6667 14.6666 11.7693 14.6666 10.6667V4C14.6666 2.89733 13.7693 2 12.6666 2Z" fill="white"/>
</mask>
<g mask="url(#mask0_1_2209)">
</g>
</svg>
