<svg width="20" height="20" viewBox="0 0 20 20" fill="none" xmlns="http://www.w3.org/2000/svg">
<path fill-rule="evenodd" clip-rule="evenodd" d="M5.83333 11.8205V2.49965C5.83333 2.03965 5.46083 1.66632 5 1.66632C4.53917 1.66632 4.16667 2.03965 4.16667 2.49965V11.8205C3.19917 12.1655 2.5 13.0822 2.5 14.1663C2.5 15.2513 3.19917 16.168 4.16667 16.513V17.4997C4.16667 17.9605 4.53917 18.333 5 18.333C5.46083 18.333 5.83333 17.9605 5.83333 17.4997V16.513C6.80083 16.168 7.5 15.2513 7.5 14.1663C7.5 13.0822 6.80083 12.1655 5.83333 11.8205ZM17.5 10.8334C17.5 9.7484 16.8008 8.83257 15.8333 8.48757V2.50007C15.8333 2.03924 15.4608 1.66674 15 1.66674C14.5392 1.66674 14.1667 2.03924 14.1667 2.50007V8.48757C13.1992 8.83257 12.5 9.7484 12.5 10.8334C12.5 11.9184 13.1992 12.8342 14.1667 13.1792V17.5001C14.1667 17.9609 14.5392 18.3334 15 18.3334C15.4608 18.3334 15.8333 17.9609 15.8333 17.5001V13.1792C16.8008 12.8342 17.5 11.9184 17.5 10.8334ZM10 1.66674C11.3783 1.66674 12.5 2.7884 12.5 4.16674C12.5 5.25174 11.8008 6.16757 10.8333 6.51257V17.5001C10.8333 17.9609 10.4608 18.3334 10 18.3334C9.53917 18.3334 9.16667 17.9609 9.16667 17.5001V6.51257C8.19917 6.16757 7.5 5.25174 7.5 4.16674C7.5 2.7884 8.62167 1.66674 10 1.66674Z" fill="#0D0F23"/>
<mask id="mask0_43_6508" style="mask-type:alpha" maskUnits="userSpaceOnUse" x="2" y="1" width="16" height="18">
<path fill-rule="evenodd" clip-rule="evenodd" d="M5.83333 11.8205V2.49965C5.83333 2.03965 5.46083 1.66632 5 1.66632C4.53917 1.66632 4.16667 2.03965 4.16667 2.49965V11.8205C3.19917 12.1655 2.5 13.0822 2.5 14.1663C2.5 15.2513 3.19917 16.168 4.16667 16.513V17.4997C4.16667 17.9605 4.53917 18.333 5 18.333C5.46083 18.333 5.83333 17.9605 5.83333 17.4997V16.513C6.80083 16.168 7.5 15.2513 7.5 14.1663C7.5 13.0822 6.80083 12.1655 5.83333 11.8205ZM17.5 10.8334C17.5 9.7484 16.8008 8.83257 15.8333 8.48757V2.50007C15.8333 2.03924 15.4608 1.66674 15 1.66674C14.5392 1.66674 14.1667 2.03924 14.1667 2.50007V8.48757C13.1992 8.83257 12.5 9.7484 12.5 10.8334C12.5 11.9184 13.1992 12.8342 14.1667 13.1792V17.5001C14.1667 17.9609 14.5392 18.3334 15 18.3334C15.4608 18.3334 15.8333 17.9609 15.8333 17.5001V13.1792C16.8008 12.8342 17.5 11.9184 17.5 10.8334ZM10 1.66674C11.3783 1.66674 12.5 2.7884 12.5 4.16674C12.5 5.25174 11.8008 6.16757 10.8333 6.51257V17.5001C10.8333 17.9609 10.4608 18.3334 10 18.3334C9.53917 18.3334 9.16667 17.9609 9.16667 17.5001V6.51257C8.19917 6.16757 7.5 5.25174 7.5 4.16674C7.5 2.7884 8.62167 1.66674 10 1.66674Z" fill="white"/>
</mask>
<g mask="url(#mask0_43_6508)">
</g>
</svg>
