<svg width="16" height="16" viewBox="0 0 16 16" fill="none" xmlns="http://www.w3.org/2000/svg">
<path fill-rule="evenodd" clip-rule="evenodd" d="M5.99998 7.33333C7.47065 7.33333 8.66665 6.13733 8.66665 4.66667C8.66665 3.196 7.47065 2 5.99998 2C4.52931 2 3.33331 3.196 3.33331 4.66667C3.33331 6.13733 4.52931 7.33333 5.99998 7.33333ZM11.3333 8.66667C12.436 8.66667 13.3333 7.76933 13.3333 6.66667C13.3333 5.564 12.436 4.66667 11.3333 4.66667C10.2306 4.66667 9.33331 5.564 9.33331 6.66667C9.33331 7.76933 10.2306 8.66667 11.3333 8.66667ZM14.6666 12.6667C14.6666 13.0347 14.3686 13.3333 14 13.3333H10.6666C10.6666 13.7013 10.3686 14 9.99998 14H1.99998C1.63131 14 1.33331 13.7013 1.33331 13.3333C1.33331 10.76 3.42731 8.66667 5.99998 8.66667C7.28465 8.66667 8.44865 9.18867 9.29331 10.0307C9.87265 9.58267 10.586 9.33333 11.3333 9.33333C13.1713 9.33333 14.6666 10.8287 14.6666 12.6667Z" fill="#A0A1B4"/>
<mask id="mask0_9_5114" style="mask-type:luminance" maskUnits="userSpaceOnUse" x="1" y="2" width="14" height="12">
<path fill-rule="evenodd" clip-rule="evenodd" d="M5.99998 7.33333C7.47065 7.33333 8.66665 6.13733 8.66665 4.66667C8.66665 3.196 7.47065 2 5.99998 2C4.52931 2 3.33331 3.196 3.33331 4.66667C3.33331 6.13733 4.52931 7.33333 5.99998 7.33333ZM11.3333 8.66667C12.436 8.66667 13.3333 7.76933 13.3333 6.66667C13.3333 5.564 12.436 4.66667 11.3333 4.66667C10.2306 4.66667 9.33331 5.564 9.33331 6.66667C9.33331 7.76933 10.2306 8.66667 11.3333 8.66667ZM14.6666 12.6667C14.6666 13.0347 14.3686 13.3333 14 13.3333H10.6666C10.6666 13.7013 10.3686 14 9.99998 14H1.99998C1.63131 14 1.33331 13.7013 1.33331 13.3333C1.33331 10.76 3.42731 8.66667 5.99998 8.66667C7.28465 8.66667 8.44865 9.18867 9.29331 10.0307C9.87265 9.58267 10.586 9.33333 11.3333 9.33333C13.1713 9.33333 14.6666 10.8287 14.6666 12.6667Z" fill="white"/>
</mask>
<g mask="url(#mask0_9_5114)">
</g>
</svg>
