<svg width="20" height="20" viewBox="0 0 20 20" fill="none" xmlns="http://www.w3.org/2000/svg">
<path fill-rule="evenodd" clip-rule="evenodd" d="M13.3333 5.83333C13.3333 7.67167 11.8383 9.16667 9.99999 9.16667C8.16166 9.16667 6.66666 7.67167 6.66666 5.83333C6.66666 3.995 8.16166 2.5 9.99999 2.5C11.8383 2.5 13.3333 3.995 13.3333 5.83333ZM15.8333 16.6667C15.8333 17.1267 15.4608 17.5 15 17.5H4.99999C4.53916 17.5 4.16666 17.1267 4.16666 16.6667C4.16666 13.45 6.78416 10.8333 9.99999 10.8333C13.2158 10.8333 15.8333 13.45 15.8333 16.6667Z" fill="#A0A1B4"/>
<mask id="mask0_1_5117" style="mask-type:alpha" maskUnits="userSpaceOnUse" x="4" y="2" width="12" height="16">
<path fill-rule="evenodd" clip-rule="evenodd" d="M13.3333 5.83333C13.3333 7.67167 11.8383 9.16667 9.99999 9.16667C8.16166 9.16667 6.66666 7.67167 6.66666 5.83333C6.66666 3.995 8.16166 2.5 9.99999 2.5C11.8383 2.5 13.3333 3.995 13.3333 5.83333ZM15.8333 16.6667C15.8333 17.1267 15.4608 17.5 15 17.5H4.99999C4.53916 17.5 4.16666 17.1267 4.16666 16.6667C4.16666 13.45 6.78416 10.8333 9.99999 10.8333C13.2158 10.8333 15.8333 13.45 15.8333 16.6667Z" fill="white"/>
</mask>
<g mask="url(#mask0_1_5117)">
</g>
</svg>
