<svg width="20" height="20" viewBox="0 0 20 20" fill="none" xmlns="http://www.w3.org/2000/svg">
<path fill-rule="evenodd" clip-rule="evenodd" d="M14.4999 18.3333C7.42326 18.3333 1.6666 12.5766 1.6666 5.49996C1.6666 3.38579 3.3866 1.66663 5.49993 1.66663C5.7166 1.66663 5.93076 1.68496 6.13826 1.72079C6.34076 1.75329 6.54493 1.80496 6.74243 1.87329C7.0141 1.96746 7.21743 2.19496 7.2816 2.47496L8.42326 7.44496C8.48576 7.71829 8.4066 8.00496 8.21243 8.20829C8.09826 8.32663 8.09576 8.32913 7.06243 8.86996C7.8991 10.6816 9.35326 12.1308 11.1291 12.9391C11.6699 11.905 11.6733 11.9016 11.7916 11.7883C11.9958 11.5933 12.2833 11.5175 12.5558 11.5775L17.5258 12.7183C17.8049 12.7825 18.0324 12.9858 18.1266 13.2566C18.1949 13.4533 18.2458 13.6566 18.2799 13.8658C18.3149 14.0716 18.3333 14.285 18.3333 14.5C18.3333 16.6141 16.6141 18.3333 14.4999 18.3333Z" fill="#A0A1B4"/>
<mask id="mask0_1_5085" style="mask-type:alpha" maskUnits="userSpaceOnUse" x="1" y="1" width="18" height="18">
<path fill-rule="evenodd" clip-rule="evenodd" d="M14.4999 18.3333C7.42326 18.3333 1.6666 12.5766 1.6666 5.49996C1.6666 3.38579 3.3866 1.66663 5.49993 1.66663C5.7166 1.66663 5.93076 1.68496 6.13826 1.72079C6.34076 1.75329 6.54493 1.80496 6.74243 1.87329C7.0141 1.96746 7.21743 2.19496 7.2816 2.47496L8.42326 7.44496C8.48576 7.71829 8.4066 8.00496 8.21243 8.20829C8.09826 8.32663 8.09576 8.32913 7.06243 8.86996C7.8991 10.6816 9.35326 12.1308 11.1291 12.9391C11.6699 11.905 11.6733 11.9016 11.7916 11.7883C11.9958 11.5933 12.2833 11.5175 12.5558 11.5775L17.5258 12.7183C17.8049 12.7825 18.0324 12.9858 18.1266 13.2566C18.1949 13.4533 18.2458 13.6566 18.2799 13.8658C18.3149 14.0716 18.3333 14.285 18.3333 14.5C18.3333 16.6141 16.6141 18.3333 14.4999 18.3333Z" fill="white"/>
</mask>
<g mask="url(#mask0_1_5085)">
</g>
</svg>
