<svg width="16" height="16" viewBox="0 0 16 16" fill="none" xmlns="http://www.w3.org/2000/svg">
<path fill-rule="evenodd" clip-rule="evenodd" d="M12.6666 7.33341H8.66663V3.33341C8.66663 2.96475 8.36796 2.66675 7.99996 2.66675C7.63196 2.66675 7.33329 2.96475 7.33329 3.33341V7.33341H3.33329C2.96529 7.33341 2.66663 7.63141 2.66663 8.00008C2.66663 8.36875 2.96529 8.66675 3.33329 8.66675H7.33329V12.6667C7.33329 13.0354 7.63196 13.3334 7.99996 13.3334C8.36796 13.3334 8.66663 13.0354 8.66663 12.6667V8.66675H12.6666C13.0346 8.66675 13.3333 8.36875 13.3333 8.00008C13.3333 7.63141 13.0346 7.33341 12.6666 7.33341Z" fill="#A0A1B4"/>
<mask id="mask0_1_1927" style="mask-type:alpha" maskUnits="userSpaceOnUse" x="2" y="2" width="12" height="12">
<path fill-rule="evenodd" clip-rule="evenodd" d="M12.6666 7.33341H8.66663V3.33341C8.66663 2.96475 8.36796 2.66675 7.99996 2.66675C7.63196 2.66675 7.33329 2.96475 7.33329 3.33341V7.33341H3.33329C2.96529 7.33341 2.66663 7.63141 2.66663 8.00008C2.66663 8.36875 2.96529 8.66675 3.33329 8.66675H7.33329V12.6667C7.33329 13.0354 7.63196 13.3334 7.99996 13.3334C8.36796 13.3334 8.66663 13.0354 8.66663 12.6667V8.66675H12.6666C13.0346 8.66675 13.3333 8.36875 13.3333 8.00008C13.3333 7.63141 13.0346 7.33341 12.6666 7.33341Z" fill="white"/>
</mask>
<g mask="url(#mask0_1_1927)">
</g>
</svg>
