<svg width="32" height="32" viewBox="0 0 32 32" fill="none" xmlns="http://www.w3.org/2000/svg">
<circle cx="16" cy="16" r="16" fill="#4E55AF"/>
<path fill-rule="evenodd" clip-rule="evenodd" d="M20.4602 18.642L16.6669 20.4047V15.9274L20.6669 14.0694V18.3594C20.6669 18.4754 20.5882 18.5834 20.4602 18.642ZM11.5356 18.6427C11.4096 18.584 11.3322 18.476 11.3336 18.3547V14.0694L15.3336 15.9274V20.406L11.5356 18.6427ZM15.8049 11.376C15.8656 11.3474 15.9329 11.3334 16.0002 11.3334C16.0669 11.3334 16.1342 11.3474 16.1949 11.376L19.7476 13.0254L16.0002 14.7667L12.2522 13.0254L15.8049 11.376ZM21.7709 12.8394C21.7689 12.834 21.7696 12.828 21.7669 12.8227C21.7649 12.8174 21.7596 12.814 21.7562 12.8087C21.7256 12.758 21.6882 12.7134 21.6529 12.6667C21.6322 12.644 21.6156 12.6187 21.5929 12.5994C21.4362 12.4154 21.2516 12.2534 21.0222 12.1474L16.7556 10.1654C16.7549 10.1654 16.7542 10.1654 16.7542 10.1647C16.2749 9.94336 15.7249 9.94402 15.2442 10.1654L10.9796 12.1467C10.7502 12.2527 10.5649 12.414 10.4082 12.598C10.3836 12.6187 10.3656 12.6467 10.3436 12.6714C10.3089 12.716 10.2736 12.7594 10.2442 12.8074C10.2409 12.8134 10.2356 12.8174 10.2329 12.8227C10.2302 12.8287 10.2309 12.8347 10.2282 12.8407C10.0876 13.082 10.0002 13.3534 10.0002 13.6387V18.35C9.99491 18.9834 10.3762 19.5727 10.9722 19.8514L15.2382 21.8327C15.4796 21.9454 15.7382 22.0014 15.9976 22.0014C16.2562 22.0014 16.5149 21.9454 16.7556 21.8334L21.0202 19.852C21.6149 19.5774 21.9996 18.992 22.0002 18.36V13.638C21.9996 13.3527 21.9122 13.0814 21.7709 12.8394Z" fill="white"/>
<mask id="mask0_9_5136" style="mask-type:luminance" maskUnits="userSpaceOnUse" x="10" y="9" width="13" height="14">
<path fill-rule="evenodd" clip-rule="evenodd" d="M20.4602 18.642L16.6669 20.4047V15.9274L20.6669 14.0694V18.3594C20.6669 18.4754 20.5882 18.5834 20.4602 18.642ZM11.5356 18.6427C11.4096 18.584 11.3322 18.476 11.3336 18.3547V14.0694L15.3336 15.9274V20.406L11.5356 18.6427ZM15.8049 11.376C15.8656 11.3474 15.9329 11.3334 16.0002 11.3334C16.0669 11.3334 16.1342 11.3474 16.1949 11.376L19.7476 13.0254L16.0002 14.7667L12.2522 13.0254L15.8049 11.376ZM21.7709 12.8394C21.7689 12.834 21.7696 12.828 21.7669 12.8227C21.7649 12.8174 21.7596 12.814 21.7562 12.8087C21.7256 12.758 21.6882 12.7134 21.6529 12.6667C21.6322 12.644 21.6156 12.6187 21.5929 12.5994C21.4362 12.4154 21.2516 12.2534 21.0222 12.1474L16.7556 10.1654C16.7549 10.1654 16.7542 10.1654 16.7542 10.1647C16.2749 9.94336 15.7249 9.94402 15.2442 10.1654L10.9796 12.1467C10.7502 12.2527 10.5649 12.414 10.4082 12.598C10.3836 12.6187 10.3656 12.6467 10.3436 12.6714C10.3089 12.716 10.2736 12.7594 10.2442 12.8074C10.2409 12.8134 10.2356 12.8174 10.2329 12.8227C10.2302 12.8287 10.2309 12.8347 10.2282 12.8407C10.0876 13.082 10.0002 13.3534 10.0002 13.6387V18.35C9.99491 18.9834 10.3762 19.5727 10.9722 19.8514L15.2382 21.8327C15.4796 21.9454 15.7382 22.0014 15.9976 22.0014C16.2562 22.0014 16.5149 21.9454 16.7556 21.8334L21.0202 19.852C21.6149 19.5774 21.9996 18.992 22.0002 18.36V13.638C21.9996 13.3527 21.9122 13.0814 21.7709 12.8394Z" fill="white"/>
</mask>
<g mask="url(#mask0_9_5136)">
</g>
</svg>
