<svg width="20" height="20" viewBox="0 0 20 20" fill="none" xmlns="http://www.w3.org/2000/svg">
<path fill-rule="evenodd" clip-rule="evenodd" d="M10.8333 10.6975V11.6666C10.8333 12.1275 10.4608 12.5 9.99999 12.5C9.53916 12.5 9.16666 12.1275 9.16666 11.6666V9.99996C9.16666 9.53913 9.53916 9.16663 9.99999 9.16663C10.6892 9.16663 11.25 8.60579 11.25 7.91663C11.25 7.22746 10.6892 6.66663 9.99999 6.66663C9.31082 6.66663 8.74999 7.22746 8.74999 7.91663C8.74999 8.37746 8.37749 8.74996 7.91666 8.74996C7.45582 8.74996 7.08332 8.37746 7.08332 7.91663C7.08332 6.30829 8.39166 4.99996 9.99999 4.99996C11.6083 4.99996 12.9167 6.30829 12.9167 7.91663C12.9167 9.23329 12.0333 10.3358 10.8333 10.6975M9.99999 15C9.53916 15 9.16666 14.6275 9.16666 14.1666C9.16666 13.7058 9.53916 13.3333 9.99999 13.3333C10.4608 13.3333 10.8333 13.7058 10.8333 14.1666C10.8333 14.6275 10.4608 15 9.99999 15M9.99999 1.66663C5.40499 1.66663 1.66666 5.40496 1.66666 9.99996C1.66666 14.595 5.40499 18.3333 9.99999 18.3333C14.595 18.3333 18.3333 14.595 18.3333 9.99996C18.3333 5.40496 14.595 1.66663 9.99999 1.66663" fill="#0D0F23"/>
<mask id="mask0_301_3436" style="mask-type:alpha" maskUnits="userSpaceOnUse" x="1" y="1" width="18" height="18">
<path fill-rule="evenodd" clip-rule="evenodd" d="M10.8333 10.6975V11.6666C10.8333 12.1275 10.4608 12.5 9.99999 12.5C9.53916 12.5 9.16666 12.1275 9.16666 11.6666V9.99996C9.16666 9.53913 9.53916 9.16663 9.99999 9.16663C10.6892 9.16663 11.25 8.60579 11.25 7.91663C11.25 7.22746 10.6892 6.66663 9.99999 6.66663C9.31082 6.66663 8.74999 7.22746 8.74999 7.91663C8.74999 8.37746 8.37749 8.74996 7.91666 8.74996C7.45582 8.74996 7.08332 8.37746 7.08332 7.91663C7.08332 6.30829 8.39166 4.99996 9.99999 4.99996C11.6083 4.99996 12.9167 6.30829 12.9167 7.91663C12.9167 9.23329 12.0333 10.3358 10.8333 10.6975M9.99999 15C9.53916 15 9.16666 14.6275 9.16666 14.1666C9.16666 13.7058 9.53916 13.3333 9.99999 13.3333C10.4608 13.3333 10.8333 13.7058 10.8333 14.1666C10.8333 14.6275 10.4608 15 9.99999 15M9.99999 1.66663C5.40499 1.66663 1.66666 5.40496 1.66666 9.99996C1.66666 14.595 5.40499 18.3333 9.99999 18.3333C14.595 18.3333 18.3333 14.595 18.3333 9.99996C18.3333 5.40496 14.595 1.66663 9.99999 1.66663" fill="white"/>
</mask>
<g mask="url(#mask0_301_3436)">
</g>
</svg>
