<svg width="20" height="20" viewBox="0 0 20 20" fill="none" xmlns="http://www.w3.org/2000/svg">
<path fill-rule="evenodd" clip-rule="evenodd" d="M1.66669 8.89156C1.66669 4.90134 4.86697 1.66663 8.81472 1.66663C10.7105 1.66663 12.5286 2.42782 13.8691 3.78276C15.2097 5.1377 15.9628 6.97539 15.9628 8.89156C15.9628 12.8818 12.7625 16.1165 8.81472 16.1165C4.86697 16.1165 1.66669 12.8818 1.66669 8.89156ZM15.8445 14.7119L17.9734 16.4303H18.0103C18.441 16.8656 18.441 17.5715 18.0103 18.0068C17.5796 18.4421 16.8813 18.4421 16.4506 18.0068L14.6839 15.982C14.5169 15.8138 14.423 15.5853 14.423 15.3469C14.423 15.1086 14.5169 14.8801 14.6839 14.7119C15.006 14.3919 15.5224 14.3919 15.8445 14.7119Z" fill="#A0A1B4"/>
</svg>
