<svg width="20" height="20" viewBox="0 0 20 20" fill="none" xmlns="http://www.w3.org/2000/svg">
<path fill-rule="evenodd" clip-rule="evenodd" d="M1.66663 8.89144C1.66663 4.90122 4.86691 1.6665 8.81466 1.6665C10.7104 1.6665 12.5286 2.4277 13.8691 3.78264C15.2096 5.13758 15.9627 6.97527 15.9627 8.89144C15.9627 12.8817 12.7624 16.1164 8.81466 16.1164C4.86691 16.1164 1.66663 12.8817 1.66663 8.89144ZM15.8444 14.7117L17.9733 16.4302H18.0103C18.441 16.8655 18.441 17.5713 18.0103 18.0067C17.5796 18.442 16.8813 18.442 16.4506 18.0067L14.6839 15.9819C14.5169 15.8137 14.423 15.5851 14.423 15.3468C14.423 15.1085 14.5169 14.88 14.6839 14.7117C15.006 14.3918 15.5223 14.3918 15.8444 14.7117Z" fill="#0D0F23"/>
</svg>
