<svg width="16" height="16" viewBox="0 0 16 16" fill="none" xmlns="http://www.w3.org/2000/svg">
<path fill-rule="evenodd" clip-rule="evenodd" d="M6.66633 12.6667C6.51566 12.6667 6.36433 12.616 6.23966 12.512C5.957 12.2767 5.919 11.856 6.15433 11.5733L9.13833 7.99265L6.26166 4.41799C6.031 4.13132 6.07633 3.71132 6.363 3.48065C6.65033 3.24999 7.06966 3.29532 7.301 3.58199L10.5197 7.58199C10.7183 7.82932 10.7157 8.18265 10.5123 8.42665L7.179 12.4267C7.047 12.5847 6.85766 12.6667 6.66633 12.6667" fill="#A0A1B4"/>
<mask id="mask0_1_1329" style="mask-type:alpha" maskUnits="userSpaceOnUse" x="6" y="3" width="5" height="10">
<path fill-rule="evenodd" clip-rule="evenodd" d="M6.66633 12.6667C6.51566 12.6667 6.36433 12.616 6.23966 12.512C5.957 12.2767 5.919 11.856 6.15433 11.5733L9.13833 7.99265L6.26166 4.41799C6.031 4.13132 6.07633 3.71132 6.363 3.48065C6.65033 3.24999 7.06966 3.29532 7.301 3.58199L10.5197 7.58199C10.7183 7.82932 10.7157 8.18265 10.5123 8.42665L7.179 12.4267C7.047 12.5847 6.85766 12.6667 6.66633 12.6667" fill="white"/>
</mask>
<g mask="url(#mask0_1_1329)">
</g>
</svg>
