<svg width="20" height="20" viewBox="0 0 20 20" fill="none" xmlns="http://www.w3.org/2000/svg">
<path fill-rule="evenodd" clip-rule="evenodd" d="M15 12.5004C14.3192 12.5004 13.7025 12.7754 13.2508 13.2179L6.63833 10.2796C6.64916 10.1871 6.66666 10.0954 6.66666 10.0004C6.66666 9.90543 6.64916 9.81376 6.63833 9.72126L13.2508 6.78293C13.7025 7.22543 14.3192 7.50043 15 7.50043C16.3783 7.50043 17.5 6.37876 17.5 5.00043C17.5 3.62209 16.3783 2.50043 15 2.50043C13.6217 2.50043 12.5 3.62209 12.5 5.00043C12.5 5.09543 12.5175 5.18709 12.5283 5.27959L5.91583 8.21793C5.46416 7.77543 4.8475 7.50043 4.16666 7.50043C2.78833 7.50043 1.66666 8.62209 1.66666 10.0004C1.66666 11.3788 2.78833 12.5004 4.16666 12.5004C4.8475 12.5004 5.46416 12.2254 5.91583 11.7829L12.5283 14.7213C12.5175 14.8138 12.5 14.9054 12.5 15.0004C12.5 16.3788 13.6217 17.5004 15 17.5004C16.3783 17.5004 17.5 16.3788 17.5 15.0004C17.5 13.6221 16.3783 12.5004 15 12.5004" fill="#0D0F23"/>
<mask id="mask0_351_3581" style="mask-type:alpha" maskUnits="userSpaceOnUse" x="1" y="2" width="17" height="16">
<path fill-rule="evenodd" clip-rule="evenodd" d="M15 12.5004C14.3192 12.5004 13.7025 12.7754 13.2508 13.2179L6.63833 10.2796C6.64916 10.1871 6.66666 10.0954 6.66666 10.0004C6.66666 9.90543 6.64916 9.81376 6.63833 9.72126L13.2508 6.78293C13.7025 7.22543 14.3192 7.50043 15 7.50043C16.3783 7.50043 17.5 6.37876 17.5 5.00043C17.5 3.62209 16.3783 2.50043 15 2.50043C13.6217 2.50043 12.5 3.62209 12.5 5.00043C12.5 5.09543 12.5175 5.18709 12.5283 5.27959L5.91583 8.21793C5.46416 7.77543 4.8475 7.50043 4.16666 7.50043C2.78833 7.50043 1.66666 8.62209 1.66666 10.0004C1.66666 11.3788 2.78833 12.5004 4.16666 12.5004C4.8475 12.5004 5.46416 12.2254 5.91583 11.7829L12.5283 14.7213C12.5175 14.8138 12.5 14.9054 12.5 15.0004C12.5 16.3788 13.6217 17.5004 15 17.5004C16.3783 17.5004 17.5 16.3788 17.5 15.0004C17.5 13.6221 16.3783 12.5004 15 12.5004" fill="white"/>
</mask>
<g mask="url(#mask0_351_3581)">
</g>
</svg>
