<svg width="20" height="20" viewBox="0 0 20 20" fill="none" xmlns="http://www.w3.org/2000/svg">
<path fill-rule="evenodd" clip-rule="evenodd" d="M17.5692 5.79012C17.2634 5.29512 16.7334 5.00012 16.1517 5.00012H5.48502L4.97085 3.11429C4.87169 2.75179 4.54252 2.50012 4.16669 2.50012H2.50002C2.03919 2.50012 1.66669 2.87346 1.66669 3.33346C1.66669 3.79346 2.03919 4.16679 2.50002 4.16679H3.53002L5.86252 12.7193C5.96169 13.0818 6.29085 13.3335 6.66669 13.3335H14.1667C14.4825 13.3335 14.7709 13.1551 14.9125 12.8726L17.6425 7.41179C17.9025 6.89096 17.875 6.28512 17.5692 5.79012ZM6.25002 15C5.56002 15 5.00002 15.5591 5.00002 16.25C5.00002 16.9408 5.56002 17.5 6.25002 17.5C6.94002 17.5 7.50002 16.9408 7.50002 16.25C7.50002 15.5591 6.94002 15 6.25002 15ZM13.3334 16.25C13.3334 15.5591 13.8934 15 14.5834 15C15.2734 15 15.8334 15.5591 15.8334 16.25C15.8334 16.9408 15.2734 17.5 14.5834 17.5C13.8934 17.5 13.3334 16.9408 13.3334 16.25Z" fill="#0D0F23"/>
<mask id="mask0_14_13437" style="mask-type:alpha" maskUnits="userSpaceOnUse" x="1" y="2" width="17" height="16">
<path fill-rule="evenodd" clip-rule="evenodd" d="M17.5692 5.79012C17.2634 5.29512 16.7334 5.00012 16.1517 5.00012H5.48502L4.97085 3.11429C4.87169 2.75179 4.54252 2.50012 4.16669 2.50012H2.50002C2.03919 2.50012 1.66669 2.87346 1.66669 3.33346C1.66669 3.79346 2.03919 4.16679 2.50002 4.16679H3.53002L5.86252 12.7193C5.96169 13.0818 6.29085 13.3335 6.66669 13.3335H14.1667C14.4825 13.3335 14.7709 13.1551 14.9125 12.8726L17.6425 7.41179C17.9025 6.89096 17.875 6.28512 17.5692 5.79012ZM6.25002 15C5.56002 15 5.00002 15.5591 5.00002 16.25C5.00002 16.9408 5.56002 17.5 6.25002 17.5C6.94002 17.5 7.50002 16.9408 7.50002 16.25C7.50002 15.5591 6.94002 15 6.25002 15ZM13.3334 16.25C13.3334 15.5591 13.8934 15 14.5834 15C15.2734 15 15.8334 15.5591 15.8334 16.25C15.8334 16.9408 15.2734 17.5 14.5834 17.5C13.8934 17.5 13.3334 16.9408 13.3334 16.25Z" fill="white"/>
</mask>
<g mask="url(#mask0_14_13437)">
</g>
</svg>
