<svg width="24" height="24" viewBox="0 0 24 24" fill="none" xmlns="http://www.w3.org/2000/svg">
<path fill-rule="evenodd" clip-rule="evenodd" d="M17.5616 21.0007C17.4036 21.0007 17.2446 20.9637 17.0986 20.8877L11.9996 18.2237L6.90159 20.8877C6.56359 21.0627 6.15559 21.0327 5.84959 20.8087C5.54159 20.5847 5.38859 20.2057 5.45359 19.8307L6.42459 14.2027L2.30459 10.2177C2.03059 9.95265 1.93159 9.55465 2.04859 9.19065C2.16559 8.82865 2.47859 8.56365 2.85659 8.50965L8.55659 7.68165L11.1046 2.55565C11.4426 1.87565 12.5576 1.87565 12.8956 2.55565L15.4436 7.68165L21.1436 8.50965C21.5216 8.56365 21.8346 8.82865 21.9516 9.19065C22.0686 9.55465 21.9696 9.95265 21.6956 10.2177L17.5756 14.2027L18.5466 19.8307C18.6116 20.2057 18.4576 20.5847 18.1506 20.8087C17.9766 20.9367 17.7696 21.0007 17.5616 21.0007Z" fill="#FDD446"/>
<mask id="mask0_1_2167" style="mask-type:alpha" maskUnits="userSpaceOnUse" x="2" y="2" width="20" height="20">
<path fill-rule="evenodd" clip-rule="evenodd" d="M17.5616 21.0007C17.4036 21.0007 17.2446 20.9637 17.0986 20.8877L11.9996 18.2237L6.90159 20.8877C6.56359 21.0627 6.15559 21.0327 5.84959 20.8087C5.54159 20.5847 5.38859 20.2057 5.45359 19.8307L6.42459 14.2027L2.30459 10.2177C2.03059 9.95265 1.93159 9.55465 2.04859 9.19065C2.16559 8.82865 2.47859 8.56365 2.85659 8.50965L8.55659 7.68165L11.1046 2.55565C11.4426 1.87565 12.5576 1.87565 12.8956 2.55565L15.4436 7.68165L21.1436 8.50965C21.5216 8.56365 21.8346 8.82865 21.9516 9.19065C22.0686 9.55465 21.9696 9.95265 21.6956 10.2177L17.5756 14.2027L18.5466 19.8307C18.6116 20.2057 18.4576 20.5847 18.1506 20.8087C17.9766 20.9367 17.7696 21.0007 17.5616 21.0007Z" fill="white"/>
</mask>
<g mask="url(#mask0_1_2167)">
</g>
</svg>
