<svg width="16" height="16" viewBox="0 0 16 16" fill="none" xmlns="http://www.w3.org/2000/svg">
<path d="M11.9466 9.54687C11.7733 9.71354 11.6933 9.95954 11.7339 10.1935L12.3266 13.4735C12.3739 13.7535 12.2606 14.0329 12.0266 14.1935C11.7999 14.3602 11.4999 14.3802 11.2466 14.2469L8.29393 12.7069C8.1866 12.6535 8.07326 12.6195 7.9606 12.6195H7.77993C7.71326 12.6262 7.65393 12.6535 7.59993 12.6795L4.6466 14.2269C4.49993 14.3002 4.33326 14.3269 4.17326 14.3002C3.77326 14.2202 3.51393 13.8462 3.57993 13.4529L4.17326 10.1729C4.21326 9.93354 4.13326 9.69354 3.9606 9.5202L1.55326 7.18687C1.35326 6.98687 1.27993 6.69954 1.37393 6.43354C1.46059 6.17287 1.68659 5.97954 1.96659 5.93354L5.27993 5.45287C5.53326 5.4262 5.75326 5.27354 5.8666 5.04687L7.32659 2.05354C7.35993 1.98687 7.40659 1.9262 7.46059 1.87354L7.51993 1.82687C7.54659 1.79287 7.58659 1.76687 7.62726 1.7402L7.69993 1.71354L7.81326 1.66687H8.09393C8.34726 1.69354 8.56726 1.8462 8.68059 2.0662L10.1599 5.04687C10.2666 5.26687 10.4733 5.41354 10.7133 5.45287L14.0266 5.93354C14.3066 5.97354 14.5406 6.16687 14.6333 6.43354C14.7199 6.69954 14.6466 6.99354 14.4399 7.18687L11.9466 9.54687Z" fill="#FDD446"/>
</svg>
