<svg width="20" height="20" viewBox="0 0 20 20" fill="none" xmlns="http://www.w3.org/2000/svg">
<path fill-rule="evenodd" clip-rule="evenodd" d="M12.5001 10.8334H10.8334V12.5001C10.8334 12.9584 10.4584 13.3334 10.0001 13.3334C9.54175 13.3334 9.16675 12.9584 9.16675 12.5001V10.8334H7.50008C7.04175 10.8334 6.66675 10.4584 6.66675 10.0001C6.66675 9.54175 7.04175 9.16675 7.50008 9.16675H9.16675V7.50008C9.16675 7.04175 9.54175 6.66675 10.0001 6.66675C10.4584 6.66675 10.8334 7.04175 10.8334 7.50008V9.16675H12.5001C12.9584 9.16675 13.3334 9.54175 13.3334 10.0001C13.3334 10.4584 12.9584 10.8334 12.5001 10.8334M10.0001 1.66675C5.40508 1.66675 1.66675 5.40508 1.66675 10.0001C1.66675 14.5951 5.40508 18.3334 10.0001 18.3334C14.5951 18.3334 18.3334 14.5951 18.3334 10.0001C18.3334 5.40508 14.5951 1.66675 10.0001 1.66675" fill="#0D0F23"/>
<mask id="mask0_504_3531" style="mask-type:luminance" maskUnits="userSpaceOnUse" x="1" y="1" width="18" height="18">
<path fill-rule="evenodd" clip-rule="evenodd" d="M12.5001 10.8334H10.8334V12.5001C10.8334 12.9584 10.4584 13.3334 10.0001 13.3334C9.54175 13.3334 9.16675 12.9584 9.16675 12.5001V10.8334H7.50008C7.04175 10.8334 6.66675 10.4584 6.66675 10.0001C6.66675 9.54175 7.04175 9.16675 7.50008 9.16675H9.16675V7.50008C9.16675 7.04175 9.54175 6.66675 10.0001 6.66675C10.4584 6.66675 10.8334 7.04175 10.8334 7.50008V9.16675H12.5001C12.9584 9.16675 13.3334 9.54175 13.3334 10.0001C13.3334 10.4584 12.9584 10.8334 12.5001 10.8334M10.0001 1.66675C5.40508 1.66675 1.66675 5.40508 1.66675 10.0001C1.66675 14.5951 5.40508 18.3334 10.0001 18.3334C14.5951 18.3334 18.3334 14.5951 18.3334 10.0001C18.3334 5.40508 14.5951 1.66675 10.0001 1.66675" fill="white"/>
</mask>
<g mask="url(#mask0_504_3531)">
</g>
</svg>
