<svg width="20" height="20" viewBox="0 0 20 20" fill="none" xmlns="http://www.w3.org/2000/svg">
<path fill-rule="evenodd" clip-rule="evenodd" d="M9.318 12.5757C7.898 12.5757 6.74216 11.4199 6.74216 9.99991C6.74216 8.57991 7.898 7.42408 9.318 7.42408C10.738 7.42408 11.8938 8.57991 11.8938 9.99991C11.8938 11.4199 10.738 12.5757 9.318 12.5757M10.7955 1.70324C8.29466 1.46824 5.84883 2.35408 4.088 4.12741C2.32633 5.89991 1.45883 8.35241 1.70883 10.8549C2.00716 13.8316 3.883 16.4232 6.6055 17.6174C7.69466 18.0949 8.84966 18.3291 9.99633 18.3291C11.803 18.3291 13.5905 17.7466 15.0663 16.6166C15.4322 16.3366 15.5013 15.8132 15.2213 15.4474C14.9413 15.0832 14.4188 15.0141 14.053 15.2932C12.1213 16.7724 9.52466 17.0757 7.27466 16.0907C5.13466 15.1524 3.60216 13.0324 3.36716 10.6882C3.16716 8.68408 3.8605 6.72074 5.2705 5.30158C6.67883 3.88324 8.63883 3.17324 10.6413 3.36324C14.0205 3.67741 16.6663 6.67491 16.6663 10.1874V10.7499C16.6663 11.1399 16.5113 11.5032 16.2288 11.7732C15.9472 12.0432 15.5738 12.1816 15.1847 12.1649C14.4397 12.1324 13.833 11.4316 13.833 10.6032V6.99991C13.833 6.53908 13.4605 6.16658 12.9997 6.16658C12.5755 6.16658 12.2405 6.48574 12.1872 6.89574C11.4305 6.19574 10.4272 5.75741 9.318 5.75741C6.97883 5.75741 5.0755 7.66158 5.0755 9.99991C5.0755 12.3391 6.97883 14.2424 9.318 14.2424C10.7347 14.2424 11.9838 13.5374 12.7547 12.4674C13.2922 13.2507 14.1447 13.7874 15.1113 13.8299C15.9555 13.8749 16.7672 13.5649 17.3813 12.9774C17.9955 12.3899 18.333 11.5991 18.333 10.7499V10.1874C18.333 5.82324 15.023 2.09741 10.7955 1.70324" fill="#A0A1B4"/>
<mask id="mask0_543_4763" style="mask-type:luminance" maskUnits="userSpaceOnUse" x="1" y="1" width="18" height="18">
<path fill-rule="evenodd" clip-rule="evenodd" d="M9.318 12.5757C7.898 12.5757 6.74216 11.4199 6.74216 9.99991C6.74216 8.57991 7.898 7.42408 9.318 7.42408C10.738 7.42408 11.8938 8.57991 11.8938 9.99991C11.8938 11.4199 10.738 12.5757 9.318 12.5757M10.7955 1.70324C8.29466 1.46824 5.84883 2.35408 4.088 4.12741C2.32633 5.89991 1.45883 8.35241 1.70883 10.8549C2.00716 13.8316 3.883 16.4232 6.6055 17.6174C7.69466 18.0949 8.84966 18.3291 9.99633 18.3291C11.803 18.3291 13.5905 17.7466 15.0663 16.6166C15.4322 16.3366 15.5013 15.8132 15.2213 15.4474C14.9413 15.0832 14.4188 15.0141 14.053 15.2932C12.1213 16.7724 9.52466 17.0757 7.27466 16.0907C5.13466 15.1524 3.60216 13.0324 3.36716 10.6882C3.16716 8.68408 3.8605 6.72074 5.2705 5.30158C6.67883 3.88324 8.63883 3.17324 10.6413 3.36324C14.0205 3.67741 16.6663 6.67491 16.6663 10.1874V10.7499C16.6663 11.1399 16.5113 11.5032 16.2288 11.7732C15.9472 12.0432 15.5738 12.1816 15.1847 12.1649C14.4397 12.1324 13.833 11.4316 13.833 10.6032V6.99991C13.833 6.53908 13.4605 6.16658 12.9997 6.16658C12.5755 6.16658 12.2405 6.48574 12.1872 6.89574C11.4305 6.19574 10.4272 5.75741 9.318 5.75741C6.97883 5.75741 5.0755 7.66158 5.0755 9.99991C5.0755 12.3391 6.97883 14.2424 9.318 14.2424C10.7347 14.2424 11.9838 13.5374 12.7547 12.4674C13.2922 13.2507 14.1447 13.7874 15.1113 13.8299C15.9555 13.8749 16.7672 13.5649 17.3813 12.9774C17.9955 12.3899 18.333 11.5991 18.333 10.7499V10.1874C18.333 5.82324 15.023 2.09741 10.7955 1.70324" fill="white"/>
</mask>
<g mask="url(#mask0_543_4763)">
</g>
</svg>
