<svg width="20" height="20" viewBox="0 0 20 20" fill="none" xmlns="http://www.w3.org/2000/svg">
<path fill-rule="evenodd" clip-rule="evenodd" d="M5.34512 5.83333L6.76762 4.41083C6.92346 4.25583 7.13762 4.16667 7.35679 4.16667H12.6435C12.8626 4.16667 13.0768 4.25583 13.2326 4.41083L14.6551 5.83333H5.34512ZM10.0001 13.3333C8.16179 13.3333 6.66679 11.8383 6.66679 10C6.66679 9.54 7.03929 9.16667 7.50012 9.16667C7.96096 9.16667 8.33346 9.54 8.33346 10C8.33346 10.9192 9.08096 11.6667 10.0001 11.6667C10.9185 11.6667 11.6668 10.9192 11.6668 10C11.6668 9.54 12.0393 9.16667 12.5001 9.16667C12.961 9.16667 13.3335 9.54 13.3335 10C13.3335 11.8383 11.8385 13.3333 10.0001 13.3333V13.3333ZM16.7676 5.58917L14.411 3.2325C13.9393 2.76 13.311 2.5 12.6435 2.5H7.35679C6.68929 2.5 6.06096 2.76 5.58929 3.2325L3.23262 5.58917C2.76012 6.06083 2.50012 6.68917 2.50012 7.3575V15C2.50012 16.3783 3.62179 17.5 5.00012 17.5H15.0001C16.3785 17.5 17.5001 16.3783 17.5001 15V7.3575C17.5001 6.68917 17.2393 6.06083 16.7676 5.58917V5.58917Z" fill="#6EA2FF"/>
<mask id="mask0_12_6578" style="mask-type:luminance" maskUnits="userSpaceOnUse" x="2" y="2" width="16" height="16">
<path fill-rule="evenodd" clip-rule="evenodd" d="M5.34512 5.83333L6.76762 4.41083C6.92346 4.25583 7.13762 4.16667 7.35679 4.16667H12.6435C12.8626 4.16667 13.0768 4.25583 13.2326 4.41083L14.6551 5.83333H5.34512ZM10.0001 13.3333C8.16179 13.3333 6.66679 11.8383 6.66679 10C6.66679 9.54 7.03929 9.16667 7.50012 9.16667C7.96096 9.16667 8.33346 9.54 8.33346 10C8.33346 10.9192 9.08096 11.6667 10.0001 11.6667C10.9185 11.6667 11.6668 10.9192 11.6668 10C11.6668 9.54 12.0393 9.16667 12.5001 9.16667C12.961 9.16667 13.3335 9.54 13.3335 10C13.3335 11.8383 11.8385 13.3333 10.0001 13.3333V13.3333ZM16.7676 5.58917L14.411 3.2325C13.9393 2.76 13.311 2.5 12.6435 2.5H7.35679C6.68929 2.5 6.06096 2.76 5.58929 3.2325L3.23262 5.58917C2.76012 6.06083 2.50012 6.68917 2.50012 7.3575V15C2.50012 16.3783 3.62179 17.5 5.00012 17.5H15.0001C16.3785 17.5 17.5001 16.3783 17.5001 15V7.3575C17.5001 6.68917 17.2393 6.06083 16.7676 5.58917V5.58917Z" fill="white"/>
</mask>
<g mask="url(#mask0_12_6578)">
</g>
</svg>
