<svg width="20" height="20" viewBox="0 0 20 20" fill="none" xmlns="http://www.w3.org/2000/svg">
<path fill-rule="evenodd" clip-rule="evenodd" d="M16.6155 3.42588C16.933 3.34421 17.2589 3.41504 17.5147 3.61338C17.7705 3.81254 17.9164 4.11254 17.9164 4.43504V14.1734C17.9164 14.6492 17.5955 15.0642 17.1347 15.1825L10.833 16.8V4.91171L16.6155 3.42588ZM3.38171 3.42582L9.16671 4.91165V16.8008L2.86504 15.1825C2.40504 15.065 2.08337 14.65 2.08337 14.1733V4.43582C2.08337 4.11249 2.23004 3.81332 2.48504 3.61332C2.74004 3.41582 3.06754 3.34665 3.38171 3.42582Z" fill="#FDD446"/>
<mask id="mask0_12_6581" style="mask-type:luminance" maskUnits="userSpaceOnUse" x="2" y="3" width="16" height="14">
<path fill-rule="evenodd" clip-rule="evenodd" d="M16.6155 3.42588C16.933 3.34421 17.2589 3.41504 17.5147 3.61338C17.7705 3.81254 17.9164 4.11254 17.9164 4.43504V14.1734C17.9164 14.6492 17.5955 15.0642 17.1347 15.1825L10.833 16.8V4.91171L16.6155 3.42588ZM3.38171 3.42582L9.16671 4.91165V16.8008L2.86504 15.1825C2.40504 15.065 2.08337 14.65 2.08337 14.1733V4.43582C2.08337 4.11249 2.23004 3.81332 2.48504 3.61332C2.74004 3.41582 3.06754 3.34665 3.38171 3.42582Z" fill="white"/>
</mask>
<g mask="url(#mask0_12_6581)">
</g>
</svg>
