<svg width="20" height="20" viewBox="0 0 20 20" fill="none" xmlns="http://www.w3.org/2000/svg">
<path fill-rule="evenodd" clip-rule="evenodd" d="M5.00002 17.5C4.85835 17.5 4.71669 17.4642 4.58919 17.3917C4.32835 17.2442 4.16669 16.9667 4.16669 16.6667V4.44417C4.16669 3.3725 4.98919 2.5 6.00002 2.5H14C15.0109 2.5 15.8334 3.3725 15.8334 4.44417V16.6667C15.8334 16.9625 15.6759 17.2375 15.42 17.3867C15.1642 17.5367 14.8484 17.5383 14.59 17.3925L9.86335 14.7192L5.42919 17.3808C5.29669 17.46 5.14835 17.5 5.00002 17.5" fill="#0D0F23"/>
<mask id="mask0_14_13627" style="mask-type:alpha" maskUnits="userSpaceOnUse" x="4" y="2" width="12" height="16">
<path fill-rule="evenodd" clip-rule="evenodd" d="M5.00002 17.5C4.85835 17.5 4.71669 17.4642 4.58919 17.3917C4.32835 17.2442 4.16669 16.9667 4.16669 16.6667V4.44417C4.16669 3.3725 4.98919 2.5 6.00002 2.5H14C15.0109 2.5 15.8334 3.3725 15.8334 4.44417V16.6667C15.8334 16.9625 15.6759 17.2375 15.42 17.3867C15.1642 17.5367 14.8484 17.5383 14.59 17.3925L9.86335 14.7192L5.42919 17.3808C5.29669 17.46 5.14835 17.5 5.00002 17.5" fill="white"/>
</mask>
<g mask="url(#mask0_14_13627)">
</g>
</svg>
