<svg width="20" height="20" viewBox="0 0 20 20" fill="none" xmlns="http://www.w3.org/2000/svg">
<path fill-rule="evenodd" clip-rule="evenodd" d="M5.34506 5.83333L6.76756 4.41083C6.92339 4.25583 7.13756 4.16667 7.35673 4.16667H12.6434C12.8626 4.16667 13.0767 4.25583 13.2326 4.41083L14.6551 5.83333H5.34506ZM10.0001 13.3333C8.16173 13.3333 6.66673 11.8383 6.66673 10C6.66673 9.54 7.03923 9.16667 7.50006 9.16667C7.96089 9.16667 8.33339 9.54 8.33339 10C8.33339 10.9192 9.08089 11.6667 10.0001 11.6667C10.9184 11.6667 11.6667 10.9192 11.6667 10C11.6667 9.54 12.0392 9.16667 12.5001 9.16667C12.9609 9.16667 13.3334 9.54 13.3334 10C13.3334 11.8383 11.8384 13.3333 10.0001 13.3333V13.3333ZM16.7676 5.58917L14.4109 3.2325C13.9392 2.76 13.3109 2.5 12.6434 2.5H7.35673C6.68923 2.5 6.06089 2.76 5.58923 3.2325L3.23256 5.58917C2.76006 6.06083 2.50006 6.68917 2.50006 7.3575V15C2.50006 16.3783 3.62173 17.5 5.00006 17.5H15.0001C16.3784 17.5 17.5001 16.3783 17.5001 15V7.3575C17.5001 6.68917 17.2392 6.06083 16.7676 5.58917V5.58917Z" fill="#A0A1B4"/>
<mask id="mask0_645_5917" style="mask-type:luminance" maskUnits="userSpaceOnUse" x="2" y="2" width="16" height="16">
<path fill-rule="evenodd" clip-rule="evenodd" d="M5.34506 5.83333L6.76756 4.41083C6.92339 4.25583 7.13756 4.16667 7.35673 4.16667H12.6434C12.8626 4.16667 13.0767 4.25583 13.2326 4.41083L14.6551 5.83333H5.34506ZM10.0001 13.3333C8.16173 13.3333 6.66673 11.8383 6.66673 10C6.66673 9.54 7.03923 9.16667 7.50006 9.16667C7.96089 9.16667 8.33339 9.54 8.33339 10C8.33339 10.9192 9.08089 11.6667 10.0001 11.6667C10.9184 11.6667 11.6667 10.9192 11.6667 10C11.6667 9.54 12.0392 9.16667 12.5001 9.16667C12.9609 9.16667 13.3334 9.54 13.3334 10C13.3334 11.8383 11.8384 13.3333 10.0001 13.3333V13.3333ZM16.7676 5.58917L14.4109 3.2325C13.9392 2.76 13.3109 2.5 12.6434 2.5H7.35673C6.68923 2.5 6.06089 2.76 5.58923 3.2325L3.23256 5.58917C2.76006 6.06083 2.50006 6.68917 2.50006 7.3575V15C2.50006 16.3783 3.62173 17.5 5.00006 17.5H15.0001C16.3784 17.5 17.5001 16.3783 17.5001 15V7.3575C17.5001 6.68917 17.2392 6.06083 16.7676 5.58917V5.58917Z" fill="white"/>
</mask>
<g mask="url(#mask0_645_5917)">
</g>
</svg>
