<svg width="20" height="20" viewBox="0 0 20 20" fill="none" xmlns="http://www.w3.org/2000/svg">
<path fill-rule="evenodd" clip-rule="evenodd" d="M7.5 10V10.8333H4.7225C4.41583 10.8333 4.16667 10.5842 4.16667 10.2775V4.7225C4.16667 4.41583 4.41583 4.16667 4.7225 4.16667H10.2775C10.5842 4.16667 10.8333 4.41583 10.8333 4.7225V7.5H10C8.62167 7.5 7.5 8.62167 7.5 10M15 7.5H12.5V4.7225C12.5 3.49667 11.5033 2.5 10.2775 2.5H4.7225C3.49667 2.5 2.5 3.49667 2.5 4.7225V10.2775C2.5 11.5033 3.49667 12.5 4.7225 12.5H7.5V15C7.5 16.3783 8.62167 17.5 10 17.5H15C16.3783 17.5 17.5 16.3783 17.5 15V10C17.5 8.62167 16.3783 7.5 15 7.5" fill="#A0A1B4"/>
<mask id="mask0_543_5902" style="mask-type:luminance" maskUnits="userSpaceOnUse" x="2" y="2" width="16" height="16">
<path fill-rule="evenodd" clip-rule="evenodd" d="M7.5 10V10.8333H4.7225C4.41583 10.8333 4.16667 10.5842 4.16667 10.2775V4.7225C4.16667 4.41583 4.41583 4.16667 4.7225 4.16667H10.2775C10.5842 4.16667 10.8333 4.41583 10.8333 4.7225V7.5H10C8.62167 7.5 7.5 8.62167 7.5 10M15 7.5H12.5V4.7225C12.5 3.49667 11.5033 2.5 10.2775 2.5H4.7225C3.49667 2.5 2.5 3.49667 2.5 4.7225V10.2775C2.5 11.5033 3.49667 12.5 4.7225 12.5H7.5V15C7.5 16.3783 8.62167 17.5 10 17.5H15C16.3783 17.5 17.5 16.3783 17.5 15V10C17.5 8.62167 16.3783 7.5 15 7.5" fill="white"/>
</mask>
<g mask="url(#mask0_543_5902)">
</g>
</svg>
