<svg width="20" height="20" viewBox="0 0 20 20" fill="none" xmlns="http://www.w3.org/2000/svg">
<path fill-rule="evenodd" clip-rule="evenodd" d="M10 18.2092C9.7175 18.2092 9.435 18.1392 9.18417 17.9975L8.93167 17.855C4.96417 15.6233 2.5 11.41 2.5 6.85834V6.73751C2.5 6.13834 2.825 5.58168 3.34833 5.28584L9.18333 2.00418C9.6875 1.72084 10.3133 1.72001 10.8158 2.00334L16.65 5.28501C17.175 5.58168 17.5 6.13834 17.5 6.73751V6.85834C17.5 11.41 15.0358 15.6233 11.0683 17.855L10.8167 17.9967C10.565 18.1383 10.2825 18.2092 10 18.2092" fill="#A0A1B4"/>
<mask id="mask0_645_5814" style="mask-type:luminance" maskUnits="userSpaceOnUse" x="2" y="1" width="16" height="18">
<path fill-rule="evenodd" clip-rule="evenodd" d="M10 18.2092C9.7175 18.2092 9.435 18.1392 9.18417 17.9975L8.93167 17.855C4.96417 15.6233 2.5 11.41 2.5 6.85834V6.73751C2.5 6.13834 2.825 5.58168 3.34833 5.28584L9.18333 2.00418C9.6875 1.72084 10.3133 1.72001 10.8158 2.00334L16.65 5.28501C17.175 5.58168 17.5 6.13834 17.5 6.73751V6.85834C17.5 11.41 15.0358 15.6233 11.0683 17.855L10.8167 17.9967C10.565 18.1383 10.2825 18.2092 10 18.2092" fill="white"/>
</mask>
<g mask="url(#mask0_645_5814)">
</g>
</svg>
