<svg width="20" height="20" viewBox="0 0 20 20" fill="none" xmlns="http://www.w3.org/2000/svg">
<path fill-rule="evenodd" clip-rule="evenodd" d="M16.6667 7.49984H3.33341V6.6665C3.33341 6.20734 3.70675 5.83317 4.16675 5.83317H15.8334C16.2934 5.83317 16.6667 6.20734 16.6667 6.6665V7.49984ZM14.1667 12.4998H12.5001C12.0417 12.4998 11.6667 12.1248 11.6667 11.6665C11.6667 11.2082 12.0417 10.8332 12.5001 10.8332H14.1667C14.6251 10.8332 15.0001 11.2082 15.0001 11.6665C15.0001 12.1248 14.6251 12.4998 14.1667 12.4998V12.4998ZM9.16675 12.4998H5.83341C5.37508 12.4998 5.00008 12.1248 5.00008 11.6665C5.00008 11.2082 5.37508 10.8332 5.83341 10.8332H9.16675C9.62508 10.8332 10.0001 11.2082 10.0001 11.6665C10.0001 12.1248 9.62508 12.4998 9.16675 12.4998V12.4998ZM15.8334 4.1665H4.16675C2.78841 4.1665 1.66675 5.28817 1.66675 6.6665V13.3332C1.66675 14.7115 2.78841 15.8332 4.16675 15.8332H15.8334C17.2117 15.8332 18.3334 14.7115 18.3334 13.3332V6.6665C18.3334 5.28817 17.2117 4.1665 15.8334 4.1665V4.1665Z" fill="#A0A1B4"/>
<mask id="mask0_515_5952" style="mask-type:luminance" maskUnits="userSpaceOnUse" x="1" y="4" width="18" height="12">
<path fill-rule="evenodd" clip-rule="evenodd" d="M16.6667 7.49984H3.33341V6.6665C3.33341 6.20734 3.70675 5.83317 4.16675 5.83317H15.8334C16.2934 5.83317 16.6667 6.20734 16.6667 6.6665V7.49984ZM14.1667 12.4998H12.5001C12.0417 12.4998 11.6667 12.1248 11.6667 11.6665C11.6667 11.2082 12.0417 10.8332 12.5001 10.8332H14.1667C14.6251 10.8332 15.0001 11.2082 15.0001 11.6665C15.0001 12.1248 14.6251 12.4998 14.1667 12.4998V12.4998ZM9.16675 12.4998H5.83341C5.37508 12.4998 5.00008 12.1248 5.00008 11.6665C5.00008 11.2082 5.37508 10.8332 5.83341 10.8332H9.16675C9.62508 10.8332 10.0001 11.2082 10.0001 11.6665C10.0001 12.1248 9.62508 12.4998 9.16675 12.4998V12.4998ZM15.8334 4.1665H4.16675C2.78841 4.1665 1.66675 5.28817 1.66675 6.6665V13.3332C1.66675 14.7115 2.78841 15.8332 4.16675 15.8332H15.8334C17.2117 15.8332 18.3334 14.7115 18.3334 13.3332V6.6665C18.3334 5.28817 17.2117 4.1665 15.8334 4.1665V4.1665Z" fill="white"/>
</mask>
<g mask="url(#mask0_515_5952)">
</g>
</svg>
