<svg width="16" height="16" viewBox="0 0 16 16" fill="none" xmlns="http://www.w3.org/2000/svg">
<path fill-rule="evenodd" clip-rule="evenodd" d="M13.3333 6.00016H2.66668V5.3335C2.66668 4.96616 2.96534 4.66683 3.33334 4.66683H12.6667C13.0347 4.66683 13.3333 4.96616 13.3333 5.3335V6.00016ZM11.3333 10.0002H10C9.63334 10.0002 9.33334 9.70016 9.33334 9.3335C9.33334 8.96683 9.63334 8.66683 10 8.66683H11.3333C11.7 8.66683 12 8.96683 12 9.3335C12 9.70016 11.7 10.0002 11.3333 10.0002V10.0002ZM7.33334 10.0002H4.66668C4.30001 10.0002 4.00001 9.70016 4.00001 9.3335C4.00001 8.96683 4.30001 8.66683 4.66668 8.66683H7.33334C7.70001 8.66683 8.00001 8.96683 8.00001 9.3335C8.00001 9.70016 7.70001 10.0002 7.33334 10.0002V10.0002ZM12.6667 3.3335H3.33334C2.23068 3.3335 1.33334 4.23083 1.33334 5.3335V10.6668C1.33334 11.7695 2.23068 12.6668 3.33334 12.6668H12.6667C13.7693 12.6668 14.6667 11.7695 14.6667 10.6668V5.3335C14.6667 4.23083 13.7693 3.3335 12.6667 3.3335V3.3335Z" fill="#A0A1B4"/>
<mask id="mask0_44_7252" style="mask-type:alpha" maskUnits="userSpaceOnUse" x="1" y="3" width="14" height="10">
<path fill-rule="evenodd" clip-rule="evenodd" d="M13.3333 6.00016H2.66668V5.3335C2.66668 4.96616 2.96534 4.66683 3.33334 4.66683H12.6667C13.0347 4.66683 13.3333 4.96616 13.3333 5.3335V6.00016ZM11.3333 10.0002H10C9.63334 10.0002 9.33334 9.70016 9.33334 9.3335C9.33334 8.96683 9.63334 8.66683 10 8.66683H11.3333C11.7 8.66683 12 8.96683 12 9.3335C12 9.70016 11.7 10.0002 11.3333 10.0002V10.0002ZM7.33334 10.0002H4.66668C4.30001 10.0002 4.00001 9.70016 4.00001 9.3335C4.00001 8.96683 4.30001 8.66683 4.66668 8.66683H7.33334C7.70001 8.66683 8.00001 8.96683 8.00001 9.3335C8.00001 9.70016 7.70001 10.0002 7.33334 10.0002V10.0002ZM12.6667 3.3335H3.33334C2.23068 3.3335 1.33334 4.23083 1.33334 5.3335V10.6668C1.33334 11.7695 2.23068 12.6668 3.33334 12.6668H12.6667C13.7693 12.6668 14.6667 11.7695 14.6667 10.6668V5.3335C14.6667 4.23083 13.7693 3.3335 12.6667 3.3335V3.3335Z" fill="white"/>
</mask>
<g mask="url(#mask0_44_7252)">
</g>
</svg>
