<svg width="16" height="16" viewBox="0 0 16 16" fill="none" xmlns="http://www.w3.org/2000/svg">
<path fill-rule="evenodd" clip-rule="evenodd" d="M8 7.00192L13.6747 4.61659C13.5773 4.51726 13.4673 4.42859 13.334 4.36659L8.534 2.11726C8.19733 1.96059 7.80267 1.96059 7.466 2.11726L2.666 4.36659C2.53267 4.42859 2.42267 4.51726 2.32533 4.61659L8 7.00192ZM7.5 7.88472L2 5.57272V10.7254C1.99667 11.1527 2.25267 11.5447 2.66 11.7374L7.46 13.9861C7.46648 13.9891 7.47331 13.9911 7.48022 13.9932C7.48682 13.9951 7.49349 13.9971 7.5 14.0001V7.88472ZM8.5 13.9981V7.88472L14 5.57272V10.7314C14 11.1574 13.742 11.5474 13.334 11.7374L8.534 13.9861C8.52797 13.9891 8.52151 13.991 8.51498 13.993C8.50997 13.9945 8.50492 13.996 8.5 13.9981Z" fill="#A0A1B4"/>
<mask id="mask0_44_7281" style="mask-type:alpha" maskUnits="userSpaceOnUse" x="2" y="1" width="12" height="13">
<path fill-rule="evenodd" clip-rule="evenodd" d="M8 7.00192L13.6747 4.61659C13.5773 4.51726 13.4673 4.42859 13.334 4.36659L8.534 2.11726C8.19733 1.96059 7.80267 1.96059 7.466 2.11726L2.666 4.36659C2.53267 4.42859 2.42267 4.51726 2.32533 4.61659L8 7.00192ZM7.5 7.88472L2 5.57272V10.7254C1.99667 11.1527 2.25267 11.5447 2.66 11.7374L7.46 13.9861C7.46648 13.9891 7.47331 13.9911 7.48022 13.9932C7.48682 13.9951 7.49349 13.9971 7.5 14.0001V7.88472ZM8.5 13.9981V7.88472L14 5.57272V10.7314C14 11.1574 13.742 11.5474 13.334 11.7374L8.534 13.9861C8.52797 13.9891 8.52151 13.991 8.51498 13.993C8.50997 13.9945 8.50492 13.996 8.5 13.9981Z" fill="white"/>
</mask>
<g mask="url(#mask0_44_7281)">
</g>
</svg>
