<svg width="24" height="12" viewBox="0 0 24 12" fill="none" xmlns="http://www.w3.org/2000/svg">
<path d="M0 12C1.37766e-07 10.4241 0.31039 8.8637 0.913447 7.4078C1.5165 5.95189 2.40042 4.62902 3.51472 3.51472C4.62902 2.40041 5.95189 1.5165 7.4078 0.913442C8.86371 0.310386 10.4241 -2.2094e-06 12 -2.00275e-06C13.5759 -1.7961e-06 15.1363 0.310388 16.5922 0.913445C18.0481 1.5165 19.371 2.40041 20.4853 3.51472C21.5996 4.62902 22.4835 5.95189 23.0866 7.4078C23.6896 8.8637 24 10.4241 24 12L12 12L0 12Z" fill="#F7F7F7"/>
</svg>
