<svg width="20" height="20" viewBox="0 0 20 20" fill="none" xmlns="http://www.w3.org/2000/svg">
<path fill-rule="evenodd" clip-rule="evenodd" d="M14.9712 5.60682L12.7262 3.36182L11.1029 4.98599L13.3487 7.23182L14.9712 5.60682ZM4.24207 14.996C4.21707 14.9985 4.19207 14.9993 4.16707 14.9993C3.94707 14.9993 3.73457 14.9127 3.57707 14.7552C3.4029 14.5802 3.31457 14.3368 3.33623 14.091L3.65207 10.616C3.68707 10.2352 3.8554 9.87516 4.12707 9.60432L11.6237 2.10766C12.2087 1.52016 13.2696 1.54932 13.8871 2.16516L16.1687 4.44682L16.1696 4.44766C16.8071 5.08599 16.8329 6.10099 16.2262 6.70932L8.72873 14.2068C8.4579 14.4777 8.09873 14.646 7.71706 14.681L4.24207 14.996ZM4.16665 16.6662H15.8333C16.2916 16.6662 16.6666 17.0412 16.6666 17.4996C16.6666 17.9579 16.2916 18.3329 15.8333 18.3329H4.16665C3.70832 18.3329 3.33332 17.9579 3.33332 17.4996C3.33332 17.0412 3.70832 16.6662 4.16665 16.6662Z" fill="#0D0F23"/>
<mask id="mask0_625_4368" style="mask-type:luminance" maskUnits="userSpaceOnUse" x="3" y="1" width="14" height="18">
<path fill-rule="evenodd" clip-rule="evenodd" d="M14.9712 5.60682L12.7262 3.36182L11.1029 4.98599L13.3487 7.23182L14.9712 5.60682ZM4.24207 14.996C4.21707 14.9985 4.19207 14.9993 4.16707 14.9993C3.94707 14.9993 3.73457 14.9127 3.57707 14.7552C3.4029 14.5802 3.31457 14.3368 3.33623 14.091L3.65207 10.616C3.68707 10.2352 3.8554 9.87516 4.12707 9.60432L11.6237 2.10766C12.2087 1.52016 13.2696 1.54932 13.8871 2.16516L16.1687 4.44682L16.1696 4.44766C16.8071 5.08599 16.8329 6.10099 16.2262 6.70932L8.72873 14.2068C8.4579 14.4777 8.09873 14.646 7.71706 14.681L4.24207 14.996ZM4.16665 16.6662H15.8333C16.2916 16.6662 16.6666 17.0412 16.6666 17.4996C16.6666 17.9579 16.2916 18.3329 15.8333 18.3329H4.16665C3.70832 18.3329 3.33332 17.9579 3.33332 17.4996C3.33332 17.0412 3.70832 16.6662 4.16665 16.6662Z" fill="white"/>
</mask>
<g mask="url(#mask0_625_4368)">
</g>
</svg>
