<svg width="20" height="20" viewBox="0 0 20 20" fill="none" xmlns="http://www.w3.org/2000/svg">
<path fill-rule="evenodd" clip-rule="evenodd" d="M15.8387 4.99967L10.4178 8.72301C10.162 8.86884 9.84866 8.86884 9.59283 8.72301L4.172 4.99967H15.8387ZM15.8387 3.33301H4.172C2.79366 3.33301 1.672 4.45467 1.672 5.83301V14.1663C1.672 15.5447 2.79366 16.6663 4.172 16.6663H15.8387C17.217 16.6663 18.3387 15.5447 18.3387 14.1663V5.83301C18.3387 4.45467 17.217 3.33301 15.8387 3.33301V3.33301Z" fill="#F6565D"/>
<mask id="mask0_14_8184" style="mask-type:luminance" maskUnits="userSpaceOnUse" x="1" y="3" width="18" height="14">
<path fill-rule="evenodd" clip-rule="evenodd" d="M15.8387 4.99967L10.4178 8.72301C10.162 8.86884 9.84866 8.86884 9.59283 8.72301L4.172 4.99967H15.8387ZM15.8387 3.33301H4.172C2.79366 3.33301 1.672 4.45467 1.672 5.83301V14.1663C1.672 15.5447 2.79366 16.6663 4.172 16.6663H15.8387C17.217 16.6663 18.3387 15.5447 18.3387 14.1663V5.83301C18.3387 4.45467 17.217 3.33301 15.8387 3.33301V3.33301Z" fill="white"/>
</mask>
<g mask="url(#mask0_14_8184)">
</g>
</svg>
