<svg width="24" height="24" viewBox="0 0 24 24" fill="none" xmlns="http://www.w3.org/2000/svg">
<path fill-rule="evenodd" clip-rule="evenodd" d="M4.96188 15.7999C5.59788 15.9609 6.28688 16.0729 6.98788 16.0729C8.06788 16.0729 9.17088 15.8099 10.1249 15.0629C11.8409 13.7209 11.8409 12.0039 11.8409 10.6239C11.8409 9.73288 11.8409 8.96288 12.2129 8.27988C12.4129 7.91388 12.8389 7.65988 13.3319 7.36488C13.6339 7.18488 13.9459 6.99788 14.2469 6.76288C14.8899 6.25988 15.3679 5.61188 15.6639 4.89688C17.0639 5.62088 18.2239 6.74388 18.9889 8.11888C17.5619 8.31788 15.5339 8.78488 15.1259 10.6529C15.0179 11.1469 15.0009 11.6119 14.9869 12.0229C14.9669 12.6059 14.9499 13.0669 14.6999 13.4879L14.6009 13.6559C13.9539 14.7389 13.2219 15.9679 14.2089 17.6849C14.3279 17.8929 14.4609 18.0929 14.5919 18.2909C14.9359 18.8079 15.1049 19.0929 15.1059 19.3719C14.1499 19.7769 13.1009 19.9999 11.9999 19.9999C8.96288 19.9999 6.31588 18.2989 4.96188 15.7999M11.9999 1.99988C6.48588 1.99988 1.99988 6.48688 1.99988 11.9999C1.99988 17.5139 6.48588 21.9999 11.9999 21.9999C17.5139 21.9999 21.9999 17.5139 21.9999 11.9999C21.9999 6.48688 17.5139 1.99988 11.9999 1.99988" fill="#4E55AF"/>
<mask id="mask0_1_1761" style="mask-type:luminance" maskUnits="userSpaceOnUse" x="1" y="1" width="21" height="21">
<path fill-rule="evenodd" clip-rule="evenodd" d="M4.96188 15.7999C5.59788 15.9609 6.28688 16.0729 6.98788 16.0729C8.06788 16.0729 9.17088 15.8099 10.1249 15.0629C11.8409 13.7209 11.8409 12.0039 11.8409 10.6239C11.8409 9.73288 11.8409 8.96288 12.2129 8.27988C12.4129 7.91388 12.8389 7.65988 13.3319 7.36488C13.6339 7.18488 13.9459 6.99788 14.2469 6.76288C14.8899 6.25988 15.3679 5.61188 15.6639 4.89688C17.0639 5.62088 18.2239 6.74388 18.9889 8.11888C17.5619 8.31788 15.5339 8.78488 15.1259 10.6529C15.0179 11.1469 15.0009 11.6119 14.9869 12.0229C14.9669 12.6059 14.9499 13.0669 14.6999 13.4879L14.6009 13.6559C13.9539 14.7389 13.2219 15.9679 14.2089 17.6849C14.3279 17.8929 14.4609 18.0929 14.5919 18.2909C14.9359 18.8079 15.1049 19.0929 15.1059 19.3719C14.1499 19.7769 13.1009 19.9999 11.9999 19.9999C8.96288 19.9999 6.31588 18.2989 4.96188 15.7999M11.9999 1.99988C6.48588 1.99988 1.99988 6.48688 1.99988 11.9999C1.99988 17.5139 6.48588 21.9999 11.9999 21.9999C17.5139 21.9999 21.9999 17.5139 21.9999 11.9999C21.9999 6.48688 17.5139 1.99988 11.9999 1.99988" fill="white"/>
</mask>
<g mask="url(#mask0_1_1761)">
</g>
</svg>
