<svg width="24" height="24" viewBox="0 0 24 24" fill="none" xmlns="http://www.w3.org/2000/svg">
<path fill-rule="evenodd" clip-rule="evenodd" d="M17.4951 13.981C16.8291 16.123 15.1691 17.606 12.9601 17.933C9.58909 18.432 6.27909 15.876 6.01709 12.476C5.74509 8.94798 8.52809 6.00098 12.0011 6.00098C12.8041 6.00098 13.5701 6.15898 14.2701 6.44498C14.5131 6.54398 14.7881 6.45898 14.9121 6.22898L16.3471 3.58198C16.4831 3.32898 16.3851 3.00298 16.1231 2.88498C14.8661 2.31698 13.4721 2.00098 12.0041 2.00098C6.38209 2.00098 1.84309 6.63698 2.00409 12.294C2.15109 17.455 6.41109 21.773 11.5681 21.992C17.1141 22.226 21.7141 17.946 21.9931 12.523C22.0041 12.325 22.0001 11.172 21.9961 10.496C21.9951 10.22 21.7711 10.001 21.4961 10.001H12.4971C12.2211 10.001 11.9971 10.224 11.9971 10.501V13.481C11.9971 13.756 12.2211 13.981 12.4971 13.981H17.4951Z" fill="#4E55AF"/>
<mask id="mask0_14_7034" style="mask-type:luminance" maskUnits="userSpaceOnUse" x="2" y="2" width="21" height="21">
<path fill-rule="evenodd" clip-rule="evenodd" d="M17.4951 13.981C16.8291 16.123 15.1691 17.606 12.9601 17.933C9.58909 18.432 6.27909 15.876 6.01709 12.476C5.74509 8.94798 8.52809 6.00098 12.0011 6.00098C12.8041 6.00098 13.5701 6.15898 14.2701 6.44498C14.5131 6.54398 14.7881 6.45898 14.9121 6.22898L16.3471 3.58198C16.4831 3.32898 16.3851 3.00298 16.1231 2.88498C14.8661 2.31698 13.4721 2.00098 12.0041 2.00098C6.38209 2.00098 1.84309 6.63698 2.00409 12.294C2.15109 17.455 6.41109 21.773 11.5681 21.992C17.1141 22.226 21.7141 17.946 21.9931 12.523C22.0041 12.325 22.0001 11.172 21.9961 10.496C21.9951 10.22 21.7711 10.001 21.4961 10.001H12.4971C12.2211 10.001 11.9971 10.224 11.9971 10.501V13.481C11.9971 13.756 12.2211 13.981 12.4971 13.981H17.4951Z" fill="white"/>
</mask>
<g mask="url(#mask0_14_7034)">
</g>
</svg>
