<svg width="16" height="16" viewBox="0 0 16 16" fill="none" xmlns="http://www.w3.org/2000/svg">
<path fill-rule="evenodd" clip-rule="evenodd" d="M13.3334 6.00016H2.66671V5.3335C2.66671 4.96616 2.96537 4.66683 3.33337 4.66683H12.6667C13.0347 4.66683 13.3334 4.96616 13.3334 5.3335V6.00016ZM11.3334 10.0002H10C9.63337 10.0002 9.33337 9.70016 9.33337 9.3335C9.33337 8.96683 9.63337 8.66683 10 8.66683H11.3334C11.7 8.66683 12 8.96683 12 9.3335C12 9.70016 11.7 10.0002 11.3334 10.0002V10.0002ZM7.33337 10.0002H4.66671C4.30004 10.0002 4.00004 9.70016 4.00004 9.3335C4.00004 8.96683 4.30004 8.66683 4.66671 8.66683H7.33337C7.70004 8.66683 8.00004 8.96683 8.00004 9.3335C8.00004 9.70016 7.70004 10.0002 7.33337 10.0002V10.0002ZM12.6667 3.3335H3.33337C2.23071 3.3335 1.33337 4.23083 1.33337 5.3335V10.6668C1.33337 11.7695 2.23071 12.6668 3.33337 12.6668H12.6667C13.7694 12.6668 14.6667 11.7695 14.6667 10.6668V5.3335C14.6667 4.23083 13.7694 3.3335 12.6667 3.3335V3.3335Z" fill="#A0A1B4"/>
<mask id="mask0_472_6476" style="mask-type:alpha" maskUnits="userSpaceOnUse" x="1" y="3" width="14" height="10">
<path fill-rule="evenodd" clip-rule="evenodd" d="M13.3334 6.00016H2.66671V5.3335C2.66671 4.96616 2.96537 4.66683 3.33337 4.66683H12.6667C13.0347 4.66683 13.3334 4.96616 13.3334 5.3335V6.00016ZM11.3334 10.0002H10C9.63337 10.0002 9.33337 9.70016 9.33337 9.3335C9.33337 8.96683 9.63337 8.66683 10 8.66683H11.3334C11.7 8.66683 12 8.96683 12 9.3335C12 9.70016 11.7 10.0002 11.3334 10.0002V10.0002ZM7.33337 10.0002H4.66671C4.30004 10.0002 4.00004 9.70016 4.00004 9.3335C4.00004 8.96683 4.30004 8.66683 4.66671 8.66683H7.33337C7.70004 8.66683 8.00004 8.96683 8.00004 9.3335C8.00004 9.70016 7.70004 10.0002 7.33337 10.0002V10.0002ZM12.6667 3.3335H3.33337C2.23071 3.3335 1.33337 4.23083 1.33337 5.3335V10.6668C1.33337 11.7695 2.23071 12.6668 3.33337 12.6668H12.6667C13.7694 12.6668 14.6667 11.7695 14.6667 10.6668V5.3335C14.6667 4.23083 13.7694 3.3335 12.6667 3.3335V3.3335Z" fill="white"/>
</mask>
<g mask="url(#mask0_472_6476)">
</g>
</svg>
