<svg width="16" height="16" viewBox="0 0 16 16" fill="none" xmlns="http://www.w3.org/2000/svg">
<path fill-rule="evenodd" clip-rule="evenodd" d="M12.6529 12C12.6529 12.368 12.3542 12.6667 11.9862 12.6667C11.6182 12.6667 11.3196 12.368 11.3196 12C11.3196 11.632 11.6182 11.3333 11.9862 11.3333C12.3542 11.3333 12.6529 11.632 12.6529 12V12ZM4.65291 12C4.65291 12.368 4.35425 12.6667 3.98625 12.6667C3.61825 12.6667 3.31958 12.368 3.31958 12C3.31958 11.632 3.61825 11.3333 3.98625 11.3333C4.35425 11.3333 4.65291 11.632 4.65291 12V12ZM13.3196 8.32V10H11.3196V6.72067L13.3196 8.32ZM14.4029 7.47933L11.3196 5.01267V3.33333C11.3196 2.598 10.7776 2 10.1109 2H2.52758C1.86158 2 1.31958 2.598 1.31958 3.33333V10C1.31958 10.582 1.66158 11.0727 2.13358 11.2547C2.04025 11.4853 1.98625 11.736 1.98625 12C1.98625 13.1027 2.88358 14 3.98625 14C5.08891 14 5.98625 13.1027 5.98625 12C5.98625 11.7647 5.93825 11.5427 5.86291 11.3333H7.98625H10.1096C10.0342 11.5427 9.98625 11.7647 9.98625 12C9.98625 13.1027 10.8836 14 11.9862 14C13.0889 14 13.9862 13.1027 13.9862 12C13.9862 11.7647 13.9382 11.5427 13.8629 11.3333H13.9862C14.3549 11.3333 14.6529 11.0353 14.6529 10.6667V8C14.6529 7.79733 14.5609 7.606 14.4029 7.47933V7.47933Z" fill="#A0A1B4"/>
<mask id="mask0_475_6475" style="mask-type:alpha" maskUnits="userSpaceOnUse" x="1" y="2" width="14" height="12">
<path fill-rule="evenodd" clip-rule="evenodd" d="M12.6529 12C12.6529 12.368 12.3542 12.6667 11.9862 12.6667C11.6182 12.6667 11.3196 12.368 11.3196 12C11.3196 11.632 11.6182 11.3333 11.9862 11.3333C12.3542 11.3333 12.6529 11.632 12.6529 12V12ZM4.65291 12C4.65291 12.368 4.35425 12.6667 3.98625 12.6667C3.61825 12.6667 3.31958 12.368 3.31958 12C3.31958 11.632 3.61825 11.3333 3.98625 11.3333C4.35425 11.3333 4.65291 11.632 4.65291 12V12ZM13.3196 8.32V10H11.3196V6.72067L13.3196 8.32ZM14.4029 7.47933L11.3196 5.01267V3.33333C11.3196 2.598 10.7776 2 10.1109 2H2.52758C1.86158 2 1.31958 2.598 1.31958 3.33333V10C1.31958 10.582 1.66158 11.0727 2.13358 11.2547C2.04025 11.4853 1.98625 11.736 1.98625 12C1.98625 13.1027 2.88358 14 3.98625 14C5.08891 14 5.98625 13.1027 5.98625 12C5.98625 11.7647 5.93825 11.5427 5.86291 11.3333H7.98625H10.1096C10.0342 11.5427 9.98625 11.7647 9.98625 12C9.98625 13.1027 10.8836 14 11.9862 14C13.0889 14 13.9862 13.1027 13.9862 12C13.9862 11.7647 13.9382 11.5427 13.8629 11.3333H13.9862C14.3549 11.3333 14.6529 11.0353 14.6529 10.6667V8C14.6529 7.79733 14.5609 7.606 14.4029 7.47933V7.47933Z" fill="white"/>
</mask>
<g mask="url(#mask0_475_6475)">
</g>
</svg>
