<svg width="16" height="16" viewBox="0 0 16 16" fill="none" xmlns="http://www.w3.org/2000/svg">
<path fill-rule="evenodd" clip-rule="evenodd" d="M7.70704 7.70715C7.31637 8.09782 6.68371 8.09782 6.29304 7.70715C5.90237 7.31648 5.90237 6.68315 6.29304 6.29315C6.68371 5.90248 7.31637 5.90248 7.70704 6.29315C8.09771 6.68315 8.09771 7.31648 7.70704 7.70715M14.3117 7.72115L10.0337 3.44315C9.92371 3.33315 9.77904 3.26515 9.62437 3.25115L3.39504 2.66982C3.19704 2.64982 3.00237 2.72115 2.86171 2.86182C2.72104 3.00248 2.65104 3.19782 2.66904 3.39515L3.25037 9.62449C3.26571 9.77915 3.33304 9.92448 3.44304 10.0338L7.72104 14.3125C7.95771 14.5478 8.26771 14.6658 8.57771 14.6658C8.88771 14.6658 9.19771 14.5478 9.43437 14.3118L14.3117 9.43448C14.5404 9.20648 14.6664 8.90182 14.6664 8.57782C14.6664 8.25382 14.5404 7.94982 14.3117 7.72115" fill="#A0A1B4"/>
<mask id="mask0_475_6477" style="mask-type:alpha" maskUnits="userSpaceOnUse" x="2" y="2" width="13" height="13">
<path fill-rule="evenodd" clip-rule="evenodd" d="M7.70704 7.70715C7.31637 8.09782 6.68371 8.09782 6.29304 7.70715C5.90237 7.31648 5.90237 6.68315 6.29304 6.29315C6.68371 5.90248 7.31637 5.90248 7.70704 6.29315C8.09771 6.68315 8.09771 7.31648 7.70704 7.70715M14.3117 7.72115L10.0337 3.44315C9.92371 3.33315 9.77904 3.26515 9.62437 3.25115L3.39504 2.66982C3.19704 2.64982 3.00237 2.72115 2.86171 2.86182C2.72104 3.00248 2.65104 3.19782 2.66904 3.39515L3.25037 9.62449C3.26571 9.77915 3.33304 9.92448 3.44304 10.0338L7.72104 14.3125C7.95771 14.5478 8.26771 14.6658 8.57771 14.6658C8.88771 14.6658 9.19771 14.5478 9.43437 14.3118L14.3117 9.43448C14.5404 9.20648 14.6664 8.90182 14.6664 8.57782C14.6664 8.25382 14.5404 7.94982 14.3117 7.72115" fill="white"/>
</mask>
<g mask="url(#mask0_475_6477)">
</g>
</svg>
