<svg width="16" height="16" viewBox="0 0 16 16" fill="none" xmlns="http://www.w3.org/2000/svg">
<path fill-rule="evenodd" clip-rule="evenodd" d="M5.33333 5.3335H10.6667C11.0347 5.3335 11.3333 5.0355 11.3333 4.66683V2.00016C11.3333 1.6315 11.0347 1.3335 10.6667 1.3335H5.33333C4.96533 1.3335 4.66667 1.6315 4.66667 2.00016V4.66683C4.66667 5.0355 4.96533 5.3335 5.33333 5.3335ZM12 4.66683V2.66683C13.1027 2.66683 14 3.56416 14 4.66683V12.6668C14 13.7695 13.1027 14.6668 12 14.6668H4C2.89733 14.6668 2 13.7695 2 12.6668V4.66683C2 3.56416 2.89733 2.66683 4 2.66683V4.66683C4 5.40216 4.598 6.00016 5.33333 6.00016H10.6667C11.402 6.00016 12 5.40216 12 4.66683Z" fill="#A0A1B4"/>
<mask id="mask0_475_6476" style="mask-type:alpha" maskUnits="userSpaceOnUse" x="2" y="1" width="12" height="14">
<path fill-rule="evenodd" clip-rule="evenodd" d="M5.33333 5.3335H10.6667C11.0347 5.3335 11.3333 5.0355 11.3333 4.66683V2.00016C11.3333 1.6315 11.0347 1.3335 10.6667 1.3335H5.33333C4.96533 1.3335 4.66667 1.6315 4.66667 2.00016V4.66683C4.66667 5.0355 4.96533 5.3335 5.33333 5.3335ZM12 4.66683V2.66683C13.1027 2.66683 14 3.56416 14 4.66683V12.6668C14 13.7695 13.1027 14.6668 12 14.6668H4C2.89733 14.6668 2 13.7695 2 12.6668V4.66683C2 3.56416 2.89733 2.66683 4 2.66683V4.66683C4 5.40216 4.598 6.00016 5.33333 6.00016H10.6667C11.402 6.00016 12 5.40216 12 4.66683Z" fill="white"/>
</mask>
<g mask="url(#mask0_475_6476)">
</g>
</svg>
