<svg width="16" height="16" viewBox="0 0 16 16" fill="none" xmlns="http://www.w3.org/2000/svg">
<path fill-rule="evenodd" clip-rule="evenodd" d="M5.56121 3.702C5.67388 3.476 5.90521 3.33333 6.15788 3.33333H9.84254C10.0952 3.33333 10.3259 3.476 10.4385 3.702L12.2545 7.33333H10.6665C10.2985 7.33333 9.99988 7.632 9.99988 8V9.33333C9.99988 9.702 9.70121 10 9.33321 10H6.66654C6.29854 10 5.99988 9.702 5.99988 9.33333V8C5.99988 7.632 5.70121 7.33333 5.33321 7.33333H3.74521L5.56121 3.702ZM13.8592 7.56133L11.6312 3.10533C11.2905 2.424 10.6052 2 9.84254 2H6.15721C5.39454 2 4.70988 2.424 4.36854 3.10533L2.14054 7.56133C2.04854 7.74533 1.99988 7.952 1.99988 8.158V12C1.99988 13.1033 2.89721 14 3.99988 14H11.9999C13.1032 14 13.9999 13.1033 13.9999 12V8.158C13.9999 7.952 13.9512 7.74533 13.8592 7.56133V7.56133Z" fill="#A0A1B4"/>
<mask id="mask0_44_7300" style="mask-type:alpha" maskUnits="userSpaceOnUse" x="1" y="2" width="13" height="12">
<path fill-rule="evenodd" clip-rule="evenodd" d="M5.56121 3.702C5.67388 3.476 5.90521 3.33333 6.15788 3.33333H9.84254C10.0952 3.33333 10.3259 3.476 10.4385 3.702L12.2545 7.33333H10.6665C10.2985 7.33333 9.99988 7.632 9.99988 8V9.33333C9.99988 9.702 9.70121 10 9.33321 10H6.66654C6.29854 10 5.99988 9.702 5.99988 9.33333V8C5.99988 7.632 5.70121 7.33333 5.33321 7.33333H3.74521L5.56121 3.702ZM13.8592 7.56133L11.6312 3.10533C11.2905 2.424 10.6052 2 9.84254 2H6.15721C5.39454 2 4.70988 2.424 4.36854 3.10533L2.14054 7.56133C2.04854 7.74533 1.99988 7.952 1.99988 8.158V12C1.99988 13.1033 2.89721 14 3.99988 14H11.9999C13.1032 14 13.9999 13.1033 13.9999 12V8.158C13.9999 7.952 13.9512 7.74533 13.8592 7.56133V7.56133Z" fill="white"/>
</mask>
<g mask="url(#mask0_44_7300)">
</g>
</svg>
