<svg width="16" height="16" viewBox="0 0 16 16" fill="none" xmlns="http://www.w3.org/2000/svg">
<path fill-rule="evenodd" clip-rule="evenodd" d="M11.8403 10.3602L8.00026 12.5648L4.16026 10.3602L5.28959 9.8795L7.66826 11.2448C7.77093 11.3042 7.88559 11.3335 8.00026 11.3335C8.11493 11.3335 8.22893 11.3042 8.33226 11.2448L10.7109 9.87883L11.8403 10.3602ZM7.66826 8.57817C7.77093 8.6375 7.88559 8.66683 8.00026 8.66683C8.11493 8.66683 8.22893 8.6375 8.33226 8.57817L10.7109 7.21217L11.8403 7.6935L8.00026 9.89817L4.16026 7.6935L5.28959 7.21217L7.66826 8.57817ZM8.00026 3.3915L11.8403 5.02683L8.00026 7.2315L4.16026 5.02683L8.00026 3.3915ZM13.9989 7.5655C13.9836 7.31283 13.8269 7.09083 13.5943 6.9915L12.1596 6.38083L13.6656 5.51617C13.8849 5.39083 14.0136 5.1515 13.9989 4.89883C13.9836 4.64683 13.8269 4.42417 13.5943 4.32483L8.26093 2.0535C8.09426 1.98217 7.90559 1.98217 7.73893 2.0535L2.40559 4.32483C2.17293 4.42417 2.01626 4.64683 2.00159 4.89883C1.98626 5.1515 2.11559 5.39083 2.33493 5.51617L3.84026 6.38083L2.40559 6.9915C2.17293 7.09083 2.01626 7.31283 2.00159 7.5655C1.98626 7.81817 2.11559 8.0575 2.33493 8.18283L3.84026 9.0475L2.40559 9.65817C2.17293 9.7575 2.01626 9.9795 2.00159 10.2322C1.98626 10.4848 2.11559 10.7242 2.33493 10.8495L7.66826 13.9115C7.77093 13.9708 7.88559 14.0002 8.00026 14.0002C8.11493 14.0002 8.22893 13.9708 8.33226 13.9115L13.6656 10.8495C13.8849 10.7242 14.0136 10.4848 13.9989 10.2322C13.9836 9.98017 13.8269 9.7575 13.5949 9.65817L12.1603 9.04683L13.6656 8.18283C13.8849 8.0575 14.0136 7.81817 13.9989 7.5655V7.5655Z" fill="#0D0F23"/>
<mask id="mask0_12_6561" style="mask-type:luminance" maskUnits="userSpaceOnUse" x="2" y="2" width="12" height="12">
<path fill-rule="evenodd" clip-rule="evenodd" d="M11.8403 10.3602L8.00026 12.5648L4.16026 10.3602L5.28959 9.8795L7.66826 11.2448C7.77093 11.3042 7.88559 11.3335 8.00026 11.3335C8.11493 11.3335 8.22893 11.3042 8.33226 11.2448L10.7109 9.87883L11.8403 10.3602ZM7.66826 8.57817C7.77093 8.6375 7.88559 8.66683 8.00026 8.66683C8.11493 8.66683 8.22893 8.6375 8.33226 8.57817L10.7109 7.21217L11.8403 7.6935L8.00026 9.89817L4.16026 7.6935L5.28959 7.21217L7.66826 8.57817ZM8.00026 3.3915L11.8403 5.02683L8.00026 7.2315L4.16026 5.02683L8.00026 3.3915ZM13.9989 7.5655C13.9836 7.31283 13.8269 7.09083 13.5943 6.9915L12.1596 6.38083L13.6656 5.51617C13.8849 5.39083 14.0136 5.1515 13.9989 4.89883C13.9836 4.64683 13.8269 4.42417 13.5943 4.32483L8.26093 2.0535C8.09426 1.98217 7.90559 1.98217 7.73893 2.0535L2.40559 4.32483C2.17293 4.42417 2.01626 4.64683 2.00159 4.89883C1.98626 5.1515 2.11559 5.39083 2.33493 5.51617L3.84026 6.38083L2.40559 6.9915C2.17293 7.09083 2.01626 7.31283 2.00159 7.5655C1.98626 7.81817 2.11559 8.0575 2.33493 8.18283L3.84026 9.0475L2.40559 9.65817C2.17293 9.7575 2.01626 9.9795 2.00159 10.2322C1.98626 10.4848 2.11559 10.7242 2.33493 10.8495L7.66826 13.9115C7.77093 13.9708 7.88559 14.0002 8.00026 14.0002C8.11493 14.0002 8.22893 13.9708 8.33226 13.9115L13.6656 10.8495C13.8849 10.7242 14.0136 10.4848 13.9989 10.2322C13.9836 9.98017 13.8269 9.7575 13.5949 9.65817L12.1603 9.04683L13.6656 8.18283C13.8849 8.0575 14.0136 7.81817 13.9989 7.5655V7.5655Z" fill="white"/>
</mask>
<g mask="url(#mask0_12_6561)">
</g>
</svg>
