<svg width="16" height="16" viewBox="0 0 16 16" fill="none" xmlns="http://www.w3.org/2000/svg">
<path fill-rule="evenodd" clip-rule="evenodd" d="M8.02001 1.33327C9.52668 1.33993 10.9667 1.93993 12.02 2.99327C13.08 4.05327 13.6733 5.4866 13.6667 6.97327V7.0066C13.6267 9.0266 12.4933 10.8866 11.08 12.3399C10.28 13.1599 9.39334 13.8866 8.42668 14.4999C8.16668 14.7199 7.78668 14.7199 7.52668 14.4999C6.09334 13.5666 4.82668 12.3933 3.80001 11.0266C2.90001 9.83993 2.38668 8.41327 2.33334 6.9266C2.34668 3.8266 4.89334 1.3266 8.02001 1.33327ZM8.02001 8.83993C8.49334 8.83993 8.94668 8.65993 9.28001 8.33326C9.62668 7.99326 9.82068 7.54059 9.82068 7.06659C9.82068 6.07993 9.01334 5.28659 8.02001 5.28659C7.02668 5.28659 6.22668 6.07993 6.22668 7.06659C6.22668 8.04059 7.01334 8.82659 8.00001 8.83993H8.02001Z" fill="#A0A1B4"/>
</svg>
