<svg width="20" height="20" viewBox="0 0 20 20" fill="none" xmlns="http://www.w3.org/2000/svg">
<path fill-rule="evenodd" clip-rule="evenodd" d="M13.333 10.833C12.873 10.833 12.4997 10.4596 12.4997 9.99963C12.4997 9.53963 12.873 9.1663 13.333 9.1663C13.793 9.1663 14.1664 9.53963 14.1664 9.99963C14.1664 10.4596 13.793 10.833 13.333 10.833M9.99969 10.833C9.53969 10.833 9.16636 10.4596 9.16636 9.99963C9.16636 9.53963 9.53969 9.1663 9.99969 9.1663C10.4597 9.1663 10.833 9.53963 10.833 9.99963C10.833 10.4596 10.4597 10.833 9.99969 10.833M6.66636 10.833C6.20636 10.833 5.83303 10.4596 5.83303 9.99963C5.83303 9.53963 6.20636 9.1663 6.66636 9.1663C7.12636 9.1663 7.49969 9.53963 7.49969 9.99963C7.49969 10.4596 7.12636 10.833 6.66636 10.833M15.8922 4.10714C13.9889 2.2038 11.3547 1.35463 8.66386 1.77047C5.26636 2.30047 2.44969 5.03714 1.81386 8.4263C1.50803 10.058 1.68386 11.7196 2.32303 13.2305C2.40469 13.4221 2.42969 13.6021 2.39719 13.763L1.68303 17.3363C1.62803 17.6096 1.71386 17.8921 1.91053 18.0888C2.06803 18.2463 2.28053 18.333 2.49969 18.333C2.55386 18.333 2.60886 18.328 2.66303 18.3163L6.23219 17.603C6.43719 17.5638 6.63636 17.6213 6.76886 17.6763C8.28053 18.3155 9.94219 18.4905 11.573 18.1855C14.9622 17.5496 17.6989 14.733 18.2289 11.3355C18.648 8.64547 17.7964 6.0113 15.8922 4.10714" fill="#FDD446"/>
<mask id="mask0_14_8178" style="mask-type:luminance" maskUnits="userSpaceOnUse" x="1" y="1" width="18" height="18">
<path fill-rule="evenodd" clip-rule="evenodd" d="M13.333 10.833C12.873 10.833 12.4997 10.4596 12.4997 9.99963C12.4997 9.53963 12.873 9.1663 13.333 9.1663C13.793 9.1663 14.1664 9.53963 14.1664 9.99963C14.1664 10.4596 13.793 10.833 13.333 10.833M9.99969 10.833C9.53969 10.833 9.16636 10.4596 9.16636 9.99963C9.16636 9.53963 9.53969 9.1663 9.99969 9.1663C10.4597 9.1663 10.833 9.53963 10.833 9.99963C10.833 10.4596 10.4597 10.833 9.99969 10.833M6.66636 10.833C6.20636 10.833 5.83303 10.4596 5.83303 9.99963C5.83303 9.53963 6.20636 9.1663 6.66636 9.1663C7.12636 9.1663 7.49969 9.53963 7.49969 9.99963C7.49969 10.4596 7.12636 10.833 6.66636 10.833M15.8922 4.10714C13.9889 2.2038 11.3547 1.35463 8.66386 1.77047C5.26636 2.30047 2.44969 5.03714 1.81386 8.4263C1.50803 10.058 1.68386 11.7196 2.32303 13.2305C2.40469 13.4221 2.42969 13.6021 2.39719 13.763L1.68303 17.3363C1.62803 17.6096 1.71386 17.8921 1.91053 18.0888C2.06803 18.2463 2.28053 18.333 2.49969 18.333C2.55386 18.333 2.60886 18.328 2.66303 18.3163L6.23219 17.603C6.43719 17.5638 6.63636 17.6213 6.76886 17.6763C8.28053 18.3155 9.94219 18.4905 11.573 18.1855C14.9622 17.5496 17.6989 14.733 18.2289 11.3355C18.648 8.64547 17.7964 6.0113 15.8922 4.10714" fill="white"/>
</mask>
<g mask="url(#mask0_14_8178)">
</g>
</svg>
