<svg width="16" height="16" viewBox="0 0 16 16" fill="none" xmlns="http://www.w3.org/2000/svg">
<path fill-rule="evenodd" clip-rule="evenodd" d="M12.6666 8.66659H3.33329C2.96529 8.66659 2.66663 8.36859 2.66663 7.99992C2.66663 7.63125 2.96529 7.33325 3.33329 7.33325H12.6666C13.0353 7.33325 13.3333 7.63125 13.3333 7.99992C13.3333 8.36859 13.0353 8.66659 12.6666 8.66659" fill="#0D0F23"/>
<mask id="mask0_461_1317" style="mask-type:alpha" maskUnits="userSpaceOnUse" x="2" y="7" width="12" height="2">
<path fill-rule="evenodd" clip-rule="evenodd" d="M12.6666 8.66659H3.33329C2.96529 8.66659 2.66663 8.36859 2.66663 7.99992C2.66663 7.63125 2.96529 7.33325 3.33329 7.33325H12.6666C13.0353 7.33325 13.3333 7.63125 13.3333 7.99992C13.3333 8.36859 13.0353 8.66659 12.6666 8.66659" fill="white"/>
</mask>
<g mask="url(#mask0_461_1317)">
</g>
</svg>
