<svg width="20" height="20" viewBox="0 0 20 20" fill="none" xmlns="http://www.w3.org/2000/svg">
<path fill-rule="evenodd" clip-rule="evenodd" d="M2.5 9.99992C2.5 9.07992 3.24667 8.33325 4.16667 8.33325C5.08667 8.33325 5.83333 9.07992 5.83333 9.99992C5.83333 10.9199 5.08667 11.6666 4.16667 11.6666C3.24667 11.6666 2.5 10.9199 2.5 9.99992ZM10 8.33325C9.08 8.33325 8.33333 9.07992 8.33333 9.99992C8.33333 10.9199 9.08 11.6666 10 11.6666C10.92 11.6666 11.6667 10.9199 11.6667 9.99992C11.6667 9.07992 10.92 8.33325 10 8.33325ZM15.8333 8.33325C14.9133 8.33325 14.1667 9.07992 14.1667 9.99992C14.1667 10.9199 14.9133 11.6666 15.8333 11.6666C16.7533 11.6666 17.5 10.9199 17.5 9.99992C17.5 9.07992 16.7533 8.33325 15.8333 8.33325Z" fill="#0D0F23"/>
<mask id="mask0_14_13626" style="mask-type:alpha" maskUnits="userSpaceOnUse" x="2" y="8" width="16" height="4">
<path fill-rule="evenodd" clip-rule="evenodd" d="M2.5 9.99992C2.5 9.07992 3.24667 8.33325 4.16667 8.33325C5.08667 8.33325 5.83333 9.07992 5.83333 9.99992C5.83333 10.9199 5.08667 11.6666 4.16667 11.6666C3.24667 11.6666 2.5 10.9199 2.5 9.99992ZM10 8.33325C9.08 8.33325 8.33333 9.07992 8.33333 9.99992C8.33333 10.9199 9.08 11.6666 10 11.6666C10.92 11.6666 11.6667 10.9199 11.6667 9.99992C11.6667 9.07992 10.92 8.33325 10 8.33325ZM15.8333 8.33325C14.9133 8.33325 14.1667 9.07992 14.1667 9.99992C14.1667 10.9199 14.9133 11.6666 15.8333 11.6666C16.7533 11.6666 17.5 10.9199 17.5 9.99992C17.5 9.07992 16.7533 8.33325 15.8333 8.33325Z" fill="white"/>
</mask>
<g mask="url(#mask0_14_13626)">
</g>
</svg>
