<svg width="20" height="20" viewBox="0 0 20 20" fill="none" xmlns="http://www.w3.org/2000/svg">
<path fill-rule="evenodd" clip-rule="evenodd" d="M11.3891 18.3335C11.3716 18.3335 11.355 18.3327 11.3383 18.3319C10.9616 18.3094 10.6475 18.036 10.5725 17.666L9.29081 11.3602C9.22414 11.0319 8.96831 10.776 8.63998 10.7094L2.33414 9.42688C1.96414 9.35271 1.69081 9.03854 1.66831 8.66188C1.64581 8.28438 1.87831 7.93938 2.23664 7.82104L15.57 3.37688C15.8691 3.27521 16.1991 3.35354 16.4225 3.57771C16.6458 3.80104 16.7233 4.13104 16.6241 4.43021L12.1791 17.7635C12.0658 18.106 11.7458 18.3335 11.3891 18.3335" fill="#A0A1B4"/>
<mask id="mask0_543_4726" style="mask-type:luminance" maskUnits="userSpaceOnUse" x="1" y="3" width="16" height="16">
<path fill-rule="evenodd" clip-rule="evenodd" d="M11.3891 18.3335C11.3716 18.3335 11.355 18.3327 11.3383 18.3319C10.9616 18.3094 10.6475 18.036 10.5725 17.666L9.29081 11.3602C9.22414 11.0319 8.96831 10.776 8.63998 10.7094L2.33414 9.42688C1.96414 9.35271 1.69081 9.03854 1.66831 8.66188C1.64581 8.28438 1.87831 7.93938 2.23664 7.82104L15.57 3.37688C15.8691 3.27521 16.1991 3.35354 16.4225 3.57771C16.6458 3.80104 16.7233 4.13104 16.6241 4.43021L12.1791 17.7635C12.0658 18.106 11.7458 18.3335 11.3891 18.3335" fill="white"/>
</mask>
<g mask="url(#mask0_543_4726)">
</g>
</svg>
