<svg width="24" height="24" viewBox="0 0 24 24" fill="none" xmlns="http://www.w3.org/2000/svg">
<path fill-rule="evenodd" clip-rule="evenodd" d="M18.6904 15.9625L13.0004 18.6065V11.8905L19.0004 9.10355V15.5385C19.0004 15.7125 18.8824 15.8745 18.6904 15.9625ZM5.3034 15.9635C5.1144 15.8755 4.9984 15.7135 5.0004 15.5315V9.10355L11.0004 11.8905V18.6085L5.3034 15.9635ZM11.7074 5.06355C11.7984 5.02055 11.8994 4.99955 12.0004 4.99955C12.1004 4.99955 12.2014 5.02055 12.2924 5.06355L17.6214 7.53755L12.0004 10.1495L6.3784 7.53755L11.7074 5.06355ZM20.6564 7.25855C20.6534 7.25055 20.6544 7.24155 20.6504 7.23355C20.6474 7.22555 20.6394 7.22055 20.6344 7.21255C20.5884 7.13655 20.5324 7.06955 20.4794 6.99955C20.4484 6.96555 20.4234 6.92755 20.3894 6.89855C20.1544 6.62255 19.8774 6.37955 19.5334 6.22055L13.1334 3.24755C13.1324 3.24755 13.1314 3.24755 13.1314 3.24655C12.4124 2.91455 11.5874 2.91555 10.8664 3.24755L4.4694 6.21955C4.1254 6.37855 3.8474 6.62055 3.6124 6.89655C3.5754 6.92755 3.5484 6.96955 3.5154 7.00655C3.4634 7.07355 3.4104 7.13855 3.3664 7.21055C3.3614 7.21955 3.3534 7.22555 3.3494 7.23355C3.3454 7.24255 3.3464 7.25155 3.3424 7.26055C3.1314 7.62255 3.0004 8.02955 3.0004 8.45755V15.5245C2.9924 16.4745 3.5644 17.3585 4.4584 17.7765L10.8574 20.7485C11.2194 20.9175 11.6074 21.0015 11.9964 21.0015C12.3844 21.0015 12.7724 20.9175 13.1334 20.7495L19.5304 17.7775C20.4224 17.3655 20.9994 16.4875 21.0004 15.5395V8.45655C20.9994 8.02855 20.8684 7.62155 20.6564 7.25855Z" fill="white"/>
<mask id="mask0_12_5795" style="mask-type:luminance" maskUnits="userSpaceOnUse" x="3" y="2" width="19" height="20">
<path fill-rule="evenodd" clip-rule="evenodd" d="M18.6904 15.9625L13.0004 18.6065V11.8905L19.0004 9.10355V15.5385C19.0004 15.7125 18.8824 15.8745 18.6904 15.9625ZM5.3034 15.9635C5.1144 15.8755 4.9984 15.7135 5.0004 15.5315V9.10355L11.0004 11.8905V18.6085L5.3034 15.9635ZM11.7074 5.06355C11.7984 5.02055 11.8994 4.99955 12.0004 4.99955C12.1004 4.99955 12.2014 5.02055 12.2924 5.06355L17.6214 7.53755L12.0004 10.1495L6.3784 7.53755L11.7074 5.06355ZM20.6564 7.25855C20.6534 7.25055 20.6544 7.24155 20.6504 7.23355C20.6474 7.22555 20.6394 7.22055 20.6344 7.21255C20.5884 7.13655 20.5324 7.06955 20.4794 6.99955C20.4484 6.96555 20.4234 6.92755 20.3894 6.89855C20.1544 6.62255 19.8774 6.37955 19.5334 6.22055L13.1334 3.24755C13.1324 3.24755 13.1314 3.24755 13.1314 3.24655C12.4124 2.91455 11.5874 2.91555 10.8664 3.24755L4.4694 6.21955C4.1254 6.37855 3.8474 6.62055 3.6124 6.89655C3.5754 6.92755 3.5484 6.96955 3.5154 7.00655C3.4634 7.07355 3.4104 7.13855 3.3664 7.21055C3.3614 7.21955 3.3534 7.22555 3.3494 7.23355C3.3454 7.24255 3.3464 7.25155 3.3424 7.26055C3.1314 7.62255 3.0004 8.02955 3.0004 8.45755V15.5245C2.9924 16.4745 3.5644 17.3585 4.4584 17.7765L10.8574 20.7485C11.2194 20.9175 11.6074 21.0015 11.9964 21.0015C12.3844 21.0015 12.7724 20.9175 13.1334 20.7495L19.5304 17.7775C20.4224 17.3655 20.9994 16.4875 21.0004 15.5395V8.45655C20.9994 8.02855 20.8684 7.62155 20.6564 7.25855Z" fill="white"/>
</mask>
<g mask="url(#mask0_12_5795)">
</g>
</svg>
