<svg width="16" height="16" viewBox="0 0 16 16" fill="none" xmlns="http://www.w3.org/2000/svg">
<path fill-rule="evenodd" clip-rule="evenodd" d="M8.66667 12.6667H11.6667V10H8.66667V12.6667ZM4.33333 12.6667H7.33333V10H4.33333V12.6667ZM3.33333 6.13333C3.33333 6.078 3.342 6.03333 3.35067 6H5.42867H7.33333V8.66667H3.35067C3.342 8.63333 3.33333 8.58867 3.33333 8.53333V6.13333ZM4.66667 4C4.66667 3.632 5.00867 3.33333 5.42867 3.33333C6.26667 3.33333 6.78 4.06 7.06267 4.66667H5.42867C5.00867 4.66667 4.66667 4.368 4.66667 4V4ZM10.5713 3.33333C10.9913 3.33333 11.3333 3.632 11.3333 4C11.3333 4.368 10.9913 4.66667 10.5713 4.66667H8.93333C9.21333 4.06 9.72533 3.33333 10.5713 3.33333V3.33333ZM12.6667 6.13333V8.53333C12.6667 8.58867 12.658 8.63333 12.6493 8.66667H8.66667V6H10.5713H12.6493C12.658 6.03333 12.6667 6.078 12.6667 6.13333V6.13333ZM12.8 4.66667H12.538C12.6167 4.45733 12.6667 4.23533 12.6667 4C12.6667 2.89733 11.7267 2 10.5713 2C9.29 2 8.486 2.79933 8 3.598C7.514 2.79933 6.71 2 5.42867 2C4.27333 2 3.33333 2.89733 3.33333 4C3.33333 4.23533 3.384 4.45733 3.462 4.66667H3.2C2.52733 4.66667 2 5.31133 2 6.13333V8.53333C2 9.27133 2.42667 9.862 3 9.976V12.8887C3 13.5013 3.542 14 4.208 14H11.7913C12.458 14 13 13.5013 13 12.8887V9.976C13.5733 9.862 14 9.27133 14 8.53333V6.13333C14 5.31133 13.4727 4.66667 12.8 4.66667V4.66667Z" fill="#0D0F23"/>
<mask id="mask0_12_6558" style="mask-type:luminance" maskUnits="userSpaceOnUse" x="2" y="2" width="12" height="12">
<path fill-rule="evenodd" clip-rule="evenodd" d="M8.66667 12.6667H11.6667V10H8.66667V12.6667ZM4.33333 12.6667H7.33333V10H4.33333V12.6667ZM3.33333 6.13333C3.33333 6.078 3.342 6.03333 3.35067 6H5.42867H7.33333V8.66667H3.35067C3.342 8.63333 3.33333 8.58867 3.33333 8.53333V6.13333ZM4.66667 4C4.66667 3.632 5.00867 3.33333 5.42867 3.33333C6.26667 3.33333 6.78 4.06 7.06267 4.66667H5.42867C5.00867 4.66667 4.66667 4.368 4.66667 4V4ZM10.5713 3.33333C10.9913 3.33333 11.3333 3.632 11.3333 4C11.3333 4.368 10.9913 4.66667 10.5713 4.66667H8.93333C9.21333 4.06 9.72533 3.33333 10.5713 3.33333V3.33333ZM12.6667 6.13333V8.53333C12.6667 8.58867 12.658 8.63333 12.6493 8.66667H8.66667V6H10.5713H12.6493C12.658 6.03333 12.6667 6.078 12.6667 6.13333V6.13333ZM12.8 4.66667H12.538C12.6167 4.45733 12.6667 4.23533 12.6667 4C12.6667 2.89733 11.7267 2 10.5713 2C9.29 2 8.486 2.79933 8 3.598C7.514 2.79933 6.71 2 5.42867 2C4.27333 2 3.33333 2.89733 3.33333 4C3.33333 4.23533 3.384 4.45733 3.462 4.66667H3.2C2.52733 4.66667 2 5.31133 2 6.13333V8.53333C2 9.27133 2.42667 9.862 3 9.976V12.8887C3 13.5013 3.542 14 4.208 14H11.7913C12.458 14 13 13.5013 13 12.8887V9.976C13.5733 9.862 14 9.27133 14 8.53333V6.13333C14 5.31133 13.4727 4.66667 12.8 4.66667V4.66667Z" fill="white"/>
</mask>
<g mask="url(#mask0_12_6558)">
</g>
</svg>
