<svg width="16" height="16" viewBox="0 0 16 16" fill="none" xmlns="http://www.w3.org/2000/svg">
<path fill-rule="evenodd" clip-rule="evenodd" d="M9.74471 13.0343C10.444 12.0357 11.1714 10.567 11.3167 8.66634H13.2867C13.0314 10.701 11.6274 12.3797 9.74471 13.0343V13.0343ZM2.71271 8.66634H4.70737C4.84471 10.5743 5.56271 12.037 6.27137 13.0403C4.38004 12.389 2.96937 10.707 2.71271 8.66634V8.66634ZM6.29204 2.95234C5.59071 3.95101 4.85671 5.42434 4.71004 7.33301H2.71271C2.97004 5.28501 4.39071 3.59767 6.29204 2.95234V2.95234ZM6.05271 7.33301C6.25671 5.15167 7.37271 3.63301 8.01737 2.93101C8.68404 3.64501 9.78271 5.14967 9.97271 7.33301H6.05271ZM6.05337 8.66634H9.97471C9.77071 10.851 8.65204 12.3697 8.00804 13.0717C7.31004 12.3317 6.23937 10.8477 6.05337 8.66634V8.66634ZM13.2867 7.33301H11.3187C11.182 5.43367 10.472 3.97567 9.76671 2.97367C11.6387 3.63367 13.0327 5.30634 13.2867 7.33301V7.33301ZM14.6667 7.99967C14.6667 4.33034 11.686 1.34501 8.01871 1.33434C8.01604 1.33434 8.01337 1.33367 8.01004 1.33367C8.00737 1.33367 8.00337 1.33301 8.00004 1.33301C4.32404 1.33301 1.33337 4.32434 1.33337 7.99967C1.33337 11.6757 4.32404 14.6663 8.00004 14.6663C8.00404 14.6663 8.00737 14.6657 8.01004 14.6657C8.01137 14.6657 8.01204 14.6663 8.01337 14.6663C8.01537 14.6663 8.01737 14.665 8.01871 14.665C11.686 14.655 14.6667 11.669 14.6667 7.99967V7.99967Z" fill="#0D0F23"/>
<mask id="mask0_12_6550" style="mask-type:luminance" maskUnits="userSpaceOnUse" x="1" y="1" width="14" height="14">
<path fill-rule="evenodd" clip-rule="evenodd" d="M9.74471 13.0343C10.444 12.0357 11.1714 10.567 11.3167 8.66634H13.2867C13.0314 10.701 11.6274 12.3797 9.74471 13.0343V13.0343ZM2.71271 8.66634H4.70737C4.84471 10.5743 5.56271 12.037 6.27137 13.0403C4.38004 12.389 2.96937 10.707 2.71271 8.66634V8.66634ZM6.29204 2.95234C5.59071 3.95101 4.85671 5.42434 4.71004 7.33301H2.71271C2.97004 5.28501 4.39071 3.59767 6.29204 2.95234V2.95234ZM6.05271 7.33301C6.25671 5.15167 7.37271 3.63301 8.01737 2.93101C8.68404 3.64501 9.78271 5.14967 9.97271 7.33301H6.05271ZM6.05337 8.66634H9.97471C9.77071 10.851 8.65204 12.3697 8.00804 13.0717C7.31004 12.3317 6.23937 10.8477 6.05337 8.66634V8.66634ZM13.2867 7.33301H11.3187C11.182 5.43367 10.472 3.97567 9.76671 2.97367C11.6387 3.63367 13.0327 5.30634 13.2867 7.33301V7.33301ZM14.6667 7.99967C14.6667 4.33034 11.686 1.34501 8.01871 1.33434C8.01604 1.33434 8.01337 1.33367 8.01004 1.33367C8.00737 1.33367 8.00337 1.33301 8.00004 1.33301C4.32404 1.33301 1.33337 4.32434 1.33337 7.99967C1.33337 11.6757 4.32404 14.6663 8.00004 14.6663C8.00404 14.6663 8.00737 14.6657 8.01004 14.6657C8.01137 14.6657 8.01204 14.6663 8.01337 14.6663C8.01537 14.6663 8.01737 14.665 8.01871 14.665C11.686 14.655 14.6667 11.669 14.6667 7.99967V7.99967Z" fill="white"/>
</mask>
<g mask="url(#mask0_12_6550)">
</g>
</svg>
