<svg width="20" height="20" viewBox="0 0 20 20" fill="none" xmlns="http://www.w3.org/2000/svg">
<path fill-rule="evenodd" clip-rule="evenodd" d="M14.4999 18.3337C7.42323 18.3337 1.66656 12.577 1.66656 5.50033C1.66656 3.38616 3.38656 1.66699 5.4999 1.66699C5.71656 1.66699 5.93073 1.68533 6.13823 1.72116C6.34073 1.75366 6.5449 1.80533 6.7424 1.87366C7.01406 1.96783 7.2174 2.19533 7.28156 2.47533L8.42323 7.44533C8.48573 7.71866 8.40656 8.00533 8.2124 8.20866C8.09823 8.32699 8.09573 8.32949 7.0624 8.87033C7.89906 10.682 9.35323 12.1312 11.1291 12.9395C11.6699 11.9053 11.6732 11.902 11.7916 11.7887C11.9957 11.5937 12.2832 11.5178 12.5557 11.5778L17.5257 12.7187C17.8049 12.7828 18.0324 12.9862 18.1266 13.257C18.1949 13.4537 18.2457 13.657 18.2799 13.8662C18.3149 14.072 18.3332 14.2853 18.3332 14.5003C18.3332 16.6145 16.6141 18.3337 14.4999 18.3337" fill="#A1DBF5"/>
<mask id="mask0_14_8181" style="mask-type:luminance" maskUnits="userSpaceOnUse" x="1" y="1" width="18" height="18">
<path fill-rule="evenodd" clip-rule="evenodd" d="M14.4999 18.3337C7.42323 18.3337 1.66656 12.577 1.66656 5.50033C1.66656 3.38616 3.38656 1.66699 5.4999 1.66699C5.71656 1.66699 5.93073 1.68533 6.13823 1.72116C6.34073 1.75366 6.5449 1.80533 6.7424 1.87366C7.01406 1.96783 7.2174 2.19533 7.28156 2.47533L8.42323 7.44533C8.48573 7.71866 8.40656 8.00533 8.2124 8.20866C8.09823 8.32699 8.09573 8.32949 7.0624 8.87033C7.89906 10.682 9.35323 12.1312 11.1291 12.9395C11.6699 11.9053 11.6732 11.902 11.7916 11.7887C11.9957 11.5937 12.2832 11.5178 12.5557 11.5778L17.5257 12.7187C17.8049 12.7828 18.0324 12.9862 18.1266 13.257C18.1949 13.4537 18.2457 13.657 18.2799 13.8662C18.3149 14.072 18.3332 14.2853 18.3332 14.5003C18.3332 16.6145 16.6141 18.3337 14.4999 18.3337" fill="white"/>
</mask>
<g mask="url(#mask0_14_8181)">
</g>
</svg>
