<svg width="16" height="16" viewBox="0 0 16 16" fill="none" xmlns="http://www.w3.org/2000/svg">
<path fill-rule="evenodd" clip-rule="evenodd" d="M12.6666 7.33317H8.66663V3.33317C8.66663 2.9645 8.36796 2.6665 7.99996 2.6665C7.63196 2.6665 7.33329 2.9645 7.33329 3.33317V7.33317H3.33329C2.96529 7.33317 2.66663 7.63117 2.66663 7.99984C2.66663 8.3685 2.96529 8.6665 3.33329 8.6665H7.33329V12.6665C7.33329 13.0352 7.63196 13.3332 7.99996 13.3332C8.36796 13.3332 8.66663 13.0352 8.66663 12.6665V8.6665H12.6666C13.0346 8.6665 13.3333 8.3685 13.3333 7.99984C13.3333 7.63117 13.0346 7.33317 12.6666 7.33317Z" fill="#0D0F23"/>
<mask id="mask0_461_1563" style="mask-type:alpha" maskUnits="userSpaceOnUse" x="2" y="2" width="12" height="12">
<path fill-rule="evenodd" clip-rule="evenodd" d="M12.6666 7.33317H8.66663V3.33317C8.66663 2.9645 8.36796 2.6665 7.99996 2.6665C7.63196 2.6665 7.33329 2.9645 7.33329 3.33317V7.33317H3.33329C2.96529 7.33317 2.66663 7.63117 2.66663 7.99984C2.66663 8.3685 2.96529 8.6665 3.33329 8.6665H7.33329V12.6665C7.33329 13.0352 7.63196 13.3332 7.99996 13.3332C8.36796 13.3332 8.66663 13.0352 8.66663 12.6665V8.6665H12.6666C13.0346 8.6665 13.3333 8.3685 13.3333 7.99984C13.3333 7.63117 13.0346 7.33317 12.6666 7.33317Z" fill="white"/>
</mask>
<g mask="url(#mask0_461_1563)">
</g>
</svg>
