<svg width="20" height="20" viewBox="0 0 20 20" fill="none" xmlns="http://www.w3.org/2000/svg">
<path fill-rule="evenodd" clip-rule="evenodd" d="M10.025 1.66676C11.9084 1.6751 13.7084 2.4251 15.025 3.74176C16.35 5.06676 17.0917 6.85843 17.0834 8.71676V8.75843C17.0334 11.2834 15.6167 13.6084 13.85 15.4251C12.85 16.4501 11.7417 17.3584 10.5334 18.1251C10.2084 18.4001 9.73335 18.4001 9.40835 18.1251C7.61669 16.9584 6.03335 15.4918 4.75002 13.7834C3.62502 12.3001 2.98335 10.5168 2.91669 8.65843C2.93335 4.78343 6.11669 1.65843 10.025 1.66676ZM10.025 11.0501C10.6167 11.0501 11.1834 10.8251 11.6 10.4168C12.0334 9.99176 12.2759 9.42593 12.2759 8.83343C12.2759 7.60009 11.2667 6.60843 10.025 6.60843C8.78335 6.60843 7.78335 7.60009 7.78335 8.83343C7.78335 10.0509 8.76669 11.0334 10 11.0501H10.025Z" fill="#A0A1B4"/>
</svg>
