<svg width="16" height="16" viewBox="0 0 16 16" fill="none" xmlns="http://www.w3.org/2000/svg">
<path fill-rule="evenodd" clip-rule="evenodd" d="M7.04032 5.62658C7.43099 6.01658 7.43099 6.65058 7.04032 7.04058C6.64966 7.43125 6.01699 7.43125 5.62632 7.04058C5.23566 6.65058 5.23566 6.01658 5.62632 5.62658C6.01699 5.23591 6.64966 5.23591 7.04032 5.62658M3.88932 8.59465L7.91066 12.6166L12.616 7.91131L8.59466 3.88931L3.40466 3.40531L3.88932 8.59465ZM7.91066 13.9993C7.60066 13.9993 7.29133 13.8813 7.05466 13.646L2.77666 9.36731C2.66666 9.25798 2.59866 9.11265 2.58399 8.95798L2.00266 2.72865C1.98466 2.53131 2.05466 2.33598 2.19532 2.19531C2.33599 2.05465 2.53066 1.98331 2.72866 2.00331L8.95799 2.58465C9.11266 2.59865 9.25733 2.66665 9.36733 2.77665L13.6453 7.05465C13.874 7.28331 14 7.58731 14 7.91131C14 8.23531 13.874 8.53931 13.6453 8.76798L8.76733 13.6453C8.53133 13.8813 8.22132 13.9993 7.91066 13.9993V13.9993Z" fill="#0D0F23"/>
<mask id="mask0_12_6555" style="mask-type:luminance" maskUnits="userSpaceOnUse" x="1" y="2" width="13" height="12">
<path fill-rule="evenodd" clip-rule="evenodd" d="M7.04032 5.62658C7.43099 6.01658 7.43099 6.65058 7.04032 7.04058C6.64966 7.43125 6.01699 7.43125 5.62632 7.04058C5.23566 6.65058 5.23566 6.01658 5.62632 5.62658C6.01699 5.23591 6.64966 5.23591 7.04032 5.62658M3.88932 8.59465L7.91066 12.6166L12.616 7.91131L8.59466 3.88931L3.40466 3.40531L3.88932 8.59465ZM7.91066 13.9993C7.60066 13.9993 7.29133 13.8813 7.05466 13.646L2.77666 9.36731C2.66666 9.25798 2.59866 9.11265 2.58399 8.95798L2.00266 2.72865C1.98466 2.53131 2.05466 2.33598 2.19532 2.19531C2.33599 2.05465 2.53066 1.98331 2.72866 2.00331L8.95799 2.58465C9.11266 2.59865 9.25733 2.66665 9.36733 2.77665L13.6453 7.05465C13.874 7.28331 14 7.58731 14 7.91131C14 8.23531 13.874 8.53931 13.6453 8.76798L8.76733 13.6453C8.53133 13.8813 8.22132 13.9993 7.91066 13.9993V13.9993Z" fill="white"/>
</mask>
<g mask="url(#mask0_12_6555)">
</g>
</svg>
