<svg width="20" height="20" viewBox="0 0 20 20" fill="none" xmlns="http://www.w3.org/2000/svg">
<path fill-rule="evenodd" clip-rule="evenodd" d="M9.63374 9.63382C9.14541 10.1221 8.35457 10.1221 7.86624 9.63382C7.37791 9.14548 7.37791 8.35382 7.86624 7.86632C8.35457 7.37798 9.14541 7.37798 9.63374 7.86632C10.1221 8.35382 10.1221 9.14548 9.63374 9.63382M17.8896 9.65132L12.5421 4.30382C12.4046 4.16632 12.2237 4.08132 12.0304 4.06382L4.24374 3.33715C3.99624 3.31215 3.75291 3.40132 3.57707 3.57715C3.40124 3.75298 3.31374 3.99715 3.33624 4.24382L4.06291 12.0305C4.08207 12.2238 4.16624 12.4055 4.30374 12.5422L9.65124 17.8905C9.94707 18.1847 10.3346 18.3322 10.7221 18.3322C11.1096 18.3322 11.4971 18.1847 11.7929 17.8897L17.8896 11.793C18.1754 11.508 18.3329 11.1272 18.3329 10.7222C18.3329 10.3172 18.1754 9.93715 17.8896 9.65132" fill="#A0A1B4"/>
<mask id="mask0_468_5935" style="mask-type:alpha" maskUnits="userSpaceOnUse" x="3" y="3" width="16" height="16">
<path fill-rule="evenodd" clip-rule="evenodd" d="M9.63374 9.63382C9.14541 10.1221 8.35457 10.1221 7.86624 9.63382C7.37791 9.14548 7.37791 8.35382 7.86624 7.86632C8.35457 7.37798 9.14541 7.37798 9.63374 7.86632C10.1221 8.35382 10.1221 9.14548 9.63374 9.63382M17.8896 9.65132L12.5421 4.30382C12.4046 4.16632 12.2237 4.08132 12.0304 4.06382L4.24374 3.33715C3.99624 3.31215 3.75291 3.40132 3.57707 3.57715C3.40124 3.75298 3.31374 3.99715 3.33624 4.24382L4.06291 12.0305C4.08207 12.2238 4.16624 12.4055 4.30374 12.5422L9.65124 17.8905C9.94707 18.1847 10.3346 18.3322 10.7221 18.3322C11.1096 18.3322 11.4971 18.1847 11.7929 17.8897L17.8896 11.793C18.1754 11.508 18.3329 11.1272 18.3329 10.7222C18.3329 10.3172 18.1754 9.93715 17.8896 9.65132" fill="white"/>
</mask>
<g mask="url(#mask0_468_5935)">
</g>
</svg>
