<svg width="20" height="20" viewBox="0 0 20 20" fill="none" xmlns="http://www.w3.org/2000/svg">
<path fill-rule="evenodd" clip-rule="evenodd" d="M8.74998 14.1667C8.53665 14.1667 8.32332 14.085 8.16082 13.9225C7.83498 13.5967 7.83498 13.07 8.16082 12.7442L10.915 9.99004L8.26498 7.24588C7.94582 6.91421 7.95498 6.38671 8.28582 6.06754C8.61748 5.74838 9.14498 5.75754 9.46415 6.08754L12.6825 9.42088C12.9983 9.74838 12.9942 10.2675 12.6725 10.5892L9.33915 13.9225C9.17665 14.085 8.96332 14.1667 8.74998 14.1667Z" fill="#A0A1B4"/>
<mask id="mask0_12_6534" style="mask-type:luminance" maskUnits="userSpaceOnUse" x="7" y="5" width="6" height="10">
<path fill-rule="evenodd" clip-rule="evenodd" d="M8.74998 14.1667C8.53665 14.1667 8.32332 14.085 8.16082 13.9225C7.83498 13.5967 7.83498 13.07 8.16082 12.7442L10.915 9.99004L8.26498 7.24588C7.94582 6.91421 7.95498 6.38671 8.28582 6.06754C8.61748 5.74838 9.14498 5.75754 9.46415 6.08754L12.6825 9.42088C12.9983 9.74838 12.9942 10.2675 12.6725 10.5892L9.33915 13.9225C9.17665 14.085 8.96332 14.1667 8.74998 14.1667Z" fill="white"/>
</mask>
<g mask="url(#mask0_12_6534)">
</g>
</svg>
